<?xml version="1.0" standalone="no"?>
 <!DOCTYPE svg PUBLIC "-//W3C//DTD SVG 1.1//EN" 
 "http://www.w3.org/Graphics/SVG/1.1/DTD/svg11.dtd"> 
<svg
  xmlns:svg="http://www.w3.org/2000/svg"
  xmlns="http://www.w3.org/2000/svg"
  xmlns:xlink="http://www.w3.org/1999/xlink"
  version="1.1"
  width="210.0072mm" height="148.0058mm" viewBox="0.0000 0.0000 210.0072 148.0058">
<title>SVG Image created as lumen_PD-F_Silkscreen.svg date 2024/11/20 19:51:52 </title>
  <desc>Image generated by PCBNEW </desc>
<g style="fill:#000000; fill-opacity:1.0000;stroke:#000000; stroke-opacity:1.0000;
stroke-linecap:round; stroke-linejoin:round;"
 transform="translate(0 0) scale(1 1)">
</g>
<g style="fill:none; 
stroke:#000000; stroke-width:0.1500; stroke-opacity:1; 
stroke-linecap:round; stroke-linejoin:round;">
<path d="M90.0072 104.0058
L198.0072 104.0058
L198.0072 136.0058
L90.0072 136.0058
L90.0072 104.0058
" />
</g>
<g style="fill:none; 
stroke:#000000; stroke-width:0.1500; stroke-opacity:1; 
stroke-linecap:round; stroke-linejoin:round;">
<path d="M10.0000 10.0000
L200.0072 10.0000
L200.0072 138.0058
L10.0000 138.0058
L10.0000 10.0000
" />
</g>
<g style="fill:none; 
stroke:#000000; stroke-width:0.1500; stroke-opacity:1; 
stroke-linecap:round; stroke-linejoin:round;">
<path d="M12.0000 12.0000
L198.0072 12.0000
L198.0072 136.0058
L12.0000 136.0058
L12.0000 12.0000
" />
</g>
<g style="fill:none; 
stroke:#000000; stroke-width:0.1500; stroke-opacity:1; 
stroke-linecap:round; stroke-linejoin:round;">
<path d="M60.0000 12.0000
L60.0000 10.0000
" />
</g>
<g style="fill:none; 
stroke:#000000; stroke-width:0.1500; stroke-opacity:1; 
stroke-linecap:round; stroke-linejoin:round;">
<path d="M110.0000 12.0000
L110.0000 10.0000
" />
</g>
<g style="fill:none; 
stroke:#000000; stroke-width:0.1500; stroke-opacity:1; 
stroke-linecap:round; stroke-linejoin:round;">
<path d="M160.0000 12.0000
L160.0000 10.0000
" />
</g>
<g style="fill:none; 
stroke:#000000; stroke-width:0.1500; stroke-opacity:1; 
stroke-linecap:round; stroke-linejoin:round;">
<text x="35.0000" y="11.6500"
textLength="1.4281" font-size="1.7333" lengthAdjust="spacingAndGlyphs"
text-anchor="start" opacity="0" stroke-opacity="0">1</text>
<g class="stroked-text"><desc>1</desc>
<path d="M36.0892 11.5936
L35.3463 11.5936
" />
<path d="M35.7177 11.5936
L35.7177 10.2936
" />
<path d="M35.7177 10.2936
L35.5939 10.4793
" />
<path d="M35.5939 10.4793
L35.4701 10.6031
" />
<path d="M35.4701 10.6031
L35.3463 10.6650
" />
</g></g>
<g style="fill:none; 
stroke:#000000; stroke-width:0.1500; stroke-opacity:1; 
stroke-linecap:round; stroke-linejoin:round;">
<text x="85.0000" y="11.6500"
textLength="1.4281" font-size="1.7333" lengthAdjust="spacingAndGlyphs"
text-anchor="start" opacity="0" stroke-opacity="0">2</text>
<g class="stroked-text"><desc>2</desc>
<path d="M85.3463 10.4174
L85.4082 10.3555
" />
<path d="M85.4082 10.3555
L85.5320 10.2936
" />
<path d="M85.5320 10.2936
L85.8415 10.2936
" />
<path d="M85.8415 10.2936
L85.9654 10.3555
" />
<path d="M85.9654 10.3555
L86.0273 10.4174
" />
<path d="M86.0273 10.4174
L86.0892 10.5412
" />
<path d="M86.0892 10.5412
L86.0892 10.6650
" />
<path d="M86.0892 10.6650
L86.0273 10.8507
" />
<path d="M86.0273 10.8507
L85.2844 11.5936
" />
<path d="M85.2844 11.5936
L86.0892 11.5936
" />
</g></g>
<g style="fill:none; 
stroke:#000000; stroke-width:0.1500; stroke-opacity:1; 
stroke-linecap:round; stroke-linejoin:round;">
<text x="135.0000" y="11.6500"
textLength="1.4281" font-size="1.7333" lengthAdjust="spacingAndGlyphs"
text-anchor="start" opacity="0" stroke-opacity="0">3</text>
<g class="stroked-text"><desc>3</desc>
<path d="M135.2844 10.2936
L136.0892 10.2936
" />
<path d="M136.0892 10.2936
L135.6558 10.7888
" />
<path d="M135.6558 10.7888
L135.8415 10.7888
" />
<path d="M135.8415 10.7888
L135.9654 10.8507
" />
<path d="M135.9654 10.8507
L136.0273 10.9127
" />
<path d="M136.0273 10.9127
L136.0892 11.0365
" />
<path d="M136.0892 11.0365
L136.0892 11.3460
" />
<path d="M136.0892 11.3460
L136.0273 11.4698
" />
<path d="M136.0273 11.4698
L135.9654 11.5317
" />
<path d="M135.9654 11.5317
L135.8415 11.5936
" />
<path d="M135.8415 11.5936
L135.4701 11.5936
" />
<path d="M135.4701 11.5936
L135.3463 11.5317
" />
<path d="M135.3463 11.5317
L135.2844 11.4698
" />
</g></g>
<g style="fill:none; 
stroke:#000000; stroke-width:0.1500; stroke-opacity:1; 
stroke-linecap:round; stroke-linejoin:round;">
<text x="185.0000" y="11.6500"
textLength="1.4281" font-size="1.7333" lengthAdjust="spacingAndGlyphs"
text-anchor="start" opacity="0" stroke-opacity="0">4</text>
<g class="stroked-text"><desc>4</desc>
<path d="M185.9654 10.7269
L185.9654 11.5936
" />
<path d="M185.6558 10.2317
L185.3463 11.1603
" />
<path d="M185.3463 11.1603
L186.1511 11.1603
" />
</g></g>
<g style="fill:none; 
stroke:#000000; stroke-width:0.1500; stroke-opacity:1; 
stroke-linecap:round; stroke-linejoin:round;">
<path d="M60.0000 136.0058
L60.0000 138.0058
" />
</g>
<g style="fill:none; 
stroke:#000000; stroke-width:0.1500; stroke-opacity:1; 
stroke-linecap:round; stroke-linejoin:round;">
<path d="M110.0000 136.0058
L110.0000 138.0058
" />
</g>
<g style="fill:none; 
stroke:#000000; stroke-width:0.1500; stroke-opacity:1; 
stroke-linecap:round; stroke-linejoin:round;">
<path d="M160.0000 136.0058
L160.0000 138.0058
" />
</g>
<g style="fill:none; 
stroke:#000000; stroke-width:0.1500; stroke-opacity:1; 
stroke-linecap:round; stroke-linejoin:round;">
<text x="35.0000" y="137.6558"
textLength="1.4281" font-size="1.7333" lengthAdjust="spacingAndGlyphs"
text-anchor="start" opacity="0" stroke-opacity="0">1</text>
<g class="stroked-text"><desc>1</desc>
<path d="M36.0892 137.5994
L35.3463 137.5994
" />
<path d="M35.7177 137.5994
L35.7177 136.2994
" />
<path d="M35.7177 136.2994
L35.5939 136.4851
" />
<path d="M35.5939 136.4851
L35.4701 136.6089
" />
<path d="M35.4701 136.6089
L35.3463 136.6708
" />
</g></g>
<g style="fill:none; 
stroke:#000000; stroke-width:0.1500; stroke-opacity:1; 
stroke-linecap:round; stroke-linejoin:round;">
<text x="85.0000" y="137.6558"
textLength="1.4281" font-size="1.7333" lengthAdjust="spacingAndGlyphs"
text-anchor="start" opacity="0" stroke-opacity="0">2</text>
<g class="stroked-text"><desc>2</desc>
<path d="M85.3463 136.4232
L85.4082 136.3613
" />
<path d="M85.4082 136.3613
L85.5320 136.2994
" />
<path d="M85.5320 136.2994
L85.8415 136.2994
" />
<path d="M85.8415 136.2994
L85.9654 136.3613
" />
<path d="M85.9654 136.3613
L86.0273 136.4232
" />
<path d="M86.0273 136.4232
L86.0892 136.5470
" />
<path d="M86.0892 136.5470
L86.0892 136.6708
" />
<path d="M86.0892 136.6708
L86.0273 136.8565
" />
<path d="M86.0273 136.8565
L85.2844 137.5994
" />
<path d="M85.2844 137.5994
L86.0892 137.5994
" />
</g></g>
<g style="fill:none; 
stroke:#000000; stroke-width:0.1500; stroke-opacity:1; 
stroke-linecap:round; stroke-linejoin:round;">
<text x="135.0000" y="137.6558"
textLength="1.4281" font-size="1.7333" lengthAdjust="spacingAndGlyphs"
text-anchor="start" opacity="0" stroke-opacity="0">3</text>
<g class="stroked-text"><desc>3</desc>
<path d="M135.2844 136.2994
L136.0892 136.2994
" />
<path d="M136.0892 136.2994
L135.6558 136.7946
" />
<path d="M135.6558 136.7946
L135.8415 136.7946
" />
<path d="M135.8415 136.7946
L135.9654 136.8565
" />
<path d="M135.9654 136.8565
L136.0273 136.9185
" />
<path d="M136.0273 136.9185
L136.0892 137.0423
" />
<path d="M136.0892 137.0423
L136.0892 137.3518
" />
<path d="M136.0892 137.3518
L136.0273 137.4756
" />
<path d="M136.0273 137.4756
L135.9654 137.5375
" />
<path d="M135.9654 137.5375
L135.8415 137.5994
" />
<path d="M135.8415 137.5994
L135.4701 137.5994
" />
<path d="M135.4701 137.5994
L135.3463 137.5375
" />
<path d="M135.3463 137.5375
L135.2844 137.4756
" />
</g></g>
<g style="fill:none; 
stroke:#000000; stroke-width:0.1500; stroke-opacity:1; 
stroke-linecap:round; stroke-linejoin:round;">
<text x="185.0000" y="137.6558"
textLength="1.4281" font-size="1.7333" lengthAdjust="spacingAndGlyphs"
text-anchor="start" opacity="0" stroke-opacity="0">4</text>
<g class="stroked-text"><desc>4</desc>
<path d="M185.9654 136.7327
L185.9654 137.5994
" />
<path d="M185.6558 136.2375
L185.3463 137.1661
" />
<path d="M185.3463 137.1661
L186.1511 137.1661
" />
</g></g>
<g style="fill:none; 
stroke:#000000; stroke-width:0.1500; stroke-opacity:1; 
stroke-linecap:round; stroke-linejoin:round;">
<path d="M10.0000 60.0000
L12.0000 60.0000
" />
</g>
<g style="fill:none; 
stroke:#000000; stroke-width:0.1500; stroke-opacity:1; 
stroke-linecap:round; stroke-linejoin:round;">
<path d="M10.0000 110.0000
L12.0000 110.0000
" />
</g>
<g style="fill:none; 
stroke:#000000; stroke-width:0.1500; stroke-opacity:1; 
stroke-linecap:round; stroke-linejoin:round;">
<text x="11.0000" y="35.6500"
textLength="1.3043" font-size="1.7333" lengthAdjust="spacingAndGlyphs"
text-anchor="middle" opacity="0" stroke-opacity="0">A</text>
<g class="stroked-text"><desc>A</desc>
<path d="M10.6905 35.2222
L11.3095 35.2222
" />
<path d="M10.5667 35.5936
L11.0000 34.2936
" />
<path d="M11.0000 34.2936
L11.4333 35.5936
" />
</g></g>
<g style="fill:none; 
stroke:#000000; stroke-width:0.1500; stroke-opacity:1; 
stroke-linecap:round; stroke-linejoin:round;">
<text x="11.0000" y="85.6500"
textLength="1.4900" font-size="1.7333" lengthAdjust="spacingAndGlyphs"
text-anchor="middle" opacity="0" stroke-opacity="0">B</text>
<g class="stroked-text"><desc>B</desc>
<path d="M11.0929 84.9127
L11.2786 84.9746
" />
<path d="M11.2786 84.9746
L11.3405 85.0365
" />
<path d="M11.3405 85.0365
L11.4024 85.1603
" />
<path d="M11.4024 85.1603
L11.4024 85.3460
" />
<path d="M11.4024 85.3460
L11.3405 85.4698
" />
<path d="M11.3405 85.4698
L11.2786 85.5317
" />
<path d="M11.2786 85.5317
L11.1548 85.5936
" />
<path d="M11.1548 85.5936
L10.6595 85.5936
" />
<path d="M10.6595 85.5936
L10.6595 84.2936
" />
<path d="M10.6595 84.2936
L11.0929 84.2936
" />
<path d="M11.0929 84.2936
L11.2167 84.3555
" />
<path d="M11.2167 84.3555
L11.2786 84.4174
" />
<path d="M11.2786 84.4174
L11.3405 84.5412
" />
<path d="M11.3405 84.5412
L11.3405 84.6650
" />
<path d="M11.3405 84.6650
L11.2786 84.7888
" />
<path d="M11.2786 84.7888
L11.2167 84.8507
" />
<path d="M11.2167 84.8507
L11.0929 84.9127
" />
<path d="M11.0929 84.9127
L10.6595 84.9127
" />
</g></g>
<g style="fill:none; 
stroke:#000000; stroke-width:0.1500; stroke-opacity:1; 
stroke-linecap:round; stroke-linejoin:round;">
<text x="11.0000" y="135.6500"
textLength="1.4900" font-size="1.7333" lengthAdjust="spacingAndGlyphs"
text-anchor="middle" opacity="0" stroke-opacity="0">C</text>
<g class="stroked-text"><desc>C</desc>
<path d="M11.4024 135.4698
L11.3405 135.5317
" />
<path d="M11.3405 135.5317
L11.1548 135.5936
" />
<path d="M11.1548 135.5936
L11.0310 135.5936
" />
<path d="M11.0310 135.5936
L10.8452 135.5317
" />
<path d="M10.8452 135.5317
L10.7214 135.4079
" />
<path d="M10.7214 135.4079
L10.6595 135.2841
" />
<path d="M10.6595 135.2841
L10.5976 135.0365
" />
<path d="M10.5976 135.0365
L10.5976 134.8507
" />
<path d="M10.5976 134.8507
L10.6595 134.6031
" />
<path d="M10.6595 134.6031
L10.7214 134.4793
" />
<path d="M10.7214 134.4793
L10.8452 134.3555
" />
<path d="M10.8452 134.3555
L11.0310 134.2936
" />
<path d="M11.0310 134.2936
L11.1548 134.2936
" />
<path d="M11.1548 134.2936
L11.3405 134.3555
" />
<path d="M11.3405 134.3555
L11.4024 134.4174
" />
</g></g>
<g style="fill:none; 
stroke:#000000; stroke-width:0.1500; stroke-opacity:1; 
stroke-linecap:round; stroke-linejoin:round;">
<path d="M200.0072 60.0000
L198.0072 60.0000
" />
</g>
<g style="fill:none; 
stroke:#000000; stroke-width:0.1500; stroke-opacity:1; 
stroke-linecap:round; stroke-linejoin:round;">
<path d="M200.0072 110.0000
L198.0072 110.0000
" />
</g>
<g style="fill:none; 
stroke:#000000; stroke-width:0.1500; stroke-opacity:1; 
stroke-linecap:round; stroke-linejoin:round;">
<text x="199.0072" y="35.6500"
textLength="1.3043" font-size="1.7333" lengthAdjust="spacingAndGlyphs"
text-anchor="middle" opacity="0" stroke-opacity="0">A</text>
<g class="stroked-text"><desc>A</desc>
<path d="M198.6977 35.2222
L199.3167 35.2222
" />
<path d="M198.5739 35.5936
L199.0072 34.2936
" />
<path d="M199.0072 34.2936
L199.4405 35.5936
" />
</g></g>
<g style="fill:none; 
stroke:#000000; stroke-width:0.1500; stroke-opacity:1; 
stroke-linecap:round; stroke-linejoin:round;">
<text x="199.0072" y="85.6500"
textLength="1.4900" font-size="1.7333" lengthAdjust="spacingAndGlyphs"
text-anchor="middle" opacity="0" stroke-opacity="0">B</text>
<g class="stroked-text"><desc>B</desc>
<path d="M199.1001 84.9127
L199.2858 84.9746
" />
<path d="M199.2858 84.9746
L199.3477 85.0365
" />
<path d="M199.3477 85.0365
L199.4096 85.1603
" />
<path d="M199.4096 85.1603
L199.4096 85.3460
" />
<path d="M199.4096 85.3460
L199.3477 85.4698
" />
<path d="M199.3477 85.4698
L199.2858 85.5317
" />
<path d="M199.2858 85.5317
L199.1620 85.5936
" />
<path d="M199.1620 85.5936
L198.6667 85.5936
" />
<path d="M198.6667 85.5936
L198.6667 84.2936
" />
<path d="M198.6667 84.2936
L199.1001 84.2936
" />
<path d="M199.1001 84.2936
L199.2239 84.3555
" />
<path d="M199.2239 84.3555
L199.2858 84.4174
" />
<path d="M199.2858 84.4174
L199.3477 84.5412
" />
<path d="M199.3477 84.5412
L199.3477 84.6650
" />
<path d="M199.3477 84.6650
L199.2858 84.7888
" />
<path d="M199.2858 84.7888
L199.2239 84.8507
" />
<path d="M199.2239 84.8507
L199.1001 84.9127
" />
<path d="M199.1001 84.9127
L198.6667 84.9127
" />
</g></g>
<g style="fill:none; 
stroke:#000000; stroke-width:0.1500; stroke-opacity:1; 
stroke-linecap:round; stroke-linejoin:round;">
<text x="199.0072" y="135.6500"
textLength="1.4900" font-size="1.7333" lengthAdjust="spacingAndGlyphs"
text-anchor="middle" opacity="0" stroke-opacity="0">C</text>
<g class="stroked-text"><desc>C</desc>
<path d="M199.4096 135.4698
L199.3477 135.5317
" />
<path d="M199.3477 135.5317
L199.1620 135.5936
" />
<path d="M199.1620 135.5936
L199.0382 135.5936
" />
<path d="M199.0382 135.5936
L198.8524 135.5317
" />
<path d="M198.8524 135.5317
L198.7286 135.4079
" />
<path d="M198.7286 135.4079
L198.6667 135.2841
" />
<path d="M198.6667 135.2841
L198.6048 135.0365
" />
<path d="M198.6048 135.0365
L198.6048 134.8507
" />
<path d="M198.6048 134.8507
L198.6667 134.6031
" />
<path d="M198.6667 134.6031
L198.7286 134.4793
" />
<path d="M198.7286 134.4793
L198.8524 134.3555
" />
<path d="M198.8524 134.3555
L199.0382 134.2936
" />
<path d="M199.0382 134.2936
L199.1620 134.2936
" />
<path d="M199.1620 134.2936
L199.3477 134.3555
" />
<path d="M199.3477 134.3555
L199.4096 134.4174
" />
</g></g>
<g style="fill:none; 
stroke:#000000; stroke-width:0.1500; stroke-opacity:1; 
stroke-linecap:round; stroke-linejoin:round;">
<text x="113.0072" y="131.8558"
textLength="7.0071" font-size="2.0000" lengthAdjust="spacingAndGlyphs"
text-anchor="start" opacity="0" stroke-opacity="0">Date: </text>
<g class="stroked-text"><desc>Date: </desc>
<path d="M113.4630 131.7919
L113.4630 130.2919
" />
<path d="M113.4630 130.2919
L113.8202 130.2919
" />
<path d="M113.8202 130.2919
L114.0345 130.3634
" />
<path d="M114.0345 130.3634
L114.1773 130.5062
" />
<path d="M114.1773 130.5062
L114.2487 130.6491
" />
<path d="M114.2487 130.6491
L114.3202 130.9348
" />
<path d="M114.3202 130.9348
L114.3202 131.1491
" />
<path d="M114.3202 131.1491
L114.2487 131.4348
" />
<path d="M114.2487 131.4348
L114.1773 131.5776
" />
<path d="M114.1773 131.5776
L114.0345 131.7205
" />
<path d="M114.0345 131.7205
L113.8202 131.7919
" />
<path d="M113.8202 131.7919
L113.4630 131.7919
" />
<path d="M115.6059 131.7919
L115.6059 131.0062
" />
<path d="M115.6059 131.0062
L115.5345 130.8634
" />
<path d="M115.5345 130.8634
L115.3916 130.7919
" />
<path d="M115.3916 130.7919
L115.1059 130.7919
" />
<path d="M115.1059 130.7919
L114.9630 130.8634
" />
<path d="M115.6059 131.7205
L115.4630 131.7919
" />
<path d="M115.4630 131.7919
L115.1059 131.7919
" />
<path d="M115.1059 131.7919
L114.9630 131.7205
" />
<path d="M114.9630 131.7205
L114.8916 131.5776
" />
<path d="M114.8916 131.5776
L114.8916 131.4348
" />
<path d="M114.8916 131.4348
L114.9630 131.2919
" />
<path d="M114.9630 131.2919
L115.1059 131.2205
" />
<path d="M115.1059 131.2205
L115.4630 131.2205
" />
<path d="M115.4630 131.2205
L115.6059 131.1491
" />
<path d="M116.1059 130.7919
L116.6773 130.7919
" />
<path d="M116.3202 130.2919
L116.3202 131.5776
" />
<path d="M116.3202 131.5776
L116.3916 131.7205
" />
<path d="M116.3916 131.7205
L116.5345 131.7919
" />
<path d="M116.5345 131.7919
L116.6773 131.7919
" />
<path d="M117.7487 131.7205
L117.6059 131.7919
" />
<path d="M117.6059 131.7919
L117.3202 131.7919
" />
<path d="M117.3202 131.7919
L117.1773 131.7205
" />
<path d="M117.1773 131.7205
L117.1059 131.5776
" />
<path d="M117.1059 131.5776
L117.1059 131.0062
" />
<path d="M117.1059 131.0062
L117.1773 130.8634
" />
<path d="M117.1773 130.8634
L117.3202 130.7919
" />
<path d="M117.3202 130.7919
L117.6059 130.7919
" />
<path d="M117.6059 130.7919
L117.7487 130.8634
" />
<path d="M117.7487 130.8634
L117.8202 131.0062
" />
<path d="M117.8202 131.0062
L117.8202 131.1491
" />
<path d="M117.8202 131.1491
L117.1059 131.2919
" />
<path d="M118.4630 131.6491
L118.5345 131.7205
" />
<path d="M118.5345 131.7205
L118.4630 131.7919
" />
<path d="M118.4630 131.7919
L118.3916 131.7205
" />
<path d="M118.3916 131.7205
L118.4630 131.6491
" />
<path d="M118.4630 131.6491
L118.4630 131.7919
" />
<path d="M118.4630 130.8634
L118.5345 130.9348
" />
<path d="M118.5345 130.9348
L118.4630 131.0062
" />
<path d="M118.4630 131.0062
L118.3916 130.9348
" />
<path d="M118.3916 130.9348
L118.4630 130.8634
" />
<path d="M118.4630 130.8634
L118.4630 131.0062
" />
</g></g>
<g style="fill:none; 
stroke:#000000; stroke-width:0.1500; stroke-opacity:1; 
stroke-linecap:round; stroke-linejoin:round;">
<path d="M90.0072 132.5058
L198.0072 132.5058
" />
</g>
<g style="fill:none; 
stroke:#000000; stroke-width:0.1500; stroke-opacity:1; 
stroke-linecap:round; stroke-linejoin:round;">
<text x="91.0072" y="134.6558"
textLength="20.8643" font-size="2.0000" lengthAdjust="spacingAndGlyphs"
text-anchor="start" opacity="0" stroke-opacity="0">KiCad E.D.A. 8.0.6</text>
<g class="stroked-text"><desc>KiCad E.D.A. 8.0.6</desc>
<path d="M91.4630 134.5919
L91.4630 133.0919
" />
<path d="M92.3202 134.5919
L91.6773 133.7348
" />
<path d="M92.3202 133.0919
L91.4630 133.9491
" />
<path d="M92.9630 134.5919
L92.9630 133.5919
" />
<path d="M92.9630 133.0919
L92.8916 133.1634
" />
<path d="M92.8916 133.1634
L92.9630 133.2348
" />
<path d="M92.9630 133.2348
L93.0345 133.1634
" />
<path d="M93.0345 133.1634
L92.9630 133.0919
" />
<path d="M92.9630 133.0919
L92.9630 133.2348
" />
<path d="M94.5345 134.4491
L94.4630 134.5205
" />
<path d="M94.4630 134.5205
L94.2487 134.5919
" />
<path d="M94.2487 134.5919
L94.1059 134.5919
" />
<path d="M94.1059 134.5919
L93.8916 134.5205
" />
<path d="M93.8916 134.5205
L93.7487 134.3776
" />
<path d="M93.7487 134.3776
L93.6773 134.2348
" />
<path d="M93.6773 134.2348
L93.6059 133.9491
" />
<path d="M93.6059 133.9491
L93.6059 133.7348
" />
<path d="M93.6059 133.7348
L93.6773 133.4491
" />
<path d="M93.6773 133.4491
L93.7487 133.3062
" />
<path d="M93.7487 133.3062
L93.8916 133.1634
" />
<path d="M93.8916 133.1634
L94.1059 133.0919
" />
<path d="M94.1059 133.0919
L94.2487 133.0919
" />
<path d="M94.2487 133.0919
L94.4630 133.1634
" />
<path d="M94.4630 133.1634
L94.5345 133.2348
" />
<path d="M95.8202 134.5919
L95.8202 133.8062
" />
<path d="M95.8202 133.8062
L95.7487 133.6634
" />
<path d="M95.7487 133.6634
L95.6059 133.5919
" />
<path d="M95.6059 133.5919
L95.3202 133.5919
" />
<path d="M95.3202 133.5919
L95.1773 133.6634
" />
<path d="M95.8202 134.5205
L95.6773 134.5919
" />
<path d="M95.6773 134.5919
L95.3202 134.5919
" />
<path d="M95.3202 134.5919
L95.1773 134.5205
" />
<path d="M95.1773 134.5205
L95.1059 134.3776
" />
<path d="M95.1059 134.3776
L95.1059 134.2348
" />
<path d="M95.1059 134.2348
L95.1773 134.0919
" />
<path d="M95.1773 134.0919
L95.3202 134.0205
" />
<path d="M95.3202 134.0205
L95.6773 134.0205
" />
<path d="M95.6773 134.0205
L95.8202 133.9491
" />
<path d="M97.1773 134.5919
L97.1773 133.0919
" />
<path d="M97.1773 134.5205
L97.0345 134.5919
" />
<path d="M97.0345 134.5919
L96.7487 134.5919
" />
<path d="M96.7487 134.5919
L96.6059 134.5205
" />
<path d="M96.6059 134.5205
L96.5345 134.4491
" />
<path d="M96.5345 134.4491
L96.4630 134.3062
" />
<path d="M96.4630 134.3062
L96.4630 133.8776
" />
<path d="M96.4630 133.8776
L96.5345 133.7348
" />
<path d="M96.5345 133.7348
L96.6059 133.6634
" />
<path d="M96.6059 133.6634
L96.7487 133.5919
" />
<path d="M96.7487 133.5919
L97.0345 133.5919
" />
<path d="M97.0345 133.5919
L97.1773 133.6634
" />
<path d="M99.0345 133.8062
L99.5345 133.8062
" />
<path d="M99.7487 134.5919
L99.0345 134.5919
" />
<path d="M99.0345 134.5919
L99.0345 133.0919
" />
<path d="M99.0345 133.0919
L99.7487 133.0919
" />
<path d="M100.3916 134.4491
L100.4630 134.5205
" />
<path d="M100.4630 134.5205
L100.3916 134.5919
" />
<path d="M100.3916 134.5919
L100.3202 134.5205
" />
<path d="M100.3202 134.5205
L100.3916 134.4491
" />
<path d="M100.3916 134.4491
L100.3916 134.5919
" />
<path d="M101.1059 134.5919
L101.1059 133.0919
" />
<path d="M101.1059 133.0919
L101.4630 133.0919
" />
<path d="M101.4630 133.0919
L101.6773 133.1634
" />
<path d="M101.6773 133.1634
L101.8202 133.3062
" />
<path d="M101.8202 133.3062
L101.8916 133.4491
" />
<path d="M101.8916 133.4491
L101.9630 133.7348
" />
<path d="M101.9630 133.7348
L101.9630 133.9491
" />
<path d="M101.9630 133.9491
L101.8916 134.2348
" />
<path d="M101.8916 134.2348
L101.8202 134.3776
" />
<path d="M101.8202 134.3776
L101.6773 134.5205
" />
<path d="M101.6773 134.5205
L101.4630 134.5919
" />
<path d="M101.4630 134.5919
L101.1059 134.5919
" />
<path d="M102.6059 134.4491
L102.6773 134.5205
" />
<path d="M102.6773 134.5205
L102.6059 134.5919
" />
<path d="M102.6059 134.5919
L102.5345 134.5205
" />
<path d="M102.5345 134.5205
L102.6059 134.4491
" />
<path d="M102.6059 134.4491
L102.6059 134.5919
" />
<path d="M103.2487 134.1634
L103.9630 134.1634
" />
<path d="M103.1059 134.5919
L103.6059 133.0919
" />
<path d="M103.6059 133.0919
L104.1059 134.5919
" />
<path d="M104.6059 134.4491
L104.6773 134.5205
" />
<path d="M104.6773 134.5205
L104.6059 134.5919
" />
<path d="M104.6059 134.5919
L104.5345 134.5205
" />
<path d="M104.5345 134.5205
L104.6059 134.4491
" />
<path d="M104.6059 134.4491
L104.6059 134.5919
" />
<path d="M106.6773 133.7348
L106.5345 133.6634
" />
<path d="M106.5345 133.6634
L106.4630 133.5919
" />
<path d="M106.4630 133.5919
L106.3916 133.4491
" />
<path d="M106.3916 133.4491
L106.3916 133.3776
" />
<path d="M106.3916 133.3776
L106.4630 133.2348
" />
<path d="M106.4630 133.2348
L106.5345 133.1634
" />
<path d="M106.5345 133.1634
L106.6773 133.0919
" />
<path d="M106.6773 133.0919
L106.9630 133.0919
" />
<path d="M106.9630 133.0919
L107.1059 133.1634
" />
<path d="M107.1059 133.1634
L107.1773 133.2348
" />
<path d="M107.1773 133.2348
L107.2487 133.3776
" />
<path d="M107.2487 133.3776
L107.2487 133.4491
" />
<path d="M107.2487 133.4491
L107.1773 133.5919
" />
<path d="M107.1773 133.5919
L107.1059 133.6634
" />
<path d="M107.1059 133.6634
L106.9630 133.7348
" />
<path d="M106.9630 133.7348
L106.6773 133.7348
" />
<path d="M106.6773 133.7348
L106.5345 133.8062
" />
<path d="M106.5345 133.8062
L106.4630 133.8776
" />
<path d="M106.4630 133.8776
L106.3916 134.0205
" />
<path d="M106.3916 134.0205
L106.3916 134.3062
" />
<path d="M106.3916 134.3062
L106.4630 134.4491
" />
<path d="M106.4630 134.4491
L106.5345 134.5205
" />
<path d="M106.5345 134.5205
L106.6773 134.5919
" />
<path d="M106.6773 134.5919
L106.9630 134.5919
" />
<path d="M106.9630 134.5919
L107.1059 134.5205
" />
<path d="M107.1059 134.5205
L107.1773 134.4491
" />
<path d="M107.1773 134.4491
L107.2487 134.3062
" />
<path d="M107.2487 134.3062
L107.2487 134.0205
" />
<path d="M107.2487 134.0205
L107.1773 133.8776
" />
<path d="M107.1773 133.8776
L107.1059 133.8062
" />
<path d="M107.1059 133.8062
L106.9630 133.7348
" />
<path d="M107.8916 134.4491
L107.9630 134.5205
" />
<path d="M107.9630 134.5205
L107.8916 134.5919
" />
<path d="M107.8916 134.5919
L107.8202 134.5205
" />
<path d="M107.8202 134.5205
L107.8916 134.4491
" />
<path d="M107.8916 134.4491
L107.8916 134.5919
" />
<path d="M108.8916 133.0919
L109.0345 133.0919
" />
<path d="M109.0345 133.0919
L109.1773 133.1634
" />
<path d="M109.1773 133.1634
L109.2487 133.2348
" />
<path d="M109.2487 133.2348
L109.3202 133.3776
" />
<path d="M109.3202 133.3776
L109.3916 133.6634
" />
<path d="M109.3916 133.6634
L109.3916 134.0205
" />
<path d="M109.3916 134.0205
L109.3202 134.3062
" />
<path d="M109.3202 134.3062
L109.2487 134.4491
" />
<path d="M109.2487 134.4491
L109.1773 134.5205
" />
<path d="M109.1773 134.5205
L109.0345 134.5919
" />
<path d="M109.0345 134.5919
L108.8916 134.5919
" />
<path d="M108.8916 134.5919
L108.7487 134.5205
" />
<path d="M108.7487 134.5205
L108.6773 134.4491
" />
<path d="M108.6773 134.4491
L108.6059 134.3062
" />
<path d="M108.6059 134.3062
L108.5345 134.0205
" />
<path d="M108.5345 134.0205
L108.5345 133.6634
" />
<path d="M108.5345 133.6634
L108.6059 133.3776
" />
<path d="M108.6059 133.3776
L108.6773 133.2348
" />
<path d="M108.6773 133.2348
L108.7487 133.1634
" />
<path d="M108.7487 133.1634
L108.8916 133.0919
" />
<path d="M110.0345 134.4491
L110.1059 134.5205
" />
<path d="M110.1059 134.5205
L110.0345 134.5919
" />
<path d="M110.0345 134.5919
L109.9630 134.5205
" />
<path d="M109.9630 134.5205
L110.0345 134.4491
" />
<path d="M110.0345 134.4491
L110.0345 134.5919
" />
<path d="M111.3916 133.0919
L111.1059 133.0919
" />
<path d="M111.1059 133.0919
L110.9630 133.1634
" />
<path d="M110.9630 133.1634
L110.8916 133.2348
" />
<path d="M110.8916 133.2348
L110.7487 133.4491
" />
<path d="M110.7487 133.4491
L110.6773 133.7348
" />
<path d="M110.6773 133.7348
L110.6773 134.3062
" />
<path d="M110.6773 134.3062
L110.7487 134.4491
" />
<path d="M110.7487 134.4491
L110.8202 134.5205
" />
<path d="M110.8202 134.5205
L110.9630 134.5919
" />
<path d="M110.9630 134.5919
L111.2487 134.5919
" />
<path d="M111.2487 134.5919
L111.3916 134.5205
" />
<path d="M111.3916 134.5205
L111.4630 134.4491
" />
<path d="M111.4630 134.4491
L111.5345 134.3062
" />
<path d="M111.5345 134.3062
L111.5345 133.9491
" />
<path d="M111.5345 133.9491
L111.4630 133.8062
" />
<path d="M111.4630 133.8062
L111.3916 133.7348
" />
<path d="M111.3916 133.7348
L111.2487 133.6634
" />
<path d="M111.2487 133.6634
L110.9630 133.6634
" />
<path d="M110.9630 133.6634
L110.8202 133.7348
" />
<path d="M110.8202 133.7348
L110.7487 133.8062
" />
<path d="M110.7487 133.8062
L110.6773 133.9491
" />
</g></g>
<g style="fill:none; 
stroke:#000000; stroke-width:0.1500; stroke-opacity:1; 
stroke-linecap:round; stroke-linejoin:round;">
<path d="M90.0072 129.5058
L198.0072 129.5058
" />
</g>
<g style="fill:none; 
stroke:#000000; stroke-width:0.3000; stroke-opacity:1; 
stroke-linecap:round; stroke-linejoin:round;">
<text x="176.0072" y="131.8558"
textLength="6.3857" font-size="2.0000" lengthAdjust="spacingAndGlyphs"
text-anchor="start" opacity="0" stroke-opacity="0">Rev: </text>
<g class="stroked-text"><desc>Rev: </desc>
<path d="M177.4189 131.7841
L176.9189 131.0698
" />
<path d="M176.5617 131.7841
L176.5617 130.2841
" />
<path d="M176.5617 130.2841
L177.1331 130.2841
" />
<path d="M177.1331 130.2841
L177.2760 130.3556
" />
<path d="M177.2760 130.3556
L177.3474 130.4270
" />
<path d="M177.3474 130.4270
L177.4189 130.5698
" />
<path d="M177.4189 130.5698
L177.4189 130.7841
" />
<path d="M177.4189 130.7841
L177.3474 130.9270
" />
<path d="M177.3474 130.9270
L177.2760 130.9984
" />
<path d="M177.2760 130.9984
L177.1331 131.0698
" />
<path d="M177.1331 131.0698
L176.5617 131.0698
" />
<path d="M178.6331 131.7127
L178.4903 131.7841
" />
<path d="M178.4903 131.7841
L178.2046 131.7841
" />
<path d="M178.2046 131.7841
L178.0617 131.7127
" />
<path d="M178.0617 131.7127
L177.9903 131.5698
" />
<path d="M177.9903 131.5698
L177.9903 130.9984
" />
<path d="M177.9903 130.9984
L178.0617 130.8556
" />
<path d="M178.0617 130.8556
L178.2046 130.7841
" />
<path d="M178.2046 130.7841
L178.4903 130.7841
" />
<path d="M178.4903 130.7841
L178.6331 130.8556
" />
<path d="M178.6331 130.8556
L178.7046 130.9984
" />
<path d="M178.7046 130.9984
L178.7046 131.1413
" />
<path d="M178.7046 131.1413
L177.9903 131.2841
" />
<path d="M179.2046 130.7841
L179.5617 131.7841
" />
<path d="M179.5617 131.7841
L179.9189 130.7841
" />
<path d="M180.4903 131.6413
L180.5617 131.7127
" />
<path d="M180.5617 131.7127
L180.4903 131.7841
" />
<path d="M180.4903 131.7841
L180.4189 131.7127
" />
<path d="M180.4189 131.7127
L180.4903 131.6413
" />
<path d="M180.4903 131.6413
L180.4903 131.7841
" />
<path d="M180.4903 130.8556
L180.5617 130.9270
" />
<path d="M180.5617 130.9270
L180.4903 130.9984
" />
<path d="M180.4903 130.9984
L180.4189 130.9270
" />
<path d="M180.4189 130.9270
L180.4903 130.8556
" />
<path d="M180.4903 130.8556
L180.4903 130.9984
" />
</g></g>
<g style="fill:none; 
stroke:#000000; stroke-width:0.1500; stroke-opacity:1; 
stroke-linecap:round; stroke-linejoin:round;">
<text x="91.0072" y="131.8558"
textLength="9.3643" font-size="2.0000" lengthAdjust="spacingAndGlyphs"
text-anchor="start" opacity="0" stroke-opacity="0">Size: A5</text>
<g class="stroked-text"><desc>Size: A5</desc>
<path d="M91.3916 131.7205
L91.6059 131.7919
" />
<path d="M91.6059 131.7919
L91.9630 131.7919
" />
<path d="M91.9630 131.7919
L92.1059 131.7205
" />
<path d="M92.1059 131.7205
L92.1773 131.6491
" />
<path d="M92.1773 131.6491
L92.2487 131.5062
" />
<path d="M92.2487 131.5062
L92.2487 131.3634
" />
<path d="M92.2487 131.3634
L92.1773 131.2205
" />
<path d="M92.1773 131.2205
L92.1059 131.1491
" />
<path d="M92.1059 131.1491
L91.9630 131.0776
" />
<path d="M91.9630 131.0776
L91.6773 131.0062
" />
<path d="M91.6773 131.0062
L91.5345 130.9348
" />
<path d="M91.5345 130.9348
L91.4630 130.8634
" />
<path d="M91.4630 130.8634
L91.3916 130.7205
" />
<path d="M91.3916 130.7205
L91.3916 130.5776
" />
<path d="M91.3916 130.5776
L91.4630 130.4348
" />
<path d="M91.4630 130.4348
L91.5345 130.3634
" />
<path d="M91.5345 130.3634
L91.6773 130.2919
" />
<path d="M91.6773 130.2919
L92.0345 130.2919
" />
<path d="M92.0345 130.2919
L92.2487 130.3634
" />
<path d="M92.8916 131.7919
L92.8916 130.7919
" />
<path d="M92.8916 130.2919
L92.8202 130.3634
" />
<path d="M92.8202 130.3634
L92.8916 130.4348
" />
<path d="M92.8916 130.4348
L92.9630 130.3634
" />
<path d="M92.9630 130.3634
L92.8916 130.2919
" />
<path d="M92.8916 130.2919
L92.8916 130.4348
" />
<path d="M93.4630 130.7919
L94.2487 130.7919
" />
<path d="M94.2487 130.7919
L93.4630 131.7919
" />
<path d="M93.4630 131.7919
L94.2487 131.7919
" />
<path d="M95.3916 131.7205
L95.2487 131.7919
" />
<path d="M95.2487 131.7919
L94.9630 131.7919
" />
<path d="M94.9630 131.7919
L94.8202 131.7205
" />
<path d="M94.8202 131.7205
L94.7487 131.5776
" />
<path d="M94.7487 131.5776
L94.7487 131.0062
" />
<path d="M94.7487 131.0062
L94.8202 130.8634
" />
<path d="M94.8202 130.8634
L94.9630 130.7919
" />
<path d="M94.9630 130.7919
L95.2487 130.7919
" />
<path d="M95.2487 130.7919
L95.3916 130.8634
" />
<path d="M95.3916 130.8634
L95.4630 131.0062
" />
<path d="M95.4630 131.0062
L95.4630 131.1491
" />
<path d="M95.4630 131.1491
L94.7487 131.2919
" />
<path d="M96.1059 131.6491
L96.1773 131.7205
" />
<path d="M96.1773 131.7205
L96.1059 131.7919
" />
<path d="M96.1059 131.7919
L96.0345 131.7205
" />
<path d="M96.0345 131.7205
L96.1059 131.6491
" />
<path d="M96.1059 131.6491
L96.1059 131.7919
" />
<path d="M96.1059 130.8634
L96.1773 130.9348
" />
<path d="M96.1773 130.9348
L96.1059 131.0062
" />
<path d="M96.1059 131.0062
L96.0345 130.9348
" />
<path d="M96.0345 130.9348
L96.1059 130.8634
" />
<path d="M96.1059 130.8634
L96.1059 131.0062
" />
<path d="M97.8916 131.3634
L98.6059 131.3634
" />
<path d="M97.7487 131.7919
L98.2487 130.2919
" />
<path d="M98.2487 130.2919
L98.7487 131.7919
" />
<path d="M99.9630 130.2919
L99.2487 130.2919
" />
<path d="M99.2487 130.2919
L99.1773 131.0062
" />
<path d="M99.1773 131.0062
L99.2487 130.9348
" />
<path d="M99.2487 130.9348
L99.3916 130.8634
" />
<path d="M99.3916 130.8634
L99.7487 130.8634
" />
<path d="M99.7487 130.8634
L99.8916 130.9348
" />
<path d="M99.8916 130.9348
L99.9630 131.0062
" />
<path d="M99.9630 131.0062
L100.0345 131.1491
" />
<path d="M100.0345 131.1491
L100.0345 131.5062
" />
<path d="M100.0345 131.5062
L99.9630 131.6491
" />
<path d="M99.9630 131.6491
L99.8916 131.7205
" />
<path d="M99.8916 131.7205
L99.7487 131.7919
" />
<path d="M99.7487 131.7919
L99.3916 131.7919
" />
<path d="M99.3916 131.7919
L99.2487 131.7205
" />
<path d="M99.2487 131.7205
L99.1773 131.6491
" />
</g></g>
<g style="fill:none; 
stroke:#000000; stroke-width:0.1500; stroke-opacity:1; 
stroke-linecap:round; stroke-linejoin:round;">
<text x="176.0072" y="134.6558"
textLength="8.5071" font-size="2.0000" lengthAdjust="spacingAndGlyphs"
text-anchor="start" opacity="0" stroke-opacity="0">Id: 1/1</text>
<g class="stroked-text"><desc>Id: 1/1</desc>
<path d="M176.4630 134.5919
L176.4630 133.0919
" />
<path d="M177.8202 134.5919
L177.8202 133.0919
" />
<path d="M177.8202 134.5205
L177.6773 134.5919
" />
<path d="M177.6773 134.5919
L177.3916 134.5919
" />
<path d="M177.3916 134.5919
L177.2487 134.5205
" />
<path d="M177.2487 134.5205
L177.1773 134.4491
" />
<path d="M177.1773 134.4491
L177.1059 134.3062
" />
<path d="M177.1059 134.3062
L177.1059 133.8776
" />
<path d="M177.1059 133.8776
L177.1773 133.7348
" />
<path d="M177.1773 133.7348
L177.2487 133.6634
" />
<path d="M177.2487 133.6634
L177.3916 133.5919
" />
<path d="M177.3916 133.5919
L177.6773 133.5919
" />
<path d="M177.6773 133.5919
L177.8202 133.6634
" />
<path d="M178.5345 134.4491
L178.6059 134.5205
" />
<path d="M178.6059 134.5205
L178.5345 134.5919
" />
<path d="M178.5345 134.5919
L178.4630 134.5205
" />
<path d="M178.4630 134.5205
L178.5345 134.4491
" />
<path d="M178.5345 134.4491
L178.5345 134.5919
" />
<path d="M178.5345 133.6634
L178.6059 133.7348
" />
<path d="M178.6059 133.7348
L178.5345 133.8062
" />
<path d="M178.5345 133.8062
L178.4630 133.7348
" />
<path d="M178.4630 133.7348
L178.5345 133.6634
" />
<path d="M178.5345 133.6634
L178.5345 133.8062
" />
<path d="M181.1773 134.5919
L180.3202 134.5919
" />
<path d="M180.7487 134.5919
L180.7487 133.0919
" />
<path d="M180.7487 133.0919
L180.6059 133.3062
" />
<path d="M180.6059 133.3062
L180.4630 133.4491
" />
<path d="M180.4630 133.4491
L180.3202 133.5205
" />
<path d="M182.8916 133.0205
L181.6059 134.9491
" />
<path d="M184.1773 134.5919
L183.3202 134.5919
" />
<path d="M183.7487 134.5919
L183.7487 133.0919
" />
<path d="M183.7487 133.0919
L183.6059 133.3062
" />
<path d="M183.6059 133.3062
L183.4630 133.4491
" />
<path d="M183.4630 133.4491
L183.3202 133.5205
" />
</g></g>
<g style="fill:none; 
stroke:#000000; stroke-width:0.1500; stroke-opacity:1; 
stroke-linecap:round; stroke-linejoin:round;">
<path d="M90.0072 125.5058
L198.0072 125.5058
" />
</g>
<g style="fill:none; 
stroke:#000000; stroke-width:0.4000; stroke-opacity:1; 
stroke-linecap:round; stroke-linejoin:round;">
<text x="91.0072" y="128.3058"
textLength="9.6571" font-size="2.6667" lengthAdjust="spacingAndGlyphs"
text-anchor="start" opacity="0" stroke-opacity="0">Title: </text>
<g class="stroked-text"><desc>Title: </desc>
<path d="M91.6989 126.2102
L92.8418 126.2102
" />
<path d="M92.0204 128.2102
L92.2704 126.2102
" />
<path d="M93.2585 128.2102
L93.4251 126.8769
" />
<path d="M93.5085 126.2102
L93.4013 126.3055
" />
<path d="M93.4013 126.3055
L93.4846 126.4007
" />
<path d="M93.4846 126.4007
L93.5918 126.3055
" />
<path d="M93.5918 126.3055
L93.5085 126.2102
" />
<path d="M93.5085 126.2102
L93.4846 126.4007
" />
<path d="M94.0918 126.8769
L94.8537 126.8769
" />
<path d="M94.4608 126.2102
L94.2465 127.9245
" />
<path d="M94.2465 127.9245
L94.3180 128.1150
" />
<path d="M94.3180 128.1150
L94.4965 128.2102
" />
<path d="M94.4965 128.2102
L94.6870 128.2102
" />
<path d="M95.6394 128.2102
L95.4608 128.1150
" />
<path d="M95.4608 128.1150
L95.3894 127.9245
" />
<path d="M95.3894 127.9245
L95.6037 126.2102
" />
<path d="M97.1751 128.1150
L96.9727 128.2102
" />
<path d="M96.9727 128.2102
L96.5918 128.2102
" />
<path d="M96.5918 128.2102
L96.4132 128.1150
" />
<path d="M96.4132 128.1150
L96.3418 127.9245
" />
<path d="M96.3418 127.9245
L96.4370 127.1626
" />
<path d="M96.4370 127.1626
L96.5561 126.9721
" />
<path d="M96.5561 126.9721
L96.7585 126.8769
" />
<path d="M96.7585 126.8769
L97.1394 126.8769
" />
<path d="M97.1394 126.8769
L97.3180 126.9721
" />
<path d="M97.3180 126.9721
L97.3894 127.1626
" />
<path d="M97.3894 127.1626
L97.3656 127.3531
" />
<path d="M97.3656 127.3531
L96.3894 127.5436
" />
<path d="M98.1394 128.0198
L98.2227 128.1150
" />
<path d="M98.2227 128.1150
L98.1156 128.2102
" />
<path d="M98.1156 128.2102
L98.0323 128.1150
" />
<path d="M98.0323 128.1150
L98.1394 128.0198
" />
<path d="M98.1394 128.0198
L98.1156 128.2102
" />
<path d="M98.2704 126.9721
L98.3537 127.0674
" />
<path d="M98.3537 127.0674
L98.2465 127.1626
" />
<path d="M98.2465 127.1626
L98.1632 127.0674
" />
<path d="M98.1632 127.0674
L98.2704 126.9721
" />
<path d="M98.2704 126.9721
L98.2465 127.1626
" />
</g></g>
<g style="fill:none; 
stroke:#000000; stroke-width:0.1500; stroke-opacity:1; 
stroke-linecap:round; stroke-linejoin:round;">
<text x="91.0072" y="124.4558"
textLength="28.7929" font-size="2.0000" lengthAdjust="spacingAndGlyphs"
text-anchor="start" opacity="0" stroke-opacity="0">File: lumen_PD.kicad_pcb</text>
<g class="stroked-text"><desc>File: lumen_PD.kicad_pcb</desc>
<path d="M91.9630 123.6062
L91.4630 123.6062
" />
<path d="M91.4630 124.3919
L91.4630 122.8919
" />
<path d="M91.4630 122.8919
L92.1773 122.8919
" />
<path d="M92.7487 124.3919
L92.7487 123.3919
" />
<path d="M92.7487 122.8919
L92.6773 122.9634
" />
<path d="M92.6773 122.9634
L92.7487 123.0348
" />
<path d="M92.7487 123.0348
L92.8202 122.9634
" />
<path d="M92.8202 122.9634
L92.7487 122.8919
" />
<path d="M92.7487 122.8919
L92.7487 123.0348
" />
<path d="M93.6773 124.3919
L93.5345 124.3205
" />
<path d="M93.5345 124.3205
L93.4630 124.1776
" />
<path d="M93.4630 124.1776
L93.4630 122.8919
" />
<path d="M94.8202 124.3205
L94.6773 124.3919
" />
<path d="M94.6773 124.3919
L94.3916 124.3919
" />
<path d="M94.3916 124.3919
L94.2487 124.3205
" />
<path d="M94.2487 124.3205
L94.1773 124.1776
" />
<path d="M94.1773 124.1776
L94.1773 123.6062
" />
<path d="M94.1773 123.6062
L94.2487 123.4634
" />
<path d="M94.2487 123.4634
L94.3916 123.3919
" />
<path d="M94.3916 123.3919
L94.6773 123.3919
" />
<path d="M94.6773 123.3919
L94.8202 123.4634
" />
<path d="M94.8202 123.4634
L94.8916 123.6062
" />
<path d="M94.8916 123.6062
L94.8916 123.7491
" />
<path d="M94.8916 123.7491
L94.1773 123.8919
" />
<path d="M95.5345 124.2491
L95.6059 124.3205
" />
<path d="M95.6059 124.3205
L95.5345 124.3919
" />
<path d="M95.5345 124.3919
L95.4630 124.3205
" />
<path d="M95.4630 124.3205
L95.5345 124.2491
" />
<path d="M95.5345 124.2491
L95.5345 124.3919
" />
<path d="M95.5345 123.4634
L95.6059 123.5348
" />
<path d="M95.6059 123.5348
L95.5345 123.6062
" />
<path d="M95.5345 123.6062
L95.4630 123.5348
" />
<path d="M95.4630 123.5348
L95.5345 123.4634
" />
<path d="M95.5345 123.4634
L95.5345 123.6062
" />
<path d="M97.6059 124.3919
L97.4630 124.3205
" />
<path d="M97.4630 124.3205
L97.3916 124.1776
" />
<path d="M97.3916 124.1776
L97.3916 122.8919
" />
<path d="M98.8202 123.3919
L98.8202 124.3919
" />
<path d="M98.1773 123.3919
L98.1773 124.1776
" />
<path d="M98.1773 124.1776
L98.2487 124.3205
" />
<path d="M98.2487 124.3205
L98.3916 124.3919
" />
<path d="M98.3916 124.3919
L98.6059 124.3919
" />
<path d="M98.6059 124.3919
L98.7487 124.3205
" />
<path d="M98.7487 124.3205
L98.8202 124.2491
" />
<path d="M99.5345 124.3919
L99.5345 123.3919
" />
<path d="M99.5345 123.5348
L99.6059 123.4634
" />
<path d="M99.6059 123.4634
L99.7487 123.3919
" />
<path d="M99.7487 123.3919
L99.9630 123.3919
" />
<path d="M99.9630 123.3919
L100.1059 123.4634
" />
<path d="M100.1059 123.4634
L100.1773 123.6062
" />
<path d="M100.1773 123.6062
L100.1773 124.3919
" />
<path d="M100.1773 123.6062
L100.2487 123.4634
" />
<path d="M100.2487 123.4634
L100.3916 123.3919
" />
<path d="M100.3916 123.3919
L100.6059 123.3919
" />
<path d="M100.6059 123.3919
L100.7487 123.4634
" />
<path d="M100.7487 123.4634
L100.8202 123.6062
" />
<path d="M100.8202 123.6062
L100.8202 124.3919
" />
<path d="M102.1059 124.3205
L101.9630 124.3919
" />
<path d="M101.9630 124.3919
L101.6773 124.3919
" />
<path d="M101.6773 124.3919
L101.5345 124.3205
" />
<path d="M101.5345 124.3205
L101.4630 124.1776
" />
<path d="M101.4630 124.1776
L101.4630 123.6062
" />
<path d="M101.4630 123.6062
L101.5345 123.4634
" />
<path d="M101.5345 123.4634
L101.6773 123.3919
" />
<path d="M101.6773 123.3919
L101.9630 123.3919
" />
<path d="M101.9630 123.3919
L102.1059 123.4634
" />
<path d="M102.1059 123.4634
L102.1773 123.6062
" />
<path d="M102.1773 123.6062
L102.1773 123.7491
" />
<path d="M102.1773 123.7491
L101.4630 123.8919
" />
<path d="M102.8202 123.3919
L102.8202 124.3919
" />
<path d="M102.8202 123.5348
L102.8916 123.4634
" />
<path d="M102.8916 123.4634
L103.0345 123.3919
" />
<path d="M103.0345 123.3919
L103.2487 123.3919
" />
<path d="M103.2487 123.3919
L103.3916 123.4634
" />
<path d="M103.3916 123.4634
L103.4630 123.6062
" />
<path d="M103.4630 123.6062
L103.4630 124.3919
" />
<path d="M103.8202 124.5348
L104.9630 124.5348
" />
<path d="M105.3202 124.3919
L105.3202 122.8919
" />
<path d="M105.3202 122.8919
L105.8916 122.8919
" />
<path d="M105.8916 122.8919
L106.0345 122.9634
" />
<path d="M106.0345 122.9634
L106.1059 123.0348
" />
<path d="M106.1059 123.0348
L106.1773 123.1776
" />
<path d="M106.1773 123.1776
L106.1773 123.3919
" />
<path d="M106.1773 123.3919
L106.1059 123.5348
" />
<path d="M106.1059 123.5348
L106.0345 123.6062
" />
<path d="M106.0345 123.6062
L105.8916 123.6776
" />
<path d="M105.8916 123.6776
L105.3202 123.6776
" />
<path d="M106.8202 124.3919
L106.8202 122.8919
" />
<path d="M106.8202 122.8919
L107.1773 122.8919
" />
<path d="M107.1773 122.8919
L107.3916 122.9634
" />
<path d="M107.3916 122.9634
L107.5345 123.1062
" />
<path d="M107.5345 123.1062
L107.6059 123.2491
" />
<path d="M107.6059 123.2491
L107.6773 123.5348
" />
<path d="M107.6773 123.5348
L107.6773 123.7491
" />
<path d="M107.6773 123.7491
L107.6059 124.0348
" />
<path d="M107.6059 124.0348
L107.5345 124.1776
" />
<path d="M107.5345 124.1776
L107.3916 124.3205
" />
<path d="M107.3916 124.3205
L107.1773 124.3919
" />
<path d="M107.1773 124.3919
L106.8202 124.3919
" />
<path d="M108.3202 124.2491
L108.3916 124.3205
" />
<path d="M108.3916 124.3205
L108.3202 124.3919
" />
<path d="M108.3202 124.3919
L108.2487 124.3205
" />
<path d="M108.2487 124.3205
L108.3202 124.2491
" />
<path d="M108.3202 124.2491
L108.3202 124.3919
" />
<path d="M109.0345 124.3919
L109.0345 122.8919
" />
<path d="M109.1773 123.8205
L109.6059 124.3919
" />
<path d="M109.6059 123.3919
L109.0345 123.9634
" />
<path d="M110.2487 124.3919
L110.2487 123.3919
" />
<path d="M110.2487 122.8919
L110.1773 122.9634
" />
<path d="M110.1773 122.9634
L110.2487 123.0348
" />
<path d="M110.2487 123.0348
L110.3202 122.9634
" />
<path d="M110.3202 122.9634
L110.2487 122.8919
" />
<path d="M110.2487 122.8919
L110.2487 123.0348
" />
<path d="M111.6059 124.3205
L111.4630 124.3919
" />
<path d="M111.4630 124.3919
L111.1773 124.3919
" />
<path d="M111.1773 124.3919
L111.0345 124.3205
" />
<path d="M111.0345 124.3205
L110.9630 124.2491
" />
<path d="M110.9630 124.2491
L110.8916 124.1062
" />
<path d="M110.8916 124.1062
L110.8916 123.6776
" />
<path d="M110.8916 123.6776
L110.9630 123.5348
" />
<path d="M110.9630 123.5348
L111.0345 123.4634
" />
<path d="M111.0345 123.4634
L111.1773 123.3919
" />
<path d="M111.1773 123.3919
L111.4630 123.3919
" />
<path d="M111.4630 123.3919
L111.6059 123.4634
" />
<path d="M112.8916 124.3919
L112.8916 123.6062
" />
<path d="M112.8916 123.6062
L112.8202 123.4634
" />
<path d="M112.8202 123.4634
L112.6773 123.3919
" />
<path d="M112.6773 123.3919
L112.3916 123.3919
" />
<path d="M112.3916 123.3919
L112.2487 123.4634
" />
<path d="M112.8916 124.3205
L112.7487 124.3919
" />
<path d="M112.7487 124.3919
L112.3916 124.3919
" />
<path d="M112.3916 124.3919
L112.2487 124.3205
" />
<path d="M112.2487 124.3205
L112.1773 124.1776
" />
<path d="M112.1773 124.1776
L112.1773 124.0348
" />
<path d="M112.1773 124.0348
L112.2487 123.8919
" />
<path d="M112.2487 123.8919
L112.3916 123.8205
" />
<path d="M112.3916 123.8205
L112.7487 123.8205
" />
<path d="M112.7487 123.8205
L112.8916 123.7491
" />
<path d="M114.2487 124.3919
L114.2487 122.8919
" />
<path d="M114.2487 124.3205
L114.1059 124.3919
" />
<path d="M114.1059 124.3919
L113.8202 124.3919
" />
<path d="M113.8202 124.3919
L113.6773 124.3205
" />
<path d="M113.6773 124.3205
L113.6059 124.2491
" />
<path d="M113.6059 124.2491
L113.5345 124.1062
" />
<path d="M113.5345 124.1062
L113.5345 123.6776
" />
<path d="M113.5345 123.6776
L113.6059 123.5348
" />
<path d="M113.6059 123.5348
L113.6773 123.4634
" />
<path d="M113.6773 123.4634
L113.8202 123.3919
" />
<path d="M113.8202 123.3919
L114.1059 123.3919
" />
<path d="M114.1059 123.3919
L114.2487 123.4634
" />
<path d="M114.6059 124.5348
L115.7487 124.5348
" />
<path d="M116.1059 123.3919
L116.1059 124.8919
" />
<path d="M116.1059 123.4634
L116.2487 123.3919
" />
<path d="M116.2487 123.3919
L116.5345 123.3919
" />
<path d="M116.5345 123.3919
L116.6773 123.4634
" />
<path d="M116.6773 123.4634
L116.7487 123.5348
" />
<path d="M116.7487 123.5348
L116.8202 123.6776
" />
<path d="M116.8202 123.6776
L116.8202 124.1062
" />
<path d="M116.8202 124.1062
L116.7487 124.2491
" />
<path d="M116.7487 124.2491
L116.6773 124.3205
" />
<path d="M116.6773 124.3205
L116.5345 124.3919
" />
<path d="M116.5345 124.3919
L116.2487 124.3919
" />
<path d="M116.2487 124.3919
L116.1059 124.3205
" />
<path d="M118.1059 124.3205
L117.9630 124.3919
" />
<path d="M117.9630 124.3919
L117.6773 124.3919
" />
<path d="M117.6773 124.3919
L117.5345 124.3205
" />
<path d="M117.5345 124.3205
L117.4630 124.2491
" />
<path d="M117.4630 124.2491
L117.3916 124.1062
" />
<path d="M117.3916 124.1062
L117.3916 123.6776
" />
<path d="M117.3916 123.6776
L117.4630 123.5348
" />
<path d="M117.4630 123.5348
L117.5345 123.4634
" />
<path d="M117.5345 123.4634
L117.6773 123.3919
" />
<path d="M117.6773 123.3919
L117.9630 123.3919
" />
<path d="M117.9630 123.3919
L118.1059 123.4634
" />
<path d="M118.7487 124.3919
L118.7487 122.8919
" />
<path d="M118.7487 123.4634
L118.8916 123.3919
" />
<path d="M118.8916 123.3919
L119.1773 123.3919
" />
<path d="M119.1773 123.3919
L119.3202 123.4634
" />
<path d="M119.3202 123.4634
L119.3916 123.5348
" />
<path d="M119.3916 123.5348
L119.4630 123.6776
" />
<path d="M119.4630 123.6776
L119.4630 124.1062
" />
<path d="M119.4630 124.1062
L119.3916 124.2491
" />
<path d="M119.3916 124.2491
L119.3202 124.3205
" />
<path d="M119.3202 124.3205
L119.1773 124.3919
" />
<path d="M119.1773 124.3919
L118.8916 124.3919
" />
<path d="M118.8916 124.3919
L118.7487 124.3205
" />
</g></g>
<g style="fill:none; 
stroke:#000000; stroke-width:0.1500; stroke-opacity:1; 
stroke-linecap:round; stroke-linejoin:round;">
<path d="M90.0072 119.5058
L198.0072 119.5058
" />
</g>
<g style="fill:none; 
stroke:#000000; stroke-width:0.1500; stroke-opacity:1; 
stroke-linecap:round; stroke-linejoin:round;">
<text x="91.0072" y="121.7558"
textLength="8.2214" font-size="2.0000" lengthAdjust="spacingAndGlyphs"
text-anchor="start" opacity="0" stroke-opacity="0">Sheet: </text>
<g class="stroked-text"><desc>Sheet: </desc>
<path d="M91.3916 121.6205
L91.6059 121.6919
" />
<path d="M91.6059 121.6919
L91.9630 121.6919
" />
<path d="M91.9630 121.6919
L92.1059 121.6205
" />
<path d="M92.1059 121.6205
L92.1773 121.5491
" />
<path d="M92.1773 121.5491
L92.2487 121.4062
" />
<path d="M92.2487 121.4062
L92.2487 121.2634
" />
<path d="M92.2487 121.2634
L92.1773 121.1205
" />
<path d="M92.1773 121.1205
L92.1059 121.0491
" />
<path d="M92.1059 121.0491
L91.9630 120.9776
" />
<path d="M91.9630 120.9776
L91.6773 120.9062
" />
<path d="M91.6773 120.9062
L91.5345 120.8348
" />
<path d="M91.5345 120.8348
L91.4630 120.7634
" />
<path d="M91.4630 120.7634
L91.3916 120.6205
" />
<path d="M91.3916 120.6205
L91.3916 120.4776
" />
<path d="M91.3916 120.4776
L91.4630 120.3348
" />
<path d="M91.4630 120.3348
L91.5345 120.2634
" />
<path d="M91.5345 120.2634
L91.6773 120.1919
" />
<path d="M91.6773 120.1919
L92.0345 120.1919
" />
<path d="M92.0345 120.1919
L92.2487 120.2634
" />
<path d="M92.8916 121.6919
L92.8916 120.1919
" />
<path d="M93.5345 121.6919
L93.5345 120.9062
" />
<path d="M93.5345 120.9062
L93.4630 120.7634
" />
<path d="M93.4630 120.7634
L93.3202 120.6919
" />
<path d="M93.3202 120.6919
L93.1059 120.6919
" />
<path d="M93.1059 120.6919
L92.9630 120.7634
" />
<path d="M92.9630 120.7634
L92.8916 120.8348
" />
<path d="M94.8202 121.6205
L94.6773 121.6919
" />
<path d="M94.6773 121.6919
L94.3916 121.6919
" />
<path d="M94.3916 121.6919
L94.2487 121.6205
" />
<path d="M94.2487 121.6205
L94.1773 121.4776
" />
<path d="M94.1773 121.4776
L94.1773 120.9062
" />
<path d="M94.1773 120.9062
L94.2487 120.7634
" />
<path d="M94.2487 120.7634
L94.3916 120.6919
" />
<path d="M94.3916 120.6919
L94.6773 120.6919
" />
<path d="M94.6773 120.6919
L94.8202 120.7634
" />
<path d="M94.8202 120.7634
L94.8916 120.9062
" />
<path d="M94.8916 120.9062
L94.8916 121.0491
" />
<path d="M94.8916 121.0491
L94.1773 121.1919
" />
<path d="M96.1059 121.6205
L95.9630 121.6919
" />
<path d="M95.9630 121.6919
L95.6773 121.6919
" />
<path d="M95.6773 121.6919
L95.5345 121.6205
" />
<path d="M95.5345 121.6205
L95.4630 121.4776
" />
<path d="M95.4630 121.4776
L95.4630 120.9062
" />
<path d="M95.4630 120.9062
L95.5345 120.7634
" />
<path d="M95.5345 120.7634
L95.6773 120.6919
" />
<path d="M95.6773 120.6919
L95.9630 120.6919
" />
<path d="M95.9630 120.6919
L96.1059 120.7634
" />
<path d="M96.1059 120.7634
L96.1773 120.9062
" />
<path d="M96.1773 120.9062
L96.1773 121.0491
" />
<path d="M96.1773 121.0491
L95.4630 121.1919
" />
<path d="M96.6059 120.6919
L97.1773 120.6919
" />
<path d="M96.8202 120.1919
L96.8202 121.4776
" />
<path d="M96.8202 121.4776
L96.8916 121.6205
" />
<path d="M96.8916 121.6205
L97.0345 121.6919
" />
<path d="M97.0345 121.6919
L97.1773 121.6919
" />
<path d="M97.6773 121.5491
L97.7487 121.6205
" />
<path d="M97.7487 121.6205
L97.6773 121.6919
" />
<path d="M97.6773 121.6919
L97.6059 121.6205
" />
<path d="M97.6059 121.6205
L97.6773 121.5491
" />
<path d="M97.6773 121.5491
L97.6773 121.6919
" />
<path d="M97.6773 120.7634
L97.7487 120.8348
" />
<path d="M97.7487 120.8348
L97.6773 120.9062
" />
<path d="M97.6773 120.9062
L97.6059 120.8348
" />
<path d="M97.6059 120.8348
L97.6773 120.7634
" />
<path d="M97.6773 120.7634
L97.6773 120.9062
" />
</g></g>
<g style="fill:none; 
stroke:#000000; stroke-width:0.3000; stroke-opacity:1; 
stroke-linecap:round; stroke-linejoin:round;">
<text x="91.0072" y="118.7558"
textLength="0.9000" font-size="2.0000" lengthAdjust="spacingAndGlyphs"
text-anchor="start" opacity="0" stroke-opacity="0"></text>
<g class="stroked-text"><desc></desc>
</g></g>
<g style="fill:none; 
stroke:#000000; stroke-width:0.1500; stroke-opacity:1; 
stroke-linecap:round; stroke-linejoin:round;">
<text x="91.0072" y="115.7558"
textLength="0.4500" font-size="2.0000" lengthAdjust="spacingAndGlyphs"
text-anchor="start" opacity="0" stroke-opacity="0"></text>
<g class="stroked-text"><desc></desc>
</g></g>
<g style="fill:none; 
stroke:#000000; stroke-width:0.1500; stroke-opacity:1; 
stroke-linecap:round; stroke-linejoin:round;">
<text x="91.0072" y="112.7558"
textLength="0.4500" font-size="2.0000" lengthAdjust="spacingAndGlyphs"
text-anchor="start" opacity="0" stroke-opacity="0"></text>
<g class="stroked-text"><desc></desc>
</g></g>
<g style="fill:none; 
stroke:#000000; stroke-width:0.1500; stroke-opacity:1; 
stroke-linecap:round; stroke-linejoin:round;">
<text x="91.0072" y="109.7558"
textLength="0.4500" font-size="2.0000" lengthAdjust="spacingAndGlyphs"
text-anchor="start" opacity="0" stroke-opacity="0"></text>
<g class="stroked-text"><desc></desc>
</g></g>
<g style="fill:none; 
stroke:#000000; stroke-width:0.1500; stroke-opacity:1; 
stroke-linecap:round; stroke-linejoin:round;">
<text x="91.0072" y="106.7558"
textLength="0.4500" font-size="2.0000" lengthAdjust="spacingAndGlyphs"
text-anchor="start" opacity="0" stroke-opacity="0"></text>
<g class="stroked-text"><desc></desc>
</g></g>
<g style="fill:none; 
stroke:#000000; stroke-width:0.1500; stroke-opacity:1; 
stroke-linecap:round; stroke-linejoin:round;">
<path d="M110.0072 129.5058
L110.0072 132.5058
" />
</g>
<g style="fill:none; 
stroke:#000000; stroke-width:0.1500; stroke-opacity:1; 
stroke-linecap:round; stroke-linejoin:round;">
<path d="M174.0072 129.5058
L174.0072 136.0058
" />
</g>
<g style="fill:none; 
stroke:#000000; stroke-width:0.2500; stroke-opacity:1; 
stroke-linecap:round; stroke-linejoin:round;">
<text x="97.8000" y="38.8000"
textLength="2.3595" font-size="1.3333" lengthAdjust="spacingAndGlyphs"
text-anchor="middle" opacity="0" stroke-opacity="0">5V</text>
<g class="stroked-text"><desc>5V</desc>
<path d="M97.6095 37.6646
L97.1333 37.6646
" />
<path d="M97.1333 37.6646
L97.0857 38.1408
" />
<path d="M97.0857 38.1408
L97.1333 38.0932
" />
<path d="M97.1333 38.0932
L97.2286 38.0456
" />
<path d="M97.2286 38.0456
L97.4667 38.0456
" />
<path d="M97.4667 38.0456
L97.5619 38.0932
" />
<path d="M97.5619 38.0932
L97.6095 38.1408
" />
<path d="M97.6095 38.1408
L97.6571 38.2360
" />
<path d="M97.6571 38.2360
L97.6571 38.4741
" />
<path d="M97.6571 38.4741
L97.6095 38.5694
" />
<path d="M97.6095 38.5694
L97.5619 38.6170
" />
<path d="M97.5619 38.6170
L97.4667 38.6646
" />
<path d="M97.4667 38.6646
L97.2286 38.6646
" />
<path d="M97.2286 38.6646
L97.1333 38.6170
" />
<path d="M97.1333 38.6170
L97.0857 38.5694
" />
<path d="M97.9429 37.6646
L98.2762 38.6646
" />
<path d="M98.2762 38.6646
L98.6095 37.6646
" />
</g><text x="98.6500" y="40.5000"
textLength="2.5500" font-size="1.3333" lengthAdjust="spacingAndGlyphs"
text-anchor="middle" opacity="0" stroke-opacity="0">PG</text>
<g class="stroked-text"><desc>PG</desc>
<path d="M97.8881 40.3646
L97.8881 39.3646
" />
<path d="M97.8881 39.3646
L98.2690 39.3646
" />
<path d="M98.2690 39.3646
L98.3643 39.4122
" />
<path d="M98.3643 39.4122
L98.4119 39.4599
" />
<path d="M98.4119 39.4599
L98.4595 39.5551
" />
<path d="M98.4595 39.5551
L98.4595 39.6980
" />
<path d="M98.4595 39.6980
L98.4119 39.7932
" />
<path d="M98.4119 39.7932
L98.3643 39.8408
" />
<path d="M98.3643 39.8408
L98.2690 39.8884
" />
<path d="M98.2690 39.8884
L97.8881 39.8884
" />
<path d="M99.4119 39.4122
L99.3167 39.3646
" />
<path d="M99.3167 39.3646
L99.1738 39.3646
" />
<path d="M99.1738 39.3646
L99.0310 39.4122
" />
<path d="M99.0310 39.4122
L98.9357 39.5075
" />
<path d="M98.9357 39.5075
L98.8881 39.6027
" />
<path d="M98.8881 39.6027
L98.8405 39.7932
" />
<path d="M98.8405 39.7932
L98.8405 39.9360
" />
<path d="M98.8405 39.9360
L98.8881 40.1265
" />
<path d="M98.8881 40.1265
L98.9357 40.2218
" />
<path d="M98.9357 40.2218
L99.0310 40.3170
" />
<path d="M99.0310 40.3170
L99.1738 40.3646
" />
<path d="M99.1738 40.3646
L99.2690 40.3646
" />
<path d="M99.2690 40.3646
L99.4119 40.3170
" />
<path d="M99.4119 40.3170
L99.4595 40.2694
" />
<path d="M99.4595 40.2694
L99.4595 39.9360
" />
<path d="M99.4595 39.9360
L99.2690 39.9360
" />
</g><text x="92.5000" y="38.8000"
textLength="3.3119" font-size="1.3333" lengthAdjust="spacingAndGlyphs"
text-anchor="middle" opacity="0" stroke-opacity="0">15V</text>
<g class="stroked-text"><desc>15V</desc>
<path d="M91.8810 38.6646
L91.3095 38.6646
" />
<path d="M91.5952 38.6646
L91.5952 37.6646
" />
<path d="M91.5952 37.6646
L91.5000 37.8075
" />
<path d="M91.5000 37.8075
L91.4048 37.9027
" />
<path d="M91.4048 37.9027
L91.3095 37.9503
" />
<path d="M92.7857 37.6646
L92.3095 37.6646
" />
<path d="M92.3095 37.6646
L92.2619 38.1408
" />
<path d="M92.2619 38.1408
L92.3095 38.0932
" />
<path d="M92.3095 38.0932
L92.4048 38.0456
" />
<path d="M92.4048 38.0456
L92.6429 38.0456
" />
<path d="M92.6429 38.0456
L92.7381 38.0932
" />
<path d="M92.7381 38.0932
L92.7857 38.1408
" />
<path d="M92.7857 38.1408
L92.8333 38.2360
" />
<path d="M92.8333 38.2360
L92.8333 38.4741
" />
<path d="M92.8333 38.4741
L92.7857 38.5694
" />
<path d="M92.7857 38.5694
L92.7381 38.6170
" />
<path d="M92.7381 38.6170
L92.6429 38.6646
" />
<path d="M92.6429 38.6646
L92.4048 38.6646
" />
<path d="M92.4048 38.6646
L92.3095 38.6170
" />
<path d="M92.3095 38.6170
L92.2619 38.5694
" />
<path d="M93.1190 37.6646
L93.4524 38.6646
" />
<path d="M93.4524 38.6646
L93.7857 37.6646
" />
</g></g>
<g style="fill:none; 
stroke:#000000; stroke-width:0.1000; stroke-opacity:1; 
stroke-linecap:round; stroke-linejoin:round;">
<circle cx="100.1500" cy="38.8100" r="0.0500" /> 
</g>
<g style="fill:none; 
stroke:#000000; stroke-width:0.1200; stroke-opacity:1; 
stroke-linecap:round; stroke-linejoin:round;">
<path d="M96.1200 34.6536
L96.1200 34.3464
" />
<path d="M96.8800 34.6536
L96.8800 34.3464
" />
<path d="M85.7550 39.9625
L87.6750 39.9625
" />
<path d="M87.6750 30.8025
L85.7550 30.8025
" />
<path d="M94.0200 34.3464
L94.0200 34.6536
" />
<path d="M94.7800 34.3464
L94.7800 34.6536
" />
<path d="M97.5000 28.0175
L95.5500 28.0175
" />
<path d="M97.5000 28.0175
L99.4500 28.0175
" />
<path d="M97.5000 33.1375
L95.5500 33.1375
" />
<path d="M97.5000 33.1375
L99.4500 33.1375
" />
</g>
<g style="fill:#000000; fill-opacity:1.0000; stroke:none;">
<circle cx="96.1000" cy="28.5775" r="0.2500" /> 
</g>
<g style="fill:none; 
stroke:#000000; stroke-width:0.1200; stroke-opacity:1; 
stroke-linecap:round; stroke-linejoin:round;">
<path d="M95.5536 26.9725
L95.2464 26.9725
" />
<path d="M95.5536 27.7325
L95.2464 27.7325
" />
<path d="M90.5050 29.9900
L90.5050 29.1900
" />
<path d="M90.5050 29.9900
L90.5050 30.7900
" />
<path d="M93.6250 29.9900
L93.6250 29.1900
" />
<path d="M93.6250 29.9900
L93.6250 30.7900
" />
<path d="M92.4572 32.2300
L92.6728 32.2300
" />
<path d="M92.4572 32.9500
L92.6728 32.9500
" />
<path d="M92.4572 27.0300
L92.6728 27.0300
" />
<path d="M92.4572 27.7500
L92.6728 27.7500
" />
<path d="M99.2536 26.9700
L98.9464 26.9700
" />
<path d="M99.2536 27.7300
L98.9464 27.7300
" />
<path d="M99.8700 35.0536
L99.8700 34.7464
" />
<path d="M100.6300 35.0536
L100.6300 34.7464
" />
</g>
<g style="fill:none; 
stroke:#000000; stroke-width:0.0500; stroke-opacity:1; 
stroke-linecap:round; stroke-linejoin:round;">
<path d="M93.3342 41.4976
L100.4500 41.5000
" />
<path d="M101.2000 27.5500 A0.7500 0.7500 0.0 0 0 100.4500 26.8000" />
<path d="M100.4500 41.5000 A0.7500 0.7500 0.0 0 0 101.2000 40.7500" />
<path d="M89.5000 30.1500 A0.7500 0.7500 0.0 0 0 90.2500 29.4000" />
<path d="M92.2479 40.7873
L92.8372 41.3091
" />
<path d="M92.8373 41.3091 A0.7498 0.7498 0.0 0 0 93.3342 41.4976" />
<path d="M89.5000 30.1500
L83.9500 30.1500
" />
<path d="M83.9500 30.1500 A0.7500 0.7500 0.0 0 0 83.2000 30.9000" />
<path d="M100.4500 26.8000
L91.0000 26.8000
" />
<path d="M92.2479 40.7873 A0.7501 0.7501 0.0 0 0 91.7506 40.5988" />
<path d="M101.2000 40.7500
L101.2000 27.5500
" />
<path d="M83.2000 39.8500 A0.7500 0.7500 0.0 0 0 83.9500 40.6000" />
<path d="M90.2500 27.5500
L90.2500 29.4000
" />
<path d="M83.9500 40.6000
L91.7506 40.5988
" />
<path d="M83.2000 30.9000
L83.2000 39.8500
" />
<path d="M91.0000 26.8000 A0.7500 0.7500 0.0 0 0 90.2500 27.5500" />
</g> 
</svg>
