%TF.GenerationSoftware,KiCad,Pcbnew,8.0.6-8.0.6-0~ubuntu24.04.1*%
%TF.CreationDate,2024-11-20T23:40:05+01:00*%
%TF.ProjectId,lumen_PD,6c756d65-6e5f-4504-942e-6b696361645f,rev?*%
%TF.SameCoordinates,Original*%
%TF.FileFunction,Drillmap*%
%TF.FilePolarity,Positive*%
%FSLAX45Y45*%
G04 Gerber Fmt 4.5, Leading zero omitted, Abs format (unit mm)*
G04 Created by KiCad (PCBNEW 8.0.6-8.0.6-0~ubuntu24.04.1) date 2024-11-20 23:40:05*
%MOMM*%
%LPD*%
G01*
G04 APERTURE LIST*
%ADD10C,0.050000*%
%ADD11C,0.200000*%
%ADD12C,0.100000*%
G04 APERTURE END LIST*
D10*
X10298418Y-7144760D02*
X11010000Y-7145000D01*
X11010000Y-5675000D02*
G75*
G02*
X11085000Y-5750000I0J-75000D01*
G01*
X11085000Y-7070000D02*
G75*
G02*
X11010000Y-7145000I-75000J0D01*
G01*
X9990000Y-5935000D02*
G75*
G02*
X9915000Y-6010000I-75000J0D01*
G01*
X10189792Y-7073728D02*
X10248724Y-7125911D01*
X10298418Y-7144760D02*
G75*
G02*
X10248722Y-7125912I22J75000D01*
G01*
X9915000Y-6010000D02*
X9360000Y-6010000D01*
X9285000Y-6085000D02*
G75*
G02*
X9360000Y-6010000I75000J0D01*
G01*
X11010000Y-5675000D02*
X10065000Y-5675000D01*
X10140061Y-7054879D02*
G75*
G02*
X10189791Y-7073729I10J-75001D01*
G01*
X11085000Y-7070000D02*
X11085000Y-5750000D01*
X9360000Y-7055000D02*
G75*
G02*
X9285000Y-6980000I0J75000D01*
G01*
X9990000Y-5750000D02*
X9990000Y-5935000D01*
X9360000Y-7055000D02*
X10140061Y-7054879D01*
X9285000Y-6085000D02*
X9285000Y-6980000D01*
X9990000Y-5750000D02*
G75*
G02*
X10065000Y-5675000I75000J0D01*
G01*
D11*
D12*
X9713056Y-6286617D02*
X9753056Y-6326617D01*
X9753056Y-6286617D02*
X9713056Y-6326617D01*
X9734575Y-6594550D02*
X9774575Y-6634550D01*
X9774575Y-6594550D02*
X9734575Y-6634550D01*
X9736778Y-6494574D02*
X9776778Y-6534574D01*
X9776778Y-6494574D02*
X9736778Y-6534574D01*
X9740000Y-6715000D02*
X9780000Y-6755000D01*
X9780000Y-6715000D02*
X9740000Y-6755000D01*
X9746000Y-6395000D02*
X9786000Y-6435000D01*
X9786000Y-6395000D02*
X9746000Y-6435000D01*
X10010000Y-6753250D02*
X10050000Y-6793250D01*
X10050000Y-6753250D02*
X10010000Y-6793250D01*
X10022873Y-6286122D02*
X10062873Y-6326122D01*
X10062873Y-6286122D02*
X10022873Y-6326122D01*
X10070033Y-5757264D02*
X10110033Y-5797264D01*
X10110033Y-5757264D02*
X10070033Y-5797264D01*
X10175277Y-5977998D02*
X10215277Y-6017998D01*
X10215277Y-5977998D02*
X10175277Y-6017998D01*
X10319107Y-5758258D02*
X10359107Y-5798258D01*
X10359107Y-5758258D02*
X10319107Y-5798258D01*
X10564498Y-6205502D02*
X10604498Y-6245502D01*
X10604498Y-6205502D02*
X10564498Y-6245502D01*
X10620000Y-5755000D02*
X10660000Y-5795000D01*
X10660000Y-5755000D02*
X10620000Y-5795000D01*
X10695000Y-6032750D02*
X10735000Y-6072750D01*
X10735000Y-6032750D02*
X10695000Y-6072750D01*
X10720000Y-5755000D02*
X10760000Y-5795000D01*
X10760000Y-5755000D02*
X10720000Y-5795000D01*
X10829459Y-6133785D02*
X10869459Y-6173785D01*
X10869459Y-6133785D02*
X10829459Y-6173785D01*
X10835000Y-6235000D02*
X10875000Y-6275000D01*
X10875000Y-6235000D02*
X10835000Y-6275000D01*
X10845000Y-6035000D02*
X10885000Y-6075000D01*
X10885000Y-6035000D02*
X10845000Y-6075000D01*
X10874821Y-6849913D02*
X10914821Y-6889913D01*
X10914821Y-6849913D02*
X10874821Y-6889913D01*
X10923853Y-6322750D02*
X10963853Y-6362750D01*
X10963853Y-6322750D02*
X10923853Y-6362750D01*
X10960000Y-6780000D02*
X11000000Y-6820000D01*
X11000000Y-6780000D02*
X10960000Y-6820000D01*
X9470000Y-6101250D02*
G75*
G02*
X9410000Y-6101250I-30000J0D01*
G01*
X9410000Y-6101250D02*
G75*
G02*
X9470000Y-6101250I30000J0D01*
G01*
X9480000Y-6071250D02*
X9400000Y-6071250D01*
X9400000Y-6131250D02*
G75*
G02*
X9400000Y-6071250I0J30000D01*
G01*
X9400000Y-6131250D02*
X9480000Y-6131250D01*
X9480000Y-6131250D02*
G75*
G03*
X9480000Y-6071250I0J30000D01*
G01*
X9470000Y-6965250D02*
G75*
G02*
X9410000Y-6965250I-30000J0D01*
G01*
X9410000Y-6965250D02*
G75*
G02*
X9470000Y-6965250I30000J0D01*
G01*
X9480000Y-6935250D02*
X9400000Y-6935250D01*
X9400000Y-6995250D02*
G75*
G02*
X9400000Y-6935250I0J30000D01*
G01*
X9400000Y-6995250D02*
X9480000Y-6995250D01*
X9480000Y-6995250D02*
G75*
G03*
X9480000Y-6935250I0J30000D01*
G01*
X9890000Y-6101250D02*
G75*
G02*
X9830000Y-6101250I-30000J0D01*
G01*
X9830000Y-6101250D02*
G75*
G02*
X9890000Y-6101250I30000J0D01*
G01*
X9915000Y-6071250D02*
X9805000Y-6071250D01*
X9805000Y-6131250D02*
G75*
G02*
X9805000Y-6071250I0J30000D01*
G01*
X9805000Y-6131250D02*
X9915000Y-6131250D01*
X9915000Y-6131250D02*
G75*
G03*
X9915000Y-6071250I0J30000D01*
G01*
X9890000Y-6965250D02*
G75*
G02*
X9830000Y-6965250I-30000J0D01*
G01*
X9830000Y-6965250D02*
G75*
G02*
X9890000Y-6965250I30000J0D01*
G01*
X9915000Y-6935250D02*
X9805000Y-6935250D01*
X9805000Y-6995250D02*
G75*
G02*
X9805000Y-6935250I0J30000D01*
G01*
X9805000Y-6995250D02*
X9915000Y-6995250D01*
X9915000Y-6995250D02*
G75*
G03*
X9915000Y-6935250I0J30000D01*
G01*
X10211500Y-6480250D02*
X10211500Y-6580250D01*
X10161500Y-6530250D02*
X10261500Y-6530250D01*
X10161500Y-6430250D02*
X10161500Y-6630250D01*
X10261500Y-6630250D02*
G75*
G02*
X10161500Y-6630250I-50000J0D01*
G01*
X10261500Y-6630250D02*
X10261500Y-6430250D01*
X10261500Y-6430250D02*
G75*
G03*
X10161500Y-6430250I-50000J0D01*
G01*
X10511500Y-6950250D02*
X10511500Y-7050250D01*
X10461500Y-7000250D02*
X10561500Y-7000250D01*
X10411500Y-7050250D02*
X10611500Y-7050250D01*
X10611500Y-6950250D02*
G75*
G02*
X10611500Y-7050250I0J-50000D01*
G01*
X10611500Y-6950250D02*
X10411500Y-6950250D01*
X10411500Y-6950250D02*
G75*
G03*
X10411500Y-7050250I0J-50000D01*
G01*
X10811500Y-6480250D02*
X10811500Y-6580250D01*
X10761500Y-6530250D02*
X10861500Y-6530250D01*
X10761500Y-6430250D02*
X10761500Y-6630250D01*
X10861500Y-6630250D02*
G75*
G02*
X10761500Y-6630250I-50000J0D01*
G01*
X10861500Y-6630250D02*
X10861500Y-6430250D01*
X10861500Y-6430250D02*
G75*
G03*
X10761500Y-6430250I-50000J0D01*
G01*
D11*
X9543277Y-7458984D02*
X9543277Y-7258984D01*
X9543277Y-7258984D02*
X9590896Y-7258984D01*
X9590896Y-7258984D02*
X9619467Y-7268508D01*
X9619467Y-7268508D02*
X9638515Y-7287555D01*
X9638515Y-7287555D02*
X9648039Y-7306603D01*
X9648039Y-7306603D02*
X9657563Y-7344698D01*
X9657563Y-7344698D02*
X9657563Y-7373269D01*
X9657563Y-7373269D02*
X9648039Y-7411365D01*
X9648039Y-7411365D02*
X9638515Y-7430412D01*
X9638515Y-7430412D02*
X9619467Y-7449460D01*
X9619467Y-7449460D02*
X9590896Y-7458984D01*
X9590896Y-7458984D02*
X9543277Y-7458984D01*
X9743277Y-7458984D02*
X9743277Y-7325650D01*
X9743277Y-7363746D02*
X9752801Y-7344698D01*
X9752801Y-7344698D02*
X9762324Y-7335174D01*
X9762324Y-7335174D02*
X9781372Y-7325650D01*
X9781372Y-7325650D02*
X9800420Y-7325650D01*
X9867086Y-7458984D02*
X9867086Y-7325650D01*
X9867086Y-7258984D02*
X9857563Y-7268508D01*
X9857563Y-7268508D02*
X9867086Y-7278031D01*
X9867086Y-7278031D02*
X9876610Y-7268508D01*
X9876610Y-7268508D02*
X9867086Y-7258984D01*
X9867086Y-7258984D02*
X9867086Y-7278031D01*
X9990896Y-7458984D02*
X9971848Y-7449460D01*
X9971848Y-7449460D02*
X9962324Y-7430412D01*
X9962324Y-7430412D02*
X9962324Y-7258984D01*
X10095658Y-7458984D02*
X10076610Y-7449460D01*
X10076610Y-7449460D02*
X10067086Y-7430412D01*
X10067086Y-7430412D02*
X10067086Y-7258984D01*
X10324229Y-7458984D02*
X10324229Y-7258984D01*
X10324229Y-7258984D02*
X10390896Y-7401841D01*
X10390896Y-7401841D02*
X10457563Y-7258984D01*
X10457563Y-7258984D02*
X10457563Y-7458984D01*
X10638515Y-7458984D02*
X10638515Y-7354222D01*
X10638515Y-7354222D02*
X10628991Y-7335174D01*
X10628991Y-7335174D02*
X10609944Y-7325650D01*
X10609944Y-7325650D02*
X10571848Y-7325650D01*
X10571848Y-7325650D02*
X10552801Y-7335174D01*
X10638515Y-7449460D02*
X10619467Y-7458984D01*
X10619467Y-7458984D02*
X10571848Y-7458984D01*
X10571848Y-7458984D02*
X10552801Y-7449460D01*
X10552801Y-7449460D02*
X10543277Y-7430412D01*
X10543277Y-7430412D02*
X10543277Y-7411365D01*
X10543277Y-7411365D02*
X10552801Y-7392317D01*
X10552801Y-7392317D02*
X10571848Y-7382793D01*
X10571848Y-7382793D02*
X10619467Y-7382793D01*
X10619467Y-7382793D02*
X10638515Y-7373269D01*
X10733753Y-7325650D02*
X10733753Y-7525650D01*
X10733753Y-7335174D02*
X10752801Y-7325650D01*
X10752801Y-7325650D02*
X10790896Y-7325650D01*
X10790896Y-7325650D02*
X10809944Y-7335174D01*
X10809944Y-7335174D02*
X10819467Y-7344698D01*
X10819467Y-7344698D02*
X10828991Y-7363746D01*
X10828991Y-7363746D02*
X10828991Y-7420888D01*
X10828991Y-7420888D02*
X10819467Y-7439936D01*
X10819467Y-7439936D02*
X10809944Y-7449460D01*
X10809944Y-7449460D02*
X10790896Y-7458984D01*
X10790896Y-7458984D02*
X10752801Y-7458984D01*
X10752801Y-7458984D02*
X10733753Y-7449460D01*
X10914705Y-7439936D02*
X10924229Y-7449460D01*
X10924229Y-7449460D02*
X10914705Y-7458984D01*
X10914705Y-7458984D02*
X10905182Y-7449460D01*
X10905182Y-7449460D02*
X10914705Y-7439936D01*
X10914705Y-7439936D02*
X10914705Y-7458984D01*
X10914705Y-7335174D02*
X10924229Y-7344698D01*
X10924229Y-7344698D02*
X10914705Y-7354222D01*
X10914705Y-7354222D02*
X10905182Y-7344698D01*
X10905182Y-7344698D02*
X10914705Y-7335174D01*
X10914705Y-7335174D02*
X10914705Y-7354222D01*
D12*
X9242500Y-7767500D02*
X9282500Y-7807500D01*
X9282500Y-7767500D02*
X9242500Y-7807500D01*
D11*
X9581372Y-7678984D02*
X9600420Y-7678984D01*
X9600420Y-7678984D02*
X9619467Y-7688508D01*
X9619467Y-7688508D02*
X9628991Y-7698031D01*
X9628991Y-7698031D02*
X9638515Y-7717079D01*
X9638515Y-7717079D02*
X9648039Y-7755174D01*
X9648039Y-7755174D02*
X9648039Y-7802793D01*
X9648039Y-7802793D02*
X9638515Y-7840888D01*
X9638515Y-7840888D02*
X9628991Y-7859936D01*
X9628991Y-7859936D02*
X9619467Y-7869460D01*
X9619467Y-7869460D02*
X9600420Y-7878984D01*
X9600420Y-7878984D02*
X9581372Y-7878984D01*
X9581372Y-7878984D02*
X9562324Y-7869460D01*
X9562324Y-7869460D02*
X9552801Y-7859936D01*
X9552801Y-7859936D02*
X9543277Y-7840888D01*
X9543277Y-7840888D02*
X9533753Y-7802793D01*
X9533753Y-7802793D02*
X9533753Y-7755174D01*
X9533753Y-7755174D02*
X9543277Y-7717079D01*
X9543277Y-7717079D02*
X9552801Y-7698031D01*
X9552801Y-7698031D02*
X9562324Y-7688508D01*
X9562324Y-7688508D02*
X9581372Y-7678984D01*
X9733753Y-7859936D02*
X9743277Y-7869460D01*
X9743277Y-7869460D02*
X9733753Y-7878984D01*
X9733753Y-7878984D02*
X9724229Y-7869460D01*
X9724229Y-7869460D02*
X9733753Y-7859936D01*
X9733753Y-7859936D02*
X9733753Y-7878984D01*
X9914705Y-7745650D02*
X9914705Y-7878984D01*
X9867086Y-7669460D02*
X9819467Y-7812317D01*
X9819467Y-7812317D02*
X9943277Y-7812317D01*
X10057563Y-7678984D02*
X10076610Y-7678984D01*
X10076610Y-7678984D02*
X10095658Y-7688508D01*
X10095658Y-7688508D02*
X10105182Y-7698031D01*
X10105182Y-7698031D02*
X10114705Y-7717079D01*
X10114705Y-7717079D02*
X10124229Y-7755174D01*
X10124229Y-7755174D02*
X10124229Y-7802793D01*
X10124229Y-7802793D02*
X10114705Y-7840888D01*
X10114705Y-7840888D02*
X10105182Y-7859936D01*
X10105182Y-7859936D02*
X10095658Y-7869460D01*
X10095658Y-7869460D02*
X10076610Y-7878984D01*
X10076610Y-7878984D02*
X10057563Y-7878984D01*
X10057563Y-7878984D02*
X10038515Y-7869460D01*
X10038515Y-7869460D02*
X10028991Y-7859936D01*
X10028991Y-7859936D02*
X10019467Y-7840888D01*
X10019467Y-7840888D02*
X10009944Y-7802793D01*
X10009944Y-7802793D02*
X10009944Y-7755174D01*
X10009944Y-7755174D02*
X10019467Y-7717079D01*
X10019467Y-7717079D02*
X10028991Y-7698031D01*
X10028991Y-7698031D02*
X10038515Y-7688508D01*
X10038515Y-7688508D02*
X10057563Y-7678984D01*
X10248039Y-7678984D02*
X10267086Y-7678984D01*
X10267086Y-7678984D02*
X10286134Y-7688508D01*
X10286134Y-7688508D02*
X10295658Y-7698031D01*
X10295658Y-7698031D02*
X10305182Y-7717079D01*
X10305182Y-7717079D02*
X10314705Y-7755174D01*
X10314705Y-7755174D02*
X10314705Y-7802793D01*
X10314705Y-7802793D02*
X10305182Y-7840888D01*
X10305182Y-7840888D02*
X10295658Y-7859936D01*
X10295658Y-7859936D02*
X10286134Y-7869460D01*
X10286134Y-7869460D02*
X10267086Y-7878984D01*
X10267086Y-7878984D02*
X10248039Y-7878984D01*
X10248039Y-7878984D02*
X10228991Y-7869460D01*
X10228991Y-7869460D02*
X10219467Y-7859936D01*
X10219467Y-7859936D02*
X10209944Y-7840888D01*
X10209944Y-7840888D02*
X10200420Y-7802793D01*
X10200420Y-7802793D02*
X10200420Y-7755174D01*
X10200420Y-7755174D02*
X10209944Y-7717079D01*
X10209944Y-7717079D02*
X10219467Y-7698031D01*
X10219467Y-7698031D02*
X10228991Y-7688508D01*
X10228991Y-7688508D02*
X10248039Y-7678984D01*
X10400420Y-7878984D02*
X10400420Y-7745650D01*
X10400420Y-7764698D02*
X10409944Y-7755174D01*
X10409944Y-7755174D02*
X10428991Y-7745650D01*
X10428991Y-7745650D02*
X10457563Y-7745650D01*
X10457563Y-7745650D02*
X10476610Y-7755174D01*
X10476610Y-7755174D02*
X10486134Y-7774222D01*
X10486134Y-7774222D02*
X10486134Y-7878984D01*
X10486134Y-7774222D02*
X10495658Y-7755174D01*
X10495658Y-7755174D02*
X10514705Y-7745650D01*
X10514705Y-7745650D02*
X10543277Y-7745650D01*
X10543277Y-7745650D02*
X10562325Y-7755174D01*
X10562325Y-7755174D02*
X10571848Y-7774222D01*
X10571848Y-7774222D02*
X10571848Y-7878984D01*
X10667086Y-7878984D02*
X10667086Y-7745650D01*
X10667086Y-7764698D02*
X10676610Y-7755174D01*
X10676610Y-7755174D02*
X10695658Y-7745650D01*
X10695658Y-7745650D02*
X10724229Y-7745650D01*
X10724229Y-7745650D02*
X10743277Y-7755174D01*
X10743277Y-7755174D02*
X10752801Y-7774222D01*
X10752801Y-7774222D02*
X10752801Y-7878984D01*
X10752801Y-7774222D02*
X10762325Y-7755174D01*
X10762325Y-7755174D02*
X10781372Y-7745650D01*
X10781372Y-7745650D02*
X10809944Y-7745650D01*
X10809944Y-7745650D02*
X10828991Y-7755174D01*
X10828991Y-7755174D02*
X10838515Y-7774222D01*
X10838515Y-7774222D02*
X10838515Y-7878984D01*
X11228991Y-7669460D02*
X11057563Y-7926603D01*
X11486134Y-7678984D02*
X11505182Y-7678984D01*
X11505182Y-7678984D02*
X11524229Y-7688508D01*
X11524229Y-7688508D02*
X11533753Y-7698031D01*
X11533753Y-7698031D02*
X11543277Y-7717079D01*
X11543277Y-7717079D02*
X11552801Y-7755174D01*
X11552801Y-7755174D02*
X11552801Y-7802793D01*
X11552801Y-7802793D02*
X11543277Y-7840888D01*
X11543277Y-7840888D02*
X11533753Y-7859936D01*
X11533753Y-7859936D02*
X11524229Y-7869460D01*
X11524229Y-7869460D02*
X11505182Y-7878984D01*
X11505182Y-7878984D02*
X11486134Y-7878984D01*
X11486134Y-7878984D02*
X11467086Y-7869460D01*
X11467086Y-7869460D02*
X11457563Y-7859936D01*
X11457563Y-7859936D02*
X11448039Y-7840888D01*
X11448039Y-7840888D02*
X11438515Y-7802793D01*
X11438515Y-7802793D02*
X11438515Y-7755174D01*
X11438515Y-7755174D02*
X11448039Y-7717079D01*
X11448039Y-7717079D02*
X11457563Y-7698031D01*
X11457563Y-7698031D02*
X11467086Y-7688508D01*
X11467086Y-7688508D02*
X11486134Y-7678984D01*
X11638515Y-7859936D02*
X11648039Y-7869460D01*
X11648039Y-7869460D02*
X11638515Y-7878984D01*
X11638515Y-7878984D02*
X11628991Y-7869460D01*
X11628991Y-7869460D02*
X11638515Y-7859936D01*
X11638515Y-7859936D02*
X11638515Y-7878984D01*
X11771848Y-7678984D02*
X11790896Y-7678984D01*
X11790896Y-7678984D02*
X11809944Y-7688508D01*
X11809944Y-7688508D02*
X11819467Y-7698031D01*
X11819467Y-7698031D02*
X11828991Y-7717079D01*
X11828991Y-7717079D02*
X11838515Y-7755174D01*
X11838515Y-7755174D02*
X11838515Y-7802793D01*
X11838515Y-7802793D02*
X11828991Y-7840888D01*
X11828991Y-7840888D02*
X11819467Y-7859936D01*
X11819467Y-7859936D02*
X11809944Y-7869460D01*
X11809944Y-7869460D02*
X11790896Y-7878984D01*
X11790896Y-7878984D02*
X11771848Y-7878984D01*
X11771848Y-7878984D02*
X11752801Y-7869460D01*
X11752801Y-7869460D02*
X11743277Y-7859936D01*
X11743277Y-7859936D02*
X11733753Y-7840888D01*
X11733753Y-7840888D02*
X11724229Y-7802793D01*
X11724229Y-7802793D02*
X11724229Y-7755174D01*
X11724229Y-7755174D02*
X11733753Y-7717079D01*
X11733753Y-7717079D02*
X11743277Y-7698031D01*
X11743277Y-7698031D02*
X11752801Y-7688508D01*
X11752801Y-7688508D02*
X11771848Y-7678984D01*
X12028991Y-7878984D02*
X11914706Y-7878984D01*
X11971848Y-7878984D02*
X11971848Y-7678984D01*
X11971848Y-7678984D02*
X11952801Y-7707555D01*
X11952801Y-7707555D02*
X11933753Y-7726603D01*
X11933753Y-7726603D02*
X11914706Y-7736127D01*
X12209944Y-7678984D02*
X12114706Y-7678984D01*
X12114706Y-7678984D02*
X12105182Y-7774222D01*
X12105182Y-7774222D02*
X12114706Y-7764698D01*
X12114706Y-7764698D02*
X12133753Y-7755174D01*
X12133753Y-7755174D02*
X12181372Y-7755174D01*
X12181372Y-7755174D02*
X12200420Y-7764698D01*
X12200420Y-7764698D02*
X12209944Y-7774222D01*
X12209944Y-7774222D02*
X12219467Y-7793269D01*
X12219467Y-7793269D02*
X12219467Y-7840888D01*
X12219467Y-7840888D02*
X12209944Y-7859936D01*
X12209944Y-7859936D02*
X12200420Y-7869460D01*
X12200420Y-7869460D02*
X12181372Y-7878984D01*
X12181372Y-7878984D02*
X12133753Y-7878984D01*
X12133753Y-7878984D02*
X12114706Y-7869460D01*
X12114706Y-7869460D02*
X12105182Y-7859936D01*
X12286134Y-7678984D02*
X12419467Y-7678984D01*
X12419467Y-7678984D02*
X12333753Y-7878984D01*
X12486134Y-7678984D02*
X12486134Y-7717079D01*
X12562325Y-7678984D02*
X12562325Y-7717079D01*
X12857563Y-7955174D02*
X12848039Y-7945650D01*
X12848039Y-7945650D02*
X12828991Y-7917079D01*
X12828991Y-7917079D02*
X12819468Y-7898031D01*
X12819468Y-7898031D02*
X12809944Y-7869460D01*
X12809944Y-7869460D02*
X12800420Y-7821841D01*
X12800420Y-7821841D02*
X12800420Y-7783746D01*
X12800420Y-7783746D02*
X12809944Y-7736127D01*
X12809944Y-7736127D02*
X12819468Y-7707555D01*
X12819468Y-7707555D02*
X12828991Y-7688508D01*
X12828991Y-7688508D02*
X12848039Y-7659936D01*
X12848039Y-7659936D02*
X12857563Y-7650412D01*
X12924229Y-7698031D02*
X12933753Y-7688508D01*
X12933753Y-7688508D02*
X12952801Y-7678984D01*
X12952801Y-7678984D02*
X13000420Y-7678984D01*
X13000420Y-7678984D02*
X13019468Y-7688508D01*
X13019468Y-7688508D02*
X13028991Y-7698031D01*
X13028991Y-7698031D02*
X13038515Y-7717079D01*
X13038515Y-7717079D02*
X13038515Y-7736127D01*
X13038515Y-7736127D02*
X13028991Y-7764698D01*
X13028991Y-7764698D02*
X12914706Y-7878984D01*
X12914706Y-7878984D02*
X13038515Y-7878984D01*
X13162325Y-7678984D02*
X13181372Y-7678984D01*
X13181372Y-7678984D02*
X13200420Y-7688508D01*
X13200420Y-7688508D02*
X13209944Y-7698031D01*
X13209944Y-7698031D02*
X13219468Y-7717079D01*
X13219468Y-7717079D02*
X13228991Y-7755174D01*
X13228991Y-7755174D02*
X13228991Y-7802793D01*
X13228991Y-7802793D02*
X13219468Y-7840888D01*
X13219468Y-7840888D02*
X13209944Y-7859936D01*
X13209944Y-7859936D02*
X13200420Y-7869460D01*
X13200420Y-7869460D02*
X13181372Y-7878984D01*
X13181372Y-7878984D02*
X13162325Y-7878984D01*
X13162325Y-7878984D02*
X13143277Y-7869460D01*
X13143277Y-7869460D02*
X13133753Y-7859936D01*
X13133753Y-7859936D02*
X13124229Y-7840888D01*
X13124229Y-7840888D02*
X13114706Y-7802793D01*
X13114706Y-7802793D02*
X13114706Y-7755174D01*
X13114706Y-7755174D02*
X13124229Y-7717079D01*
X13124229Y-7717079D02*
X13133753Y-7698031D01*
X13133753Y-7698031D02*
X13143277Y-7688508D01*
X13143277Y-7688508D02*
X13162325Y-7678984D01*
X13467087Y-7878984D02*
X13467087Y-7678984D01*
X13552801Y-7878984D02*
X13552801Y-7774222D01*
X13552801Y-7774222D02*
X13543277Y-7755174D01*
X13543277Y-7755174D02*
X13524230Y-7745650D01*
X13524230Y-7745650D02*
X13495658Y-7745650D01*
X13495658Y-7745650D02*
X13476610Y-7755174D01*
X13476610Y-7755174D02*
X13467087Y-7764698D01*
X13676610Y-7878984D02*
X13657563Y-7869460D01*
X13657563Y-7869460D02*
X13648039Y-7859936D01*
X13648039Y-7859936D02*
X13638515Y-7840888D01*
X13638515Y-7840888D02*
X13638515Y-7783746D01*
X13638515Y-7783746D02*
X13648039Y-7764698D01*
X13648039Y-7764698D02*
X13657563Y-7755174D01*
X13657563Y-7755174D02*
X13676610Y-7745650D01*
X13676610Y-7745650D02*
X13705182Y-7745650D01*
X13705182Y-7745650D02*
X13724230Y-7755174D01*
X13724230Y-7755174D02*
X13733753Y-7764698D01*
X13733753Y-7764698D02*
X13743277Y-7783746D01*
X13743277Y-7783746D02*
X13743277Y-7840888D01*
X13743277Y-7840888D02*
X13733753Y-7859936D01*
X13733753Y-7859936D02*
X13724230Y-7869460D01*
X13724230Y-7869460D02*
X13705182Y-7878984D01*
X13705182Y-7878984D02*
X13676610Y-7878984D01*
X13857563Y-7878984D02*
X13838515Y-7869460D01*
X13838515Y-7869460D02*
X13828991Y-7850412D01*
X13828991Y-7850412D02*
X13828991Y-7678984D01*
X14009944Y-7869460D02*
X13990896Y-7878984D01*
X13990896Y-7878984D02*
X13952801Y-7878984D01*
X13952801Y-7878984D02*
X13933753Y-7869460D01*
X13933753Y-7869460D02*
X13924230Y-7850412D01*
X13924230Y-7850412D02*
X13924230Y-7774222D01*
X13924230Y-7774222D02*
X13933753Y-7755174D01*
X13933753Y-7755174D02*
X13952801Y-7745650D01*
X13952801Y-7745650D02*
X13990896Y-7745650D01*
X13990896Y-7745650D02*
X14009944Y-7755174D01*
X14009944Y-7755174D02*
X14019468Y-7774222D01*
X14019468Y-7774222D02*
X14019468Y-7793269D01*
X14019468Y-7793269D02*
X13924230Y-7812317D01*
X14095658Y-7869460D02*
X14114706Y-7878984D01*
X14114706Y-7878984D02*
X14152801Y-7878984D01*
X14152801Y-7878984D02*
X14171849Y-7869460D01*
X14171849Y-7869460D02*
X14181372Y-7850412D01*
X14181372Y-7850412D02*
X14181372Y-7840888D01*
X14181372Y-7840888D02*
X14171849Y-7821841D01*
X14171849Y-7821841D02*
X14152801Y-7812317D01*
X14152801Y-7812317D02*
X14124230Y-7812317D01*
X14124230Y-7812317D02*
X14105182Y-7802793D01*
X14105182Y-7802793D02*
X14095658Y-7783746D01*
X14095658Y-7783746D02*
X14095658Y-7774222D01*
X14095658Y-7774222D02*
X14105182Y-7755174D01*
X14105182Y-7755174D02*
X14124230Y-7745650D01*
X14124230Y-7745650D02*
X14152801Y-7745650D01*
X14152801Y-7745650D02*
X14171849Y-7755174D01*
X14248039Y-7955174D02*
X14257563Y-7945650D01*
X14257563Y-7945650D02*
X14276611Y-7917079D01*
X14276611Y-7917079D02*
X14286134Y-7898031D01*
X14286134Y-7898031D02*
X14295658Y-7869460D01*
X14295658Y-7869460D02*
X14305182Y-7821841D01*
X14305182Y-7821841D02*
X14305182Y-7783746D01*
X14305182Y-7783746D02*
X14295658Y-7736127D01*
X14295658Y-7736127D02*
X14286134Y-7707555D01*
X14286134Y-7707555D02*
X14276611Y-7688508D01*
X14276611Y-7688508D02*
X14257563Y-7659936D01*
X14257563Y-7659936D02*
X14248039Y-7650412D01*
D12*
X9282500Y-8051500D02*
G75*
G02*
X9222500Y-8051500I-30000J0D01*
G01*
X9222500Y-8051500D02*
G75*
G02*
X9282500Y-8051500I30000J0D01*
G01*
D11*
X9581372Y-7942984D02*
X9600420Y-7942984D01*
X9600420Y-7942984D02*
X9619467Y-7952508D01*
X9619467Y-7952508D02*
X9628991Y-7962031D01*
X9628991Y-7962031D02*
X9638515Y-7981079D01*
X9638515Y-7981079D02*
X9648039Y-8019174D01*
X9648039Y-8019174D02*
X9648039Y-8066793D01*
X9648039Y-8066793D02*
X9638515Y-8104888D01*
X9638515Y-8104888D02*
X9628991Y-8123936D01*
X9628991Y-8123936D02*
X9619467Y-8133460D01*
X9619467Y-8133460D02*
X9600420Y-8142984D01*
X9600420Y-8142984D02*
X9581372Y-8142984D01*
X9581372Y-8142984D02*
X9562324Y-8133460D01*
X9562324Y-8133460D02*
X9552801Y-8123936D01*
X9552801Y-8123936D02*
X9543277Y-8104888D01*
X9543277Y-8104888D02*
X9533753Y-8066793D01*
X9533753Y-8066793D02*
X9533753Y-8019174D01*
X9533753Y-8019174D02*
X9543277Y-7981079D01*
X9543277Y-7981079D02*
X9552801Y-7962031D01*
X9552801Y-7962031D02*
X9562324Y-7952508D01*
X9562324Y-7952508D02*
X9581372Y-7942984D01*
X9733753Y-8123936D02*
X9743277Y-8133460D01*
X9743277Y-8133460D02*
X9733753Y-8142984D01*
X9733753Y-8142984D02*
X9724229Y-8133460D01*
X9724229Y-8133460D02*
X9733753Y-8123936D01*
X9733753Y-8123936D02*
X9733753Y-8142984D01*
X9914705Y-7942984D02*
X9876610Y-7942984D01*
X9876610Y-7942984D02*
X9857563Y-7952508D01*
X9857563Y-7952508D02*
X9848039Y-7962031D01*
X9848039Y-7962031D02*
X9828991Y-7990603D01*
X9828991Y-7990603D02*
X9819467Y-8028698D01*
X9819467Y-8028698D02*
X9819467Y-8104888D01*
X9819467Y-8104888D02*
X9828991Y-8123936D01*
X9828991Y-8123936D02*
X9838515Y-8133460D01*
X9838515Y-8133460D02*
X9857563Y-8142984D01*
X9857563Y-8142984D02*
X9895658Y-8142984D01*
X9895658Y-8142984D02*
X9914705Y-8133460D01*
X9914705Y-8133460D02*
X9924229Y-8123936D01*
X9924229Y-8123936D02*
X9933753Y-8104888D01*
X9933753Y-8104888D02*
X9933753Y-8057269D01*
X9933753Y-8057269D02*
X9924229Y-8038222D01*
X9924229Y-8038222D02*
X9914705Y-8028698D01*
X9914705Y-8028698D02*
X9895658Y-8019174D01*
X9895658Y-8019174D02*
X9857563Y-8019174D01*
X9857563Y-8019174D02*
X9838515Y-8028698D01*
X9838515Y-8028698D02*
X9828991Y-8038222D01*
X9828991Y-8038222D02*
X9819467Y-8057269D01*
X10057563Y-7942984D02*
X10076610Y-7942984D01*
X10076610Y-7942984D02*
X10095658Y-7952508D01*
X10095658Y-7952508D02*
X10105182Y-7962031D01*
X10105182Y-7962031D02*
X10114705Y-7981079D01*
X10114705Y-7981079D02*
X10124229Y-8019174D01*
X10124229Y-8019174D02*
X10124229Y-8066793D01*
X10124229Y-8066793D02*
X10114705Y-8104888D01*
X10114705Y-8104888D02*
X10105182Y-8123936D01*
X10105182Y-8123936D02*
X10095658Y-8133460D01*
X10095658Y-8133460D02*
X10076610Y-8142984D01*
X10076610Y-8142984D02*
X10057563Y-8142984D01*
X10057563Y-8142984D02*
X10038515Y-8133460D01*
X10038515Y-8133460D02*
X10028991Y-8123936D01*
X10028991Y-8123936D02*
X10019467Y-8104888D01*
X10019467Y-8104888D02*
X10009944Y-8066793D01*
X10009944Y-8066793D02*
X10009944Y-8019174D01*
X10009944Y-8019174D02*
X10019467Y-7981079D01*
X10019467Y-7981079D02*
X10028991Y-7962031D01*
X10028991Y-7962031D02*
X10038515Y-7952508D01*
X10038515Y-7952508D02*
X10057563Y-7942984D01*
X10248039Y-7942984D02*
X10267086Y-7942984D01*
X10267086Y-7942984D02*
X10286134Y-7952508D01*
X10286134Y-7952508D02*
X10295658Y-7962031D01*
X10295658Y-7962031D02*
X10305182Y-7981079D01*
X10305182Y-7981079D02*
X10314705Y-8019174D01*
X10314705Y-8019174D02*
X10314705Y-8066793D01*
X10314705Y-8066793D02*
X10305182Y-8104888D01*
X10305182Y-8104888D02*
X10295658Y-8123936D01*
X10295658Y-8123936D02*
X10286134Y-8133460D01*
X10286134Y-8133460D02*
X10267086Y-8142984D01*
X10267086Y-8142984D02*
X10248039Y-8142984D01*
X10248039Y-8142984D02*
X10228991Y-8133460D01*
X10228991Y-8133460D02*
X10219467Y-8123936D01*
X10219467Y-8123936D02*
X10209944Y-8104888D01*
X10209944Y-8104888D02*
X10200420Y-8066793D01*
X10200420Y-8066793D02*
X10200420Y-8019174D01*
X10200420Y-8019174D02*
X10209944Y-7981079D01*
X10209944Y-7981079D02*
X10219467Y-7962031D01*
X10219467Y-7962031D02*
X10228991Y-7952508D01*
X10228991Y-7952508D02*
X10248039Y-7942984D01*
X10400420Y-8142984D02*
X10400420Y-8009650D01*
X10400420Y-8028698D02*
X10409944Y-8019174D01*
X10409944Y-8019174D02*
X10428991Y-8009650D01*
X10428991Y-8009650D02*
X10457563Y-8009650D01*
X10457563Y-8009650D02*
X10476610Y-8019174D01*
X10476610Y-8019174D02*
X10486134Y-8038222D01*
X10486134Y-8038222D02*
X10486134Y-8142984D01*
X10486134Y-8038222D02*
X10495658Y-8019174D01*
X10495658Y-8019174D02*
X10514705Y-8009650D01*
X10514705Y-8009650D02*
X10543277Y-8009650D01*
X10543277Y-8009650D02*
X10562325Y-8019174D01*
X10562325Y-8019174D02*
X10571848Y-8038222D01*
X10571848Y-8038222D02*
X10571848Y-8142984D01*
X10667086Y-8142984D02*
X10667086Y-8009650D01*
X10667086Y-8028698D02*
X10676610Y-8019174D01*
X10676610Y-8019174D02*
X10695658Y-8009650D01*
X10695658Y-8009650D02*
X10724229Y-8009650D01*
X10724229Y-8009650D02*
X10743277Y-8019174D01*
X10743277Y-8019174D02*
X10752801Y-8038222D01*
X10752801Y-8038222D02*
X10752801Y-8142984D01*
X10752801Y-8038222D02*
X10762325Y-8019174D01*
X10762325Y-8019174D02*
X10781372Y-8009650D01*
X10781372Y-8009650D02*
X10809944Y-8009650D01*
X10809944Y-8009650D02*
X10828991Y-8019174D01*
X10828991Y-8019174D02*
X10838515Y-8038222D01*
X10838515Y-8038222D02*
X10838515Y-8142984D01*
X11228991Y-7933460D02*
X11057563Y-8190603D01*
X11486134Y-7942984D02*
X11505182Y-7942984D01*
X11505182Y-7942984D02*
X11524229Y-7952508D01*
X11524229Y-7952508D02*
X11533753Y-7962031D01*
X11533753Y-7962031D02*
X11543277Y-7981079D01*
X11543277Y-7981079D02*
X11552801Y-8019174D01*
X11552801Y-8019174D02*
X11552801Y-8066793D01*
X11552801Y-8066793D02*
X11543277Y-8104888D01*
X11543277Y-8104888D02*
X11533753Y-8123936D01*
X11533753Y-8123936D02*
X11524229Y-8133460D01*
X11524229Y-8133460D02*
X11505182Y-8142984D01*
X11505182Y-8142984D02*
X11486134Y-8142984D01*
X11486134Y-8142984D02*
X11467086Y-8133460D01*
X11467086Y-8133460D02*
X11457563Y-8123936D01*
X11457563Y-8123936D02*
X11448039Y-8104888D01*
X11448039Y-8104888D02*
X11438515Y-8066793D01*
X11438515Y-8066793D02*
X11438515Y-8019174D01*
X11438515Y-8019174D02*
X11448039Y-7981079D01*
X11448039Y-7981079D02*
X11457563Y-7962031D01*
X11457563Y-7962031D02*
X11467086Y-7952508D01*
X11467086Y-7952508D02*
X11486134Y-7942984D01*
X11638515Y-8123936D02*
X11648039Y-8133460D01*
X11648039Y-8133460D02*
X11638515Y-8142984D01*
X11638515Y-8142984D02*
X11628991Y-8133460D01*
X11628991Y-8133460D02*
X11638515Y-8123936D01*
X11638515Y-8123936D02*
X11638515Y-8142984D01*
X11771848Y-7942984D02*
X11790896Y-7942984D01*
X11790896Y-7942984D02*
X11809944Y-7952508D01*
X11809944Y-7952508D02*
X11819467Y-7962031D01*
X11819467Y-7962031D02*
X11828991Y-7981079D01*
X11828991Y-7981079D02*
X11838515Y-8019174D01*
X11838515Y-8019174D02*
X11838515Y-8066793D01*
X11838515Y-8066793D02*
X11828991Y-8104888D01*
X11828991Y-8104888D02*
X11819467Y-8123936D01*
X11819467Y-8123936D02*
X11809944Y-8133460D01*
X11809944Y-8133460D02*
X11790896Y-8142984D01*
X11790896Y-8142984D02*
X11771848Y-8142984D01*
X11771848Y-8142984D02*
X11752801Y-8133460D01*
X11752801Y-8133460D02*
X11743277Y-8123936D01*
X11743277Y-8123936D02*
X11733753Y-8104888D01*
X11733753Y-8104888D02*
X11724229Y-8066793D01*
X11724229Y-8066793D02*
X11724229Y-8019174D01*
X11724229Y-8019174D02*
X11733753Y-7981079D01*
X11733753Y-7981079D02*
X11743277Y-7962031D01*
X11743277Y-7962031D02*
X11752801Y-7952508D01*
X11752801Y-7952508D02*
X11771848Y-7942984D01*
X11914706Y-7962031D02*
X11924229Y-7952508D01*
X11924229Y-7952508D02*
X11943277Y-7942984D01*
X11943277Y-7942984D02*
X11990896Y-7942984D01*
X11990896Y-7942984D02*
X12009944Y-7952508D01*
X12009944Y-7952508D02*
X12019467Y-7962031D01*
X12019467Y-7962031D02*
X12028991Y-7981079D01*
X12028991Y-7981079D02*
X12028991Y-8000127D01*
X12028991Y-8000127D02*
X12019467Y-8028698D01*
X12019467Y-8028698D02*
X11905182Y-8142984D01*
X11905182Y-8142984D02*
X12028991Y-8142984D01*
X12095658Y-7942984D02*
X12219467Y-7942984D01*
X12219467Y-7942984D02*
X12152801Y-8019174D01*
X12152801Y-8019174D02*
X12181372Y-8019174D01*
X12181372Y-8019174D02*
X12200420Y-8028698D01*
X12200420Y-8028698D02*
X12209944Y-8038222D01*
X12209944Y-8038222D02*
X12219467Y-8057269D01*
X12219467Y-8057269D02*
X12219467Y-8104888D01*
X12219467Y-8104888D02*
X12209944Y-8123936D01*
X12209944Y-8123936D02*
X12200420Y-8133460D01*
X12200420Y-8133460D02*
X12181372Y-8142984D01*
X12181372Y-8142984D02*
X12124229Y-8142984D01*
X12124229Y-8142984D02*
X12105182Y-8133460D01*
X12105182Y-8133460D02*
X12095658Y-8123936D01*
X12390896Y-7942984D02*
X12352801Y-7942984D01*
X12352801Y-7942984D02*
X12333753Y-7952508D01*
X12333753Y-7952508D02*
X12324229Y-7962031D01*
X12324229Y-7962031D02*
X12305182Y-7990603D01*
X12305182Y-7990603D02*
X12295658Y-8028698D01*
X12295658Y-8028698D02*
X12295658Y-8104888D01*
X12295658Y-8104888D02*
X12305182Y-8123936D01*
X12305182Y-8123936D02*
X12314706Y-8133460D01*
X12314706Y-8133460D02*
X12333753Y-8142984D01*
X12333753Y-8142984D02*
X12371848Y-8142984D01*
X12371848Y-8142984D02*
X12390896Y-8133460D01*
X12390896Y-8133460D02*
X12400420Y-8123936D01*
X12400420Y-8123936D02*
X12409944Y-8104888D01*
X12409944Y-8104888D02*
X12409944Y-8057269D01*
X12409944Y-8057269D02*
X12400420Y-8038222D01*
X12400420Y-8038222D02*
X12390896Y-8028698D01*
X12390896Y-8028698D02*
X12371848Y-8019174D01*
X12371848Y-8019174D02*
X12333753Y-8019174D01*
X12333753Y-8019174D02*
X12314706Y-8028698D01*
X12314706Y-8028698D02*
X12305182Y-8038222D01*
X12305182Y-8038222D02*
X12295658Y-8057269D01*
X12486134Y-7942984D02*
X12486134Y-7981079D01*
X12562325Y-7942984D02*
X12562325Y-7981079D01*
X12857563Y-8219174D02*
X12848039Y-8209650D01*
X12848039Y-8209650D02*
X12828991Y-8181079D01*
X12828991Y-8181079D02*
X12819468Y-8162031D01*
X12819468Y-8162031D02*
X12809944Y-8133460D01*
X12809944Y-8133460D02*
X12800420Y-8085841D01*
X12800420Y-8085841D02*
X12800420Y-8047746D01*
X12800420Y-8047746D02*
X12809944Y-8000127D01*
X12809944Y-8000127D02*
X12819468Y-7971555D01*
X12819468Y-7971555D02*
X12828991Y-7952508D01*
X12828991Y-7952508D02*
X12848039Y-7923936D01*
X12848039Y-7923936D02*
X12857563Y-7914412D01*
X12971848Y-7942984D02*
X12990896Y-7942984D01*
X12990896Y-7942984D02*
X13009944Y-7952508D01*
X13009944Y-7952508D02*
X13019468Y-7962031D01*
X13019468Y-7962031D02*
X13028991Y-7981079D01*
X13028991Y-7981079D02*
X13038515Y-8019174D01*
X13038515Y-8019174D02*
X13038515Y-8066793D01*
X13038515Y-8066793D02*
X13028991Y-8104888D01*
X13028991Y-8104888D02*
X13019468Y-8123936D01*
X13019468Y-8123936D02*
X13009944Y-8133460D01*
X13009944Y-8133460D02*
X12990896Y-8142984D01*
X12990896Y-8142984D02*
X12971848Y-8142984D01*
X12971848Y-8142984D02*
X12952801Y-8133460D01*
X12952801Y-8133460D02*
X12943277Y-8123936D01*
X12943277Y-8123936D02*
X12933753Y-8104888D01*
X12933753Y-8104888D02*
X12924229Y-8066793D01*
X12924229Y-8066793D02*
X12924229Y-8019174D01*
X12924229Y-8019174D02*
X12933753Y-7981079D01*
X12933753Y-7981079D02*
X12943277Y-7962031D01*
X12943277Y-7962031D02*
X12952801Y-7952508D01*
X12952801Y-7952508D02*
X12971848Y-7942984D01*
X13276610Y-8142984D02*
X13276610Y-7942984D01*
X13362325Y-8142984D02*
X13362325Y-8038222D01*
X13362325Y-8038222D02*
X13352801Y-8019174D01*
X13352801Y-8019174D02*
X13333753Y-8009650D01*
X13333753Y-8009650D02*
X13305182Y-8009650D01*
X13305182Y-8009650D02*
X13286134Y-8019174D01*
X13286134Y-8019174D02*
X13276610Y-8028698D01*
X13486134Y-8142984D02*
X13467087Y-8133460D01*
X13467087Y-8133460D02*
X13457563Y-8123936D01*
X13457563Y-8123936D02*
X13448039Y-8104888D01*
X13448039Y-8104888D02*
X13448039Y-8047746D01*
X13448039Y-8047746D02*
X13457563Y-8028698D01*
X13457563Y-8028698D02*
X13467087Y-8019174D01*
X13467087Y-8019174D02*
X13486134Y-8009650D01*
X13486134Y-8009650D02*
X13514706Y-8009650D01*
X13514706Y-8009650D02*
X13533753Y-8019174D01*
X13533753Y-8019174D02*
X13543277Y-8028698D01*
X13543277Y-8028698D02*
X13552801Y-8047746D01*
X13552801Y-8047746D02*
X13552801Y-8104888D01*
X13552801Y-8104888D02*
X13543277Y-8123936D01*
X13543277Y-8123936D02*
X13533753Y-8133460D01*
X13533753Y-8133460D02*
X13514706Y-8142984D01*
X13514706Y-8142984D02*
X13486134Y-8142984D01*
X13667087Y-8142984D02*
X13648039Y-8133460D01*
X13648039Y-8133460D02*
X13638515Y-8114412D01*
X13638515Y-8114412D02*
X13638515Y-7942984D01*
X13819468Y-8133460D02*
X13800420Y-8142984D01*
X13800420Y-8142984D02*
X13762325Y-8142984D01*
X13762325Y-8142984D02*
X13743277Y-8133460D01*
X13743277Y-8133460D02*
X13733753Y-8114412D01*
X13733753Y-8114412D02*
X13733753Y-8038222D01*
X13733753Y-8038222D02*
X13743277Y-8019174D01*
X13743277Y-8019174D02*
X13762325Y-8009650D01*
X13762325Y-8009650D02*
X13800420Y-8009650D01*
X13800420Y-8009650D02*
X13819468Y-8019174D01*
X13819468Y-8019174D02*
X13828991Y-8038222D01*
X13828991Y-8038222D02*
X13828991Y-8057269D01*
X13828991Y-8057269D02*
X13733753Y-8076317D01*
X13905182Y-8133460D02*
X13924230Y-8142984D01*
X13924230Y-8142984D02*
X13962325Y-8142984D01*
X13962325Y-8142984D02*
X13981372Y-8133460D01*
X13981372Y-8133460D02*
X13990896Y-8114412D01*
X13990896Y-8114412D02*
X13990896Y-8104888D01*
X13990896Y-8104888D02*
X13981372Y-8085841D01*
X13981372Y-8085841D02*
X13962325Y-8076317D01*
X13962325Y-8076317D02*
X13933753Y-8076317D01*
X13933753Y-8076317D02*
X13914706Y-8066793D01*
X13914706Y-8066793D02*
X13905182Y-8047746D01*
X13905182Y-8047746D02*
X13905182Y-8038222D01*
X13905182Y-8038222D02*
X13914706Y-8019174D01*
X13914706Y-8019174D02*
X13933753Y-8009650D01*
X13933753Y-8009650D02*
X13962325Y-8009650D01*
X13962325Y-8009650D02*
X13981372Y-8019174D01*
X14228992Y-8066793D02*
X14381373Y-8066793D01*
X14305182Y-8142984D02*
X14305182Y-7990603D01*
X14714706Y-8009650D02*
X14714706Y-8142984D01*
X14667087Y-7933460D02*
X14619468Y-8076317D01*
X14619468Y-8076317D02*
X14743277Y-8076317D01*
X14962325Y-8133460D02*
X14981373Y-8142984D01*
X14981373Y-8142984D02*
X15019468Y-8142984D01*
X15019468Y-8142984D02*
X15038515Y-8133460D01*
X15038515Y-8133460D02*
X15048039Y-8114412D01*
X15048039Y-8114412D02*
X15048039Y-8104888D01*
X15048039Y-8104888D02*
X15038515Y-8085841D01*
X15038515Y-8085841D02*
X15019468Y-8076317D01*
X15019468Y-8076317D02*
X14990896Y-8076317D01*
X14990896Y-8076317D02*
X14971849Y-8066793D01*
X14971849Y-8066793D02*
X14962325Y-8047746D01*
X14962325Y-8047746D02*
X14962325Y-8038222D01*
X14962325Y-8038222D02*
X14971849Y-8019174D01*
X14971849Y-8019174D02*
X14990896Y-8009650D01*
X14990896Y-8009650D02*
X15019468Y-8009650D01*
X15019468Y-8009650D02*
X15038515Y-8019174D01*
X15162325Y-8142984D02*
X15143277Y-8133460D01*
X15143277Y-8133460D02*
X15133754Y-8114412D01*
X15133754Y-8114412D02*
X15133754Y-7942984D01*
X15267087Y-8142984D02*
X15248039Y-8133460D01*
X15248039Y-8133460D02*
X15238515Y-8123936D01*
X15238515Y-8123936D02*
X15228992Y-8104888D01*
X15228992Y-8104888D02*
X15228992Y-8047746D01*
X15228992Y-8047746D02*
X15238515Y-8028698D01*
X15238515Y-8028698D02*
X15248039Y-8019174D01*
X15248039Y-8019174D02*
X15267087Y-8009650D01*
X15267087Y-8009650D02*
X15295658Y-8009650D01*
X15295658Y-8009650D02*
X15314706Y-8019174D01*
X15314706Y-8019174D02*
X15324230Y-8028698D01*
X15324230Y-8028698D02*
X15333754Y-8047746D01*
X15333754Y-8047746D02*
X15333754Y-8104888D01*
X15333754Y-8104888D02*
X15324230Y-8123936D01*
X15324230Y-8123936D02*
X15314706Y-8133460D01*
X15314706Y-8133460D02*
X15295658Y-8142984D01*
X15295658Y-8142984D02*
X15267087Y-8142984D01*
X15390896Y-8009650D02*
X15467087Y-8009650D01*
X15419468Y-7942984D02*
X15419468Y-8114412D01*
X15419468Y-8114412D02*
X15428992Y-8133460D01*
X15428992Y-8133460D02*
X15448039Y-8142984D01*
X15448039Y-8142984D02*
X15467087Y-8142984D01*
X15524230Y-8133460D02*
X15543277Y-8142984D01*
X15543277Y-8142984D02*
X15581373Y-8142984D01*
X15581373Y-8142984D02*
X15600420Y-8133460D01*
X15600420Y-8133460D02*
X15609944Y-8114412D01*
X15609944Y-8114412D02*
X15609944Y-8104888D01*
X15609944Y-8104888D02*
X15600420Y-8085841D01*
X15600420Y-8085841D02*
X15581373Y-8076317D01*
X15581373Y-8076317D02*
X15552801Y-8076317D01*
X15552801Y-8076317D02*
X15533754Y-8066793D01*
X15533754Y-8066793D02*
X15524230Y-8047746D01*
X15524230Y-8047746D02*
X15524230Y-8038222D01*
X15524230Y-8038222D02*
X15533754Y-8019174D01*
X15533754Y-8019174D02*
X15552801Y-8009650D01*
X15552801Y-8009650D02*
X15581373Y-8009650D01*
X15581373Y-8009650D02*
X15600420Y-8019174D01*
X15676611Y-8219174D02*
X15686135Y-8209650D01*
X15686135Y-8209650D02*
X15705182Y-8181079D01*
X15705182Y-8181079D02*
X15714706Y-8162031D01*
X15714706Y-8162031D02*
X15724230Y-8133460D01*
X15724230Y-8133460D02*
X15733754Y-8085841D01*
X15733754Y-8085841D02*
X15733754Y-8047746D01*
X15733754Y-8047746D02*
X15724230Y-8000127D01*
X15724230Y-8000127D02*
X15714706Y-7971555D01*
X15714706Y-7971555D02*
X15705182Y-7952508D01*
X15705182Y-7952508D02*
X15686135Y-7923936D01*
X15686135Y-7923936D02*
X15676611Y-7914412D01*
D12*
X9232500Y-8265500D02*
X9232500Y-8365500D01*
X9182500Y-8315500D02*
X9282500Y-8315500D01*
D11*
X9648039Y-8406984D02*
X9533753Y-8406984D01*
X9590896Y-8406984D02*
X9590896Y-8206984D01*
X9590896Y-8206984D02*
X9571848Y-8235555D01*
X9571848Y-8235555D02*
X9552801Y-8254603D01*
X9552801Y-8254603D02*
X9533753Y-8264127D01*
X9733753Y-8387936D02*
X9743277Y-8397460D01*
X9743277Y-8397460D02*
X9733753Y-8406984D01*
X9733753Y-8406984D02*
X9724229Y-8397460D01*
X9724229Y-8397460D02*
X9733753Y-8387936D01*
X9733753Y-8387936D02*
X9733753Y-8406984D01*
X9867086Y-8206984D02*
X9886134Y-8206984D01*
X9886134Y-8206984D02*
X9905182Y-8216508D01*
X9905182Y-8216508D02*
X9914705Y-8226031D01*
X9914705Y-8226031D02*
X9924229Y-8245079D01*
X9924229Y-8245079D02*
X9933753Y-8283174D01*
X9933753Y-8283174D02*
X9933753Y-8330793D01*
X9933753Y-8330793D02*
X9924229Y-8368888D01*
X9924229Y-8368888D02*
X9914705Y-8387936D01*
X9914705Y-8387936D02*
X9905182Y-8397460D01*
X9905182Y-8397460D02*
X9886134Y-8406984D01*
X9886134Y-8406984D02*
X9867086Y-8406984D01*
X9867086Y-8406984D02*
X9848039Y-8397460D01*
X9848039Y-8397460D02*
X9838515Y-8387936D01*
X9838515Y-8387936D02*
X9828991Y-8368888D01*
X9828991Y-8368888D02*
X9819467Y-8330793D01*
X9819467Y-8330793D02*
X9819467Y-8283174D01*
X9819467Y-8283174D02*
X9828991Y-8245079D01*
X9828991Y-8245079D02*
X9838515Y-8226031D01*
X9838515Y-8226031D02*
X9848039Y-8216508D01*
X9848039Y-8216508D02*
X9867086Y-8206984D01*
X10057563Y-8206984D02*
X10076610Y-8206984D01*
X10076610Y-8206984D02*
X10095658Y-8216508D01*
X10095658Y-8216508D02*
X10105182Y-8226031D01*
X10105182Y-8226031D02*
X10114705Y-8245079D01*
X10114705Y-8245079D02*
X10124229Y-8283174D01*
X10124229Y-8283174D02*
X10124229Y-8330793D01*
X10124229Y-8330793D02*
X10114705Y-8368888D01*
X10114705Y-8368888D02*
X10105182Y-8387936D01*
X10105182Y-8387936D02*
X10095658Y-8397460D01*
X10095658Y-8397460D02*
X10076610Y-8406984D01*
X10076610Y-8406984D02*
X10057563Y-8406984D01*
X10057563Y-8406984D02*
X10038515Y-8397460D01*
X10038515Y-8397460D02*
X10028991Y-8387936D01*
X10028991Y-8387936D02*
X10019467Y-8368888D01*
X10019467Y-8368888D02*
X10009944Y-8330793D01*
X10009944Y-8330793D02*
X10009944Y-8283174D01*
X10009944Y-8283174D02*
X10019467Y-8245079D01*
X10019467Y-8245079D02*
X10028991Y-8226031D01*
X10028991Y-8226031D02*
X10038515Y-8216508D01*
X10038515Y-8216508D02*
X10057563Y-8206984D01*
X10248039Y-8206984D02*
X10267086Y-8206984D01*
X10267086Y-8206984D02*
X10286134Y-8216508D01*
X10286134Y-8216508D02*
X10295658Y-8226031D01*
X10295658Y-8226031D02*
X10305182Y-8245079D01*
X10305182Y-8245079D02*
X10314705Y-8283174D01*
X10314705Y-8283174D02*
X10314705Y-8330793D01*
X10314705Y-8330793D02*
X10305182Y-8368888D01*
X10305182Y-8368888D02*
X10295658Y-8387936D01*
X10295658Y-8387936D02*
X10286134Y-8397460D01*
X10286134Y-8397460D02*
X10267086Y-8406984D01*
X10267086Y-8406984D02*
X10248039Y-8406984D01*
X10248039Y-8406984D02*
X10228991Y-8397460D01*
X10228991Y-8397460D02*
X10219467Y-8387936D01*
X10219467Y-8387936D02*
X10209944Y-8368888D01*
X10209944Y-8368888D02*
X10200420Y-8330793D01*
X10200420Y-8330793D02*
X10200420Y-8283174D01*
X10200420Y-8283174D02*
X10209944Y-8245079D01*
X10209944Y-8245079D02*
X10219467Y-8226031D01*
X10219467Y-8226031D02*
X10228991Y-8216508D01*
X10228991Y-8216508D02*
X10248039Y-8206984D01*
X10400420Y-8406984D02*
X10400420Y-8273650D01*
X10400420Y-8292698D02*
X10409944Y-8283174D01*
X10409944Y-8283174D02*
X10428991Y-8273650D01*
X10428991Y-8273650D02*
X10457563Y-8273650D01*
X10457563Y-8273650D02*
X10476610Y-8283174D01*
X10476610Y-8283174D02*
X10486134Y-8302222D01*
X10486134Y-8302222D02*
X10486134Y-8406984D01*
X10486134Y-8302222D02*
X10495658Y-8283174D01*
X10495658Y-8283174D02*
X10514705Y-8273650D01*
X10514705Y-8273650D02*
X10543277Y-8273650D01*
X10543277Y-8273650D02*
X10562325Y-8283174D01*
X10562325Y-8283174D02*
X10571848Y-8302222D01*
X10571848Y-8302222D02*
X10571848Y-8406984D01*
X10667086Y-8406984D02*
X10667086Y-8273650D01*
X10667086Y-8292698D02*
X10676610Y-8283174D01*
X10676610Y-8283174D02*
X10695658Y-8273650D01*
X10695658Y-8273650D02*
X10724229Y-8273650D01*
X10724229Y-8273650D02*
X10743277Y-8283174D01*
X10743277Y-8283174D02*
X10752801Y-8302222D01*
X10752801Y-8302222D02*
X10752801Y-8406984D01*
X10752801Y-8302222D02*
X10762325Y-8283174D01*
X10762325Y-8283174D02*
X10781372Y-8273650D01*
X10781372Y-8273650D02*
X10809944Y-8273650D01*
X10809944Y-8273650D02*
X10828991Y-8283174D01*
X10828991Y-8283174D02*
X10838515Y-8302222D01*
X10838515Y-8302222D02*
X10838515Y-8406984D01*
X11228991Y-8197460D02*
X11057563Y-8454603D01*
X11486134Y-8206984D02*
X11505182Y-8206984D01*
X11505182Y-8206984D02*
X11524229Y-8216508D01*
X11524229Y-8216508D02*
X11533753Y-8226031D01*
X11533753Y-8226031D02*
X11543277Y-8245079D01*
X11543277Y-8245079D02*
X11552801Y-8283174D01*
X11552801Y-8283174D02*
X11552801Y-8330793D01*
X11552801Y-8330793D02*
X11543277Y-8368888D01*
X11543277Y-8368888D02*
X11533753Y-8387936D01*
X11533753Y-8387936D02*
X11524229Y-8397460D01*
X11524229Y-8397460D02*
X11505182Y-8406984D01*
X11505182Y-8406984D02*
X11486134Y-8406984D01*
X11486134Y-8406984D02*
X11467086Y-8397460D01*
X11467086Y-8397460D02*
X11457563Y-8387936D01*
X11457563Y-8387936D02*
X11448039Y-8368888D01*
X11448039Y-8368888D02*
X11438515Y-8330793D01*
X11438515Y-8330793D02*
X11438515Y-8283174D01*
X11438515Y-8283174D02*
X11448039Y-8245079D01*
X11448039Y-8245079D02*
X11457563Y-8226031D01*
X11457563Y-8226031D02*
X11467086Y-8216508D01*
X11467086Y-8216508D02*
X11486134Y-8206984D01*
X11638515Y-8387936D02*
X11648039Y-8397460D01*
X11648039Y-8397460D02*
X11638515Y-8406984D01*
X11638515Y-8406984D02*
X11628991Y-8397460D01*
X11628991Y-8397460D02*
X11638515Y-8387936D01*
X11638515Y-8387936D02*
X11638515Y-8406984D01*
X11771848Y-8206984D02*
X11790896Y-8206984D01*
X11790896Y-8206984D02*
X11809944Y-8216508D01*
X11809944Y-8216508D02*
X11819467Y-8226031D01*
X11819467Y-8226031D02*
X11828991Y-8245079D01*
X11828991Y-8245079D02*
X11838515Y-8283174D01*
X11838515Y-8283174D02*
X11838515Y-8330793D01*
X11838515Y-8330793D02*
X11828991Y-8368888D01*
X11828991Y-8368888D02*
X11819467Y-8387936D01*
X11819467Y-8387936D02*
X11809944Y-8397460D01*
X11809944Y-8397460D02*
X11790896Y-8406984D01*
X11790896Y-8406984D02*
X11771848Y-8406984D01*
X11771848Y-8406984D02*
X11752801Y-8397460D01*
X11752801Y-8397460D02*
X11743277Y-8387936D01*
X11743277Y-8387936D02*
X11733753Y-8368888D01*
X11733753Y-8368888D02*
X11724229Y-8330793D01*
X11724229Y-8330793D02*
X11724229Y-8283174D01*
X11724229Y-8283174D02*
X11733753Y-8245079D01*
X11733753Y-8245079D02*
X11743277Y-8226031D01*
X11743277Y-8226031D02*
X11752801Y-8216508D01*
X11752801Y-8216508D02*
X11771848Y-8206984D01*
X11905182Y-8206984D02*
X12028991Y-8206984D01*
X12028991Y-8206984D02*
X11962325Y-8283174D01*
X11962325Y-8283174D02*
X11990896Y-8283174D01*
X11990896Y-8283174D02*
X12009944Y-8292698D01*
X12009944Y-8292698D02*
X12019467Y-8302222D01*
X12019467Y-8302222D02*
X12028991Y-8321269D01*
X12028991Y-8321269D02*
X12028991Y-8368888D01*
X12028991Y-8368888D02*
X12019467Y-8387936D01*
X12019467Y-8387936D02*
X12009944Y-8397460D01*
X12009944Y-8397460D02*
X11990896Y-8406984D01*
X11990896Y-8406984D02*
X11933753Y-8406984D01*
X11933753Y-8406984D02*
X11914706Y-8397460D01*
X11914706Y-8397460D02*
X11905182Y-8387936D01*
X12124229Y-8406984D02*
X12162325Y-8406984D01*
X12162325Y-8406984D02*
X12181372Y-8397460D01*
X12181372Y-8397460D02*
X12190896Y-8387936D01*
X12190896Y-8387936D02*
X12209944Y-8359365D01*
X12209944Y-8359365D02*
X12219467Y-8321269D01*
X12219467Y-8321269D02*
X12219467Y-8245079D01*
X12219467Y-8245079D02*
X12209944Y-8226031D01*
X12209944Y-8226031D02*
X12200420Y-8216508D01*
X12200420Y-8216508D02*
X12181372Y-8206984D01*
X12181372Y-8206984D02*
X12143277Y-8206984D01*
X12143277Y-8206984D02*
X12124229Y-8216508D01*
X12124229Y-8216508D02*
X12114706Y-8226031D01*
X12114706Y-8226031D02*
X12105182Y-8245079D01*
X12105182Y-8245079D02*
X12105182Y-8292698D01*
X12105182Y-8292698D02*
X12114706Y-8311746D01*
X12114706Y-8311746D02*
X12124229Y-8321269D01*
X12124229Y-8321269D02*
X12143277Y-8330793D01*
X12143277Y-8330793D02*
X12181372Y-8330793D01*
X12181372Y-8330793D02*
X12200420Y-8321269D01*
X12200420Y-8321269D02*
X12209944Y-8311746D01*
X12209944Y-8311746D02*
X12219467Y-8292698D01*
X12390896Y-8273650D02*
X12390896Y-8406984D01*
X12343277Y-8197460D02*
X12295658Y-8340317D01*
X12295658Y-8340317D02*
X12419467Y-8340317D01*
X12486134Y-8206984D02*
X12486134Y-8245079D01*
X12562325Y-8206984D02*
X12562325Y-8245079D01*
X12857563Y-8483174D02*
X12848039Y-8473650D01*
X12848039Y-8473650D02*
X12828991Y-8445079D01*
X12828991Y-8445079D02*
X12819468Y-8426031D01*
X12819468Y-8426031D02*
X12809944Y-8397460D01*
X12809944Y-8397460D02*
X12800420Y-8349841D01*
X12800420Y-8349841D02*
X12800420Y-8311746D01*
X12800420Y-8311746D02*
X12809944Y-8264127D01*
X12809944Y-8264127D02*
X12819468Y-8235555D01*
X12819468Y-8235555D02*
X12828991Y-8216508D01*
X12828991Y-8216508D02*
X12848039Y-8187936D01*
X12848039Y-8187936D02*
X12857563Y-8178412D01*
X12971848Y-8206984D02*
X12990896Y-8206984D01*
X12990896Y-8206984D02*
X13009944Y-8216508D01*
X13009944Y-8216508D02*
X13019468Y-8226031D01*
X13019468Y-8226031D02*
X13028991Y-8245079D01*
X13028991Y-8245079D02*
X13038515Y-8283174D01*
X13038515Y-8283174D02*
X13038515Y-8330793D01*
X13038515Y-8330793D02*
X13028991Y-8368888D01*
X13028991Y-8368888D02*
X13019468Y-8387936D01*
X13019468Y-8387936D02*
X13009944Y-8397460D01*
X13009944Y-8397460D02*
X12990896Y-8406984D01*
X12990896Y-8406984D02*
X12971848Y-8406984D01*
X12971848Y-8406984D02*
X12952801Y-8397460D01*
X12952801Y-8397460D02*
X12943277Y-8387936D01*
X12943277Y-8387936D02*
X12933753Y-8368888D01*
X12933753Y-8368888D02*
X12924229Y-8330793D01*
X12924229Y-8330793D02*
X12924229Y-8283174D01*
X12924229Y-8283174D02*
X12933753Y-8245079D01*
X12933753Y-8245079D02*
X12943277Y-8226031D01*
X12943277Y-8226031D02*
X12952801Y-8216508D01*
X12952801Y-8216508D02*
X12971848Y-8206984D01*
X13276610Y-8406984D02*
X13276610Y-8206984D01*
X13362325Y-8406984D02*
X13362325Y-8302222D01*
X13362325Y-8302222D02*
X13352801Y-8283174D01*
X13352801Y-8283174D02*
X13333753Y-8273650D01*
X13333753Y-8273650D02*
X13305182Y-8273650D01*
X13305182Y-8273650D02*
X13286134Y-8283174D01*
X13286134Y-8283174D02*
X13276610Y-8292698D01*
X13486134Y-8406984D02*
X13467087Y-8397460D01*
X13467087Y-8397460D02*
X13457563Y-8387936D01*
X13457563Y-8387936D02*
X13448039Y-8368888D01*
X13448039Y-8368888D02*
X13448039Y-8311746D01*
X13448039Y-8311746D02*
X13457563Y-8292698D01*
X13457563Y-8292698D02*
X13467087Y-8283174D01*
X13467087Y-8283174D02*
X13486134Y-8273650D01*
X13486134Y-8273650D02*
X13514706Y-8273650D01*
X13514706Y-8273650D02*
X13533753Y-8283174D01*
X13533753Y-8283174D02*
X13543277Y-8292698D01*
X13543277Y-8292698D02*
X13552801Y-8311746D01*
X13552801Y-8311746D02*
X13552801Y-8368888D01*
X13552801Y-8368888D02*
X13543277Y-8387936D01*
X13543277Y-8387936D02*
X13533753Y-8397460D01*
X13533753Y-8397460D02*
X13514706Y-8406984D01*
X13514706Y-8406984D02*
X13486134Y-8406984D01*
X13667087Y-8406984D02*
X13648039Y-8397460D01*
X13648039Y-8397460D02*
X13638515Y-8378412D01*
X13638515Y-8378412D02*
X13638515Y-8206984D01*
X13819468Y-8397460D02*
X13800420Y-8406984D01*
X13800420Y-8406984D02*
X13762325Y-8406984D01*
X13762325Y-8406984D02*
X13743277Y-8397460D01*
X13743277Y-8397460D02*
X13733753Y-8378412D01*
X13733753Y-8378412D02*
X13733753Y-8302222D01*
X13733753Y-8302222D02*
X13743277Y-8283174D01*
X13743277Y-8283174D02*
X13762325Y-8273650D01*
X13762325Y-8273650D02*
X13800420Y-8273650D01*
X13800420Y-8273650D02*
X13819468Y-8283174D01*
X13819468Y-8283174D02*
X13828991Y-8302222D01*
X13828991Y-8302222D02*
X13828991Y-8321269D01*
X13828991Y-8321269D02*
X13733753Y-8340317D01*
X13905182Y-8397460D02*
X13924230Y-8406984D01*
X13924230Y-8406984D02*
X13962325Y-8406984D01*
X13962325Y-8406984D02*
X13981372Y-8397460D01*
X13981372Y-8397460D02*
X13990896Y-8378412D01*
X13990896Y-8378412D02*
X13990896Y-8368888D01*
X13990896Y-8368888D02*
X13981372Y-8349841D01*
X13981372Y-8349841D02*
X13962325Y-8340317D01*
X13962325Y-8340317D02*
X13933753Y-8340317D01*
X13933753Y-8340317D02*
X13914706Y-8330793D01*
X13914706Y-8330793D02*
X13905182Y-8311746D01*
X13905182Y-8311746D02*
X13905182Y-8302222D01*
X13905182Y-8302222D02*
X13914706Y-8283174D01*
X13914706Y-8283174D02*
X13933753Y-8273650D01*
X13933753Y-8273650D02*
X13962325Y-8273650D01*
X13962325Y-8273650D02*
X13981372Y-8283174D01*
X14228992Y-8330793D02*
X14381373Y-8330793D01*
X14305182Y-8406984D02*
X14305182Y-8254603D01*
X14609944Y-8206984D02*
X14733753Y-8206984D01*
X14733753Y-8206984D02*
X14667087Y-8283174D01*
X14667087Y-8283174D02*
X14695658Y-8283174D01*
X14695658Y-8283174D02*
X14714706Y-8292698D01*
X14714706Y-8292698D02*
X14724230Y-8302222D01*
X14724230Y-8302222D02*
X14733753Y-8321269D01*
X14733753Y-8321269D02*
X14733753Y-8368888D01*
X14733753Y-8368888D02*
X14724230Y-8387936D01*
X14724230Y-8387936D02*
X14714706Y-8397460D01*
X14714706Y-8397460D02*
X14695658Y-8406984D01*
X14695658Y-8406984D02*
X14638515Y-8406984D01*
X14638515Y-8406984D02*
X14619468Y-8397460D01*
X14619468Y-8397460D02*
X14609944Y-8387936D01*
X14962325Y-8397460D02*
X14981373Y-8406984D01*
X14981373Y-8406984D02*
X15019468Y-8406984D01*
X15019468Y-8406984D02*
X15038515Y-8397460D01*
X15038515Y-8397460D02*
X15048039Y-8378412D01*
X15048039Y-8378412D02*
X15048039Y-8368888D01*
X15048039Y-8368888D02*
X15038515Y-8349841D01*
X15038515Y-8349841D02*
X15019468Y-8340317D01*
X15019468Y-8340317D02*
X14990896Y-8340317D01*
X14990896Y-8340317D02*
X14971849Y-8330793D01*
X14971849Y-8330793D02*
X14962325Y-8311746D01*
X14962325Y-8311746D02*
X14962325Y-8302222D01*
X14962325Y-8302222D02*
X14971849Y-8283174D01*
X14971849Y-8283174D02*
X14990896Y-8273650D01*
X14990896Y-8273650D02*
X15019468Y-8273650D01*
X15019468Y-8273650D02*
X15038515Y-8283174D01*
X15162325Y-8406984D02*
X15143277Y-8397460D01*
X15143277Y-8397460D02*
X15133754Y-8378412D01*
X15133754Y-8378412D02*
X15133754Y-8206984D01*
X15267087Y-8406984D02*
X15248039Y-8397460D01*
X15248039Y-8397460D02*
X15238515Y-8387936D01*
X15238515Y-8387936D02*
X15228992Y-8368888D01*
X15228992Y-8368888D02*
X15228992Y-8311746D01*
X15228992Y-8311746D02*
X15238515Y-8292698D01*
X15238515Y-8292698D02*
X15248039Y-8283174D01*
X15248039Y-8283174D02*
X15267087Y-8273650D01*
X15267087Y-8273650D02*
X15295658Y-8273650D01*
X15295658Y-8273650D02*
X15314706Y-8283174D01*
X15314706Y-8283174D02*
X15324230Y-8292698D01*
X15324230Y-8292698D02*
X15333754Y-8311746D01*
X15333754Y-8311746D02*
X15333754Y-8368888D01*
X15333754Y-8368888D02*
X15324230Y-8387936D01*
X15324230Y-8387936D02*
X15314706Y-8397460D01*
X15314706Y-8397460D02*
X15295658Y-8406984D01*
X15295658Y-8406984D02*
X15267087Y-8406984D01*
X15390896Y-8273650D02*
X15467087Y-8273650D01*
X15419468Y-8206984D02*
X15419468Y-8378412D01*
X15419468Y-8378412D02*
X15428992Y-8397460D01*
X15428992Y-8397460D02*
X15448039Y-8406984D01*
X15448039Y-8406984D02*
X15467087Y-8406984D01*
X15524230Y-8397460D02*
X15543277Y-8406984D01*
X15543277Y-8406984D02*
X15581373Y-8406984D01*
X15581373Y-8406984D02*
X15600420Y-8397460D01*
X15600420Y-8397460D02*
X15609944Y-8378412D01*
X15609944Y-8378412D02*
X15609944Y-8368888D01*
X15609944Y-8368888D02*
X15600420Y-8349841D01*
X15600420Y-8349841D02*
X15581373Y-8340317D01*
X15581373Y-8340317D02*
X15552801Y-8340317D01*
X15552801Y-8340317D02*
X15533754Y-8330793D01*
X15533754Y-8330793D02*
X15524230Y-8311746D01*
X15524230Y-8311746D02*
X15524230Y-8302222D01*
X15524230Y-8302222D02*
X15533754Y-8283174D01*
X15533754Y-8283174D02*
X15552801Y-8273650D01*
X15552801Y-8273650D02*
X15581373Y-8273650D01*
X15581373Y-8273650D02*
X15600420Y-8283174D01*
X15676611Y-8483174D02*
X15686135Y-8473650D01*
X15686135Y-8473650D02*
X15705182Y-8445079D01*
X15705182Y-8445079D02*
X15714706Y-8426031D01*
X15714706Y-8426031D02*
X15724230Y-8397460D01*
X15724230Y-8397460D02*
X15733754Y-8349841D01*
X15733754Y-8349841D02*
X15733754Y-8311746D01*
X15733754Y-8311746D02*
X15724230Y-8264127D01*
X15724230Y-8264127D02*
X15714706Y-8235555D01*
X15714706Y-8235555D02*
X15705182Y-8216508D01*
X15705182Y-8216508D02*
X15686135Y-8187936D01*
X15686135Y-8187936D02*
X15676611Y-8178412D01*
M02*
