%TF.GenerationSoftware,KiCad,Pcbnew,8.0.6-8.0.6-0~ubuntu24.04.1*%
%TF.CreationDate,2024-11-20T23:40:03+01:00*%
%TF.ProjectId,lumen_PD,6c756d65-6e5f-4504-942e-6b696361645f,rev?*%
%TF.SameCoordinates,Original*%
%TF.FileFunction,Copper,L1,Top*%
%TF.FilePolarity,Positive*%
%FSLAX46Y46*%
G04 Gerber Fmt 4.6, Leading zero omitted, Abs format (unit mm)*
G04 Created by KiCad (PCBNEW 8.0.6-8.0.6-0~ubuntu24.04.1) date 2024-11-20 23:40:03*
%MOMM*%
%LPD*%
G01*
G04 APERTURE LIST*
G04 Aperture macros list*
%AMRoundRect*
0 Rectangle with rounded corners*
0 $1 Rounding radius*
0 $2 $3 $4 $5 $6 $7 $8 $9 X,Y pos of 4 corners*
0 Add a 4 corners polygon primitive as box body*
4,1,4,$2,$3,$4,$5,$6,$7,$8,$9,$2,$3,0*
0 Add four circle primitives for the rounded corners*
1,1,$1+$1,$2,$3*
1,1,$1+$1,$4,$5*
1,1,$1+$1,$6,$7*
1,1,$1+$1,$8,$9*
0 Add four rect primitives between the rounded corners*
20,1,$1+$1,$2,$3,$4,$5,0*
20,1,$1+$1,$4,$5,$6,$7,0*
20,1,$1+$1,$6,$7,$8,$9,0*
20,1,$1+$1,$8,$9,$2,$3,0*%
%AMOutline5P*
0 Free polygon, 5 corners , with rotation*
0 The origin of the aperture is its center*
0 number of corners: always 5*
0 $1 to $10 corner X, Y*
0 $11 Rotation angle, in degrees counterclockwise*
0 create outline with 5 corners*
4,1,5,$1,$2,$3,$4,$5,$6,$7,$8,$9,$10,$1,$2,$11*%
%AMOutline6P*
0 Free polygon, 6 corners , with rotation*
0 The origin of the aperture is its center*
0 number of corners: always 6*
0 $1 to $12 corner X, Y*
0 $13 Rotation angle, in degrees counterclockwise*
0 create outline with 6 corners*
4,1,6,$1,$2,$3,$4,$5,$6,$7,$8,$9,$10,$11,$12,$1,$2,$13*%
%AMOutline7P*
0 Free polygon, 7 corners , with rotation*
0 The origin of the aperture is its center*
0 number of corners: always 7*
0 $1 to $14 corner X, Y*
0 $15 Rotation angle, in degrees counterclockwise*
0 create outline with 7 corners*
4,1,7,$1,$2,$3,$4,$5,$6,$7,$8,$9,$10,$11,$12,$13,$14,$1,$2,$15*%
%AMOutline8P*
0 Free polygon, 8 corners , with rotation*
0 The origin of the aperture is its center*
0 number of corners: always 8*
0 $1 to $16 corner X, Y*
0 $17 Rotation angle, in degrees counterclockwise*
0 create outline with 8 corners*
4,1,8,$1,$2,$3,$4,$5,$6,$7,$8,$9,$10,$11,$12,$13,$14,$15,$16,$1,$2,$17*%
G04 Aperture macros list end*
%TA.AperFunction,SMDPad,CuDef*%
%ADD10Outline6P,-0.500000X0.300000X-0.300000X0.500000X0.500000X0.500000X0.500000X-0.500000X-0.300000X-0.500000X-0.500000X-0.300000X90.000000*%
%TD*%
%TA.AperFunction,SMDPad,CuDef*%
%ADD11Outline6P,-0.500000X0.500000X0.300000X0.500000X0.500000X0.300000X0.500000X-0.300000X0.300000X-0.500000X-0.500000X-0.500000X90.000000*%
%TD*%
%TA.AperFunction,ComponentPad*%
%ADD12Outline8P,-1.000000X1.350000X-0.600000X1.750000X0.600000X1.750000X1.000000X1.350000X1.000000X-1.350000X0.600000X-1.750000X-0.600000X-1.750000X-1.000000X-1.350000X0.000000*%
%TD*%
%TA.AperFunction,ComponentPad*%
%ADD13Outline8P,-1.750000X0.600000X-1.350000X1.000000X1.350000X1.000000X1.750000X0.600000X1.750000X-0.600000X1.350000X-1.000000X-1.350000X-1.000000X-1.750000X-0.600000X0.000000*%
%TD*%
%TA.AperFunction,SMDPad,CuDef*%
%ADD14RoundRect,0.147500X-0.172500X0.147500X-0.172500X-0.147500X0.172500X-0.147500X0.172500X0.147500X0*%
%TD*%
%TA.AperFunction,SMDPad,CuDef*%
%ADD15RoundRect,0.135000X0.185000X-0.135000X0.185000X0.135000X-0.185000X0.135000X-0.185000X-0.135000X0*%
%TD*%
%TA.AperFunction,SMDPad,CuDef*%
%ADD16R,1.240000X0.600000*%
%TD*%
%TA.AperFunction,SMDPad,CuDef*%
%ADD17R,1.240000X0.300000*%
%TD*%
%TA.AperFunction,ComponentPad*%
%ADD18O,2.100000X1.000000*%
%TD*%
%TA.AperFunction,ComponentPad*%
%ADD19O,1.800000X1.000000*%
%TD*%
%TA.AperFunction,SMDPad,CuDef*%
%ADD20RoundRect,0.135000X-0.185000X0.135000X-0.185000X-0.135000X0.185000X-0.135000X0.185000X0.135000X0*%
%TD*%
%TA.AperFunction,SMDPad,CuDef*%
%ADD21RoundRect,0.381000X0.381000X-0.762000X0.381000X0.762000X-0.381000X0.762000X-0.381000X-0.762000X0*%
%TD*%
%TA.AperFunction,SMDPad,CuDef*%
%ADD22RoundRect,0.150000X-0.637500X-0.150000X0.637500X-0.150000X0.637500X0.150000X-0.637500X0.150000X0*%
%TD*%
%TA.AperFunction,SMDPad,CuDef*%
%ADD23RoundRect,0.135000X0.135000X0.185000X-0.135000X0.185000X-0.135000X-0.185000X0.135000X-0.185000X0*%
%TD*%
%TA.AperFunction,SMDPad,CuDef*%
%ADD24RoundRect,0.150000X-0.150000X0.512500X-0.150000X-0.512500X0.150000X-0.512500X0.150000X0.512500X0*%
%TD*%
%TA.AperFunction,SMDPad,CuDef*%
%ADD25RoundRect,0.140000X-0.140000X-0.170000X0.140000X-0.170000X0.140000X0.170000X-0.140000X0.170000X0*%
%TD*%
%TA.AperFunction,ViaPad*%
%ADD26C,0.800000*%
%TD*%
%TA.AperFunction,Conductor*%
%ADD27C,0.200000*%
%TD*%
%TA.AperFunction,Conductor*%
%ADD28C,0.300000*%
%TD*%
%TA.AperFunction,Conductor*%
%ADD29C,0.500000*%
%TD*%
%TA.AperFunction,Conductor*%
%ADD30C,0.600000*%
%TD*%
G04 APERTURE END LIST*
D10*
%TO.P,JP2,1,A*%
%TO.N,+3.3V*%
X105850000Y-67500000D03*
D11*
%TO.P,JP2,2,B*%
%TO.N,C1*%
X105850000Y-66200000D03*
%TD*%
D12*
%TO.P,J2,1*%
%TO.N,VCC*%
X108115000Y-65302500D03*
%TO.P,J2,2*%
%TO.N,GND*%
X102115000Y-65302500D03*
D13*
%TO.P,J2,3,MountPin*%
X105115000Y-70002500D03*
%TD*%
D14*
%TO.P,D1,1,K*%
%TO.N,Net-(D1-K)*%
X109800000Y-69365000D03*
%TO.P,D1,2,A*%
%TO.N,+3.3V*%
X109800000Y-70335000D03*
%TD*%
D15*
%TO.P,R5,1*%
%TO.N,GND*%
X106150000Y-64960000D03*
%TO.P,R5,2*%
%TO.N,C1*%
X106150000Y-63940000D03*
%TD*%
D10*
%TO.P,JP1,1,A*%
%TO.N,+3.3V*%
X104350000Y-67500000D03*
D11*
%TO.P,JP1,2,B*%
%TO.N,Net-(JP1-B)*%
X104350000Y-66200000D03*
%TD*%
D16*
%TO.P,J1,A1,GND*%
%TO.N,GND*%
X99200000Y-62132500D03*
%TO.P,J1,A4,VBUS*%
%TO.N,VCC*%
X99200000Y-62932500D03*
D17*
%TO.P,J1,A5,CC1*%
%TO.N,Net-(J1-CC1)*%
X99200000Y-64082500D03*
%TO.P,J1,A6,D+*%
%TO.N,Net-(U1-DP)*%
X99200000Y-65082500D03*
%TO.P,J1,A7,D-*%
%TO.N,Net-(U1-DM)*%
X99200000Y-65582500D03*
%TO.P,J1,A8,SBU1*%
%TO.N,unconnected-(J1-SBU1-PadA8)*%
X99200000Y-66582500D03*
D16*
%TO.P,J1,A9,VBUS*%
%TO.N,VCC*%
X99200000Y-67732500D03*
%TO.P,J1,A12,GND*%
%TO.N,GND*%
X99200000Y-68532500D03*
%TO.P,J1,B1,GND*%
X99200000Y-68532500D03*
%TO.P,J1,B4,VBUS*%
%TO.N,VCC*%
X99200000Y-67732500D03*
D17*
%TO.P,J1,B5,CC2*%
%TO.N,Net-(J1-CC2)*%
X99200000Y-67082500D03*
%TO.P,J1,B6,D+*%
%TO.N,Net-(U1-DP)*%
X99200000Y-66082500D03*
%TO.P,J1,B7,D-*%
%TO.N,Net-(U1-DM)*%
X99200000Y-64582500D03*
%TO.P,J1,B8,SBU2*%
%TO.N,unconnected-(J1-SBU2-PadB8)*%
X99200000Y-63582500D03*
D16*
%TO.P,J1,B9,VBUS*%
%TO.N,VCC*%
X99200000Y-62932500D03*
%TO.P,J1,B12,GND*%
%TO.N,GND*%
X99200000Y-62132500D03*
D18*
%TO.P,J1,S1,SHIELD*%
X98600000Y-61012500D03*
D19*
X94400000Y-61012500D03*
D18*
X98600000Y-69652500D03*
D19*
X94400000Y-69652500D03*
%TD*%
D20*
%TO.P,R4,1*%
%TO.N,GND*%
X104050000Y-63940000D03*
%TO.P,R4,2*%
%TO.N,Net-(JP1-B)*%
X104050000Y-64960000D03*
%TD*%
D21*
%TO.P,U1,0,GND*%
%TO.N,GND*%
X106750000Y-60127500D03*
D22*
%TO.P,U1,1,VDD*%
%TO.N,+3.3V*%
X104487500Y-58527500D03*
%TO.P,U1,2,CFG2*%
X104487500Y-59527500D03*
%TO.P,U1,3,CFG3*%
%TO.N,Net-(JP1-B)*%
X104487500Y-60527500D03*
%TO.P,U1,4,DP*%
%TO.N,Net-(U1-DP)*%
X104487500Y-61527500D03*
%TO.P,U1,5,DM*%
%TO.N,Net-(U1-DM)*%
X104487500Y-62527500D03*
%TO.P,U1,6,CC2*%
%TO.N,Net-(J1-CC2)*%
X109812500Y-62527500D03*
%TO.P,U1,7,CC1*%
%TO.N,Net-(J1-CC1)*%
X109812500Y-61527500D03*
%TO.P,U1,8,VBUS*%
%TO.N,Net-(U1-VBUS)*%
X109812500Y-60527500D03*
%TO.P,U1,9,CFG1*%
%TO.N,C1*%
X109812500Y-59527500D03*
%TO.P,U1,10,PG*%
%TO.N,Net-(U1-PG)*%
X109812500Y-58527500D03*
%TD*%
D23*
%TO.P,R2,1*%
%TO.N,+3.3V*%
X105560000Y-57302500D03*
%TO.P,R2,2*%
%TO.N,VCC*%
X104540000Y-57302500D03*
%TD*%
D24*
%TO.P,U2,1,IN*%
%TO.N,VCC*%
X102665000Y-58802500D03*
%TO.P,U2,2,GND*%
%TO.N,GND*%
X101715000Y-58802500D03*
%TO.P,U2,3,EN*%
%TO.N,VCC*%
X100765000Y-58802500D03*
%TO.P,U2,4,BP*%
%TO.N,unconnected-(U2-BP-Pad4)*%
X100765000Y-61077500D03*
%TO.P,U2,5,OUT*%
%TO.N,+3.3V*%
X102665000Y-61077500D03*
%TD*%
D25*
%TO.P,C3,1*%
%TO.N,GND*%
X101735000Y-62540000D03*
%TO.P,C3,2*%
%TO.N,+3.3V*%
X102695000Y-62540000D03*
%TD*%
%TO.P,C2,1*%
%TO.N,GND*%
X101735000Y-57340000D03*
%TO.P,C2,2*%
%TO.N,VCC*%
X102695000Y-57340000D03*
%TD*%
D23*
%TO.P,R3,1*%
%TO.N,Net-(U1-PG)*%
X109260000Y-57300000D03*
%TO.P,R3,2*%
%TO.N,Net-(D1-K)*%
X108240000Y-57300000D03*
%TD*%
D15*
%TO.P,R1,1*%
%TO.N,VCC*%
X109900000Y-65360000D03*
%TO.P,R1,2*%
%TO.N,Net-(U1-VBUS)*%
X109900000Y-64340000D03*
%TD*%
D26*
%TO.N,+3.3V*%
X108948209Y-68699135D03*
X106399997Y-57750000D03*
%TO.N,VCC*%
X100428725Y-63061225D03*
X100900334Y-57772638D03*
X97600000Y-67350000D03*
X103391068Y-57782583D03*
X97330563Y-63066175D03*
X100300000Y-67732500D03*
%TO.N,Net-(D1-K)*%
X109800000Y-68000000D03*
X107400000Y-57750000D03*
%TO.N,Net-(J1-CC1)*%
X97660000Y-64149997D03*
X108494586Y-61537852D03*
%TO.N,Net-(U1-DM)*%
X97567778Y-65145738D03*
X105844975Y-62255025D03*
%TO.N,Net-(J1-CC2)*%
X97545747Y-66145498D03*
X108550000Y-62550000D03*
%TO.N,Net-(U1-VBUS)*%
X109438528Y-63427500D03*
X108650000Y-60550000D03*
%TO.N,GND*%
X107150000Y-60527500D03*
X101952774Y-59979982D03*
%TD*%
D27*
%TO.N,+3.3V*%
X104487500Y-59527500D02*
X104487500Y-58527500D01*
X106399997Y-57750000D02*
X105952497Y-57302500D01*
D28*
X102665000Y-60215000D02*
X103315000Y-59565000D01*
D27*
X105560000Y-57302500D02*
X105560000Y-57455000D01*
X104515000Y-58500000D02*
X104487500Y-58527500D01*
X102695000Y-61107500D02*
X102665000Y-61077500D01*
X107049135Y-68699135D02*
X105850000Y-67500000D01*
X105952497Y-57302500D02*
X105560000Y-57302500D01*
D28*
X102665000Y-61077500D02*
X102665000Y-60215000D01*
X103890000Y-58527500D02*
X104487500Y-58527500D01*
D27*
X108948209Y-68699135D02*
X107049135Y-68699135D01*
D29*
X102695000Y-62540000D02*
X102695000Y-61107500D01*
D27*
X105850000Y-67500000D02*
X104350000Y-67500000D01*
D28*
X103315000Y-59565000D02*
X103315000Y-59102500D01*
D27*
X108948209Y-68699135D02*
X108948209Y-69483209D01*
X105560000Y-57455000D02*
X104487500Y-58527500D01*
X108948209Y-69483209D02*
X109800000Y-70335000D01*
D28*
X103315000Y-59102500D02*
X103890000Y-58527500D01*
D27*
%TO.N,VCC*%
X109900000Y-65360000D02*
X108172500Y-65360000D01*
D30*
X100443775Y-63061225D02*
X100428725Y-63061225D01*
X100300000Y-62932500D02*
X99380000Y-62932500D01*
D27*
X97381888Y-63117500D02*
X99015000Y-63117500D01*
X101400000Y-60409448D02*
X100765000Y-59774448D01*
X103391068Y-57782583D02*
X102930083Y-57782583D01*
X102930083Y-57782583D02*
X102667500Y-57520000D01*
D29*
X102665000Y-57520000D02*
X102665000Y-58802500D01*
D27*
X100428725Y-62910141D02*
X101400000Y-61938866D01*
X108172500Y-65360000D02*
X108115000Y-65302500D01*
X103871151Y-57302500D02*
X104540000Y-57302500D01*
D30*
X100428725Y-63061225D02*
X100300000Y-62932500D01*
D27*
X97330563Y-63066175D02*
X97381888Y-63117500D01*
X103391068Y-57782583D02*
X103871151Y-57302500D01*
X101400000Y-61938866D02*
X101400000Y-60409448D01*
X100765000Y-59774448D02*
X100765000Y-58802500D01*
D30*
X100300000Y-67732500D02*
X99200000Y-67732500D01*
D27*
X97783838Y-67533838D02*
X97600000Y-67350000D01*
X100428725Y-63061225D02*
X100428725Y-62910141D01*
X100765000Y-57907972D02*
X100765000Y-58802500D01*
X99200000Y-67732500D02*
X99001338Y-67533838D01*
X99015000Y-63117500D02*
X99200000Y-62932500D01*
X99001338Y-67533838D02*
X97783838Y-67533838D01*
X102667500Y-57520000D02*
X102665000Y-57520000D01*
X100900334Y-57772638D02*
X100765000Y-57907972D01*
%TO.N,Net-(U1-PG)*%
X109812500Y-58527500D02*
X109812500Y-57780000D01*
X109812500Y-57780000D02*
X109320000Y-57287500D01*
%TO.N,Net-(D1-K)*%
X107400000Y-57750000D02*
X107790000Y-57750000D01*
X109800000Y-68000000D02*
X109800000Y-69365000D01*
X107790000Y-57750000D02*
X108240000Y-57300000D01*
%TO.N,Net-(J1-CC1)*%
X108494586Y-61537852D02*
X108504938Y-61527500D01*
X97757497Y-64052500D02*
X99550000Y-64052500D01*
X97660000Y-64149997D02*
X97757497Y-64052500D01*
X108504938Y-61527500D02*
X109812500Y-61527500D01*
%TO.N,Net-(U1-DM)*%
X100150000Y-64750000D02*
X100150000Y-65450000D01*
X100150000Y-65450000D02*
X100047500Y-65552500D01*
X100047500Y-65552500D02*
X99550000Y-65552500D01*
X98220000Y-64632500D02*
X100032500Y-64632500D01*
X97567778Y-65145738D02*
X97706762Y-65145738D01*
X105572500Y-62527500D02*
X104487500Y-62527500D01*
X97706762Y-65145738D02*
X98220000Y-64632500D01*
X105844975Y-62255025D02*
X105572500Y-62527500D01*
X100032500Y-64632500D02*
X100150000Y-64750000D01*
%TO.N,Net-(U1-DP)*%
X100550000Y-65615686D02*
X100113186Y-66052500D01*
X99550000Y-65052500D02*
X98500000Y-65052500D01*
X103700001Y-61527500D02*
X103400000Y-61827501D01*
X103067500Y-63150000D02*
X101350000Y-63150000D01*
X100550000Y-63950000D02*
X100550000Y-65615686D01*
X98250000Y-65302500D02*
X98250000Y-65852500D01*
X103400000Y-61827501D02*
X103400000Y-62817500D01*
X101350000Y-63150000D02*
X100550000Y-63950000D01*
X104487500Y-61527500D02*
X103700001Y-61527500D01*
X103400000Y-62817500D02*
X103067500Y-63150000D01*
X98250000Y-65852500D02*
X98450000Y-66052500D01*
X98450000Y-66052500D02*
X99550000Y-66052500D01*
X98500000Y-65052500D02*
X98250000Y-65302500D01*
X100113186Y-66052500D02*
X99350000Y-66052500D01*
%TO.N,Net-(J1-CC2)*%
X109348578Y-62527500D02*
X109812500Y-62527500D01*
X109326078Y-62550000D02*
X109348578Y-62527500D01*
X98300000Y-67052500D02*
X99350000Y-67052500D01*
X108550000Y-62550000D02*
X109326078Y-62550000D01*
X97545747Y-66298247D02*
X98300000Y-67052500D01*
X97545747Y-66145498D02*
X97545747Y-66298247D01*
%TO.N,Net-(U1-VBUS)*%
X109384448Y-60527500D02*
X109812500Y-60527500D01*
X109438528Y-63427500D02*
X109438528Y-63878528D01*
X108650000Y-60550000D02*
X109361948Y-60550000D01*
X109361948Y-60550000D02*
X109384448Y-60527500D01*
X109438528Y-63878528D02*
X109900000Y-64340000D01*
D28*
%TO.N,GND*%
X101715000Y-57422500D02*
X101735000Y-57402500D01*
X101715000Y-57402500D02*
X101735000Y-57402500D01*
X101952774Y-59979982D02*
X101822518Y-59979982D01*
X101715000Y-57360000D02*
X101735000Y-57340000D01*
X101822518Y-59979982D02*
X101780000Y-60022500D01*
D27*
%TO.N,Net-(JP1-B)*%
X105943077Y-61555025D02*
X106134925Y-61555025D01*
X106544975Y-61965075D02*
X106544975Y-62544975D01*
X106544975Y-62544975D02*
X104350000Y-64739950D01*
X104487500Y-60527500D02*
X104915552Y-60527500D01*
X104915552Y-60527500D02*
X105943077Y-61555025D01*
X104350000Y-64739950D02*
X104350000Y-66200000D01*
X106134925Y-61555025D02*
X106544975Y-61965075D01*
%TO.N,C1*%
X107850000Y-61150000D02*
X106973715Y-62026285D01*
X106973715Y-62026285D02*
X106973715Y-63116285D01*
X109812500Y-59527500D02*
X108682550Y-59527500D01*
X107850000Y-60360050D02*
X107850000Y-61150000D01*
X105530000Y-65880000D02*
X105850000Y-66200000D01*
X105530000Y-64560000D02*
X105530000Y-65880000D01*
X106973715Y-63116285D02*
X106150000Y-63940000D01*
X108682550Y-59527500D02*
X107850000Y-60360050D01*
X106150000Y-63940000D02*
X105530000Y-64560000D01*
%TD*%
%TA.AperFunction,Conductor*%
%TO.N,GND*%
G36*
X100239922Y-59388743D02*
G01*
X100282386Y-59432674D01*
X100301746Y-59472275D01*
X100325802Y-59521483D01*
X100408517Y-59604198D01*
X100408978Y-59604423D01*
X100409387Y-59604819D01*
X100415194Y-59608965D01*
X100414572Y-59609835D01*
X100452953Y-59646965D01*
X100464500Y-59693365D01*
X100464500Y-59814012D01*
X100483716Y-59885723D01*
X100484979Y-59890437D01*
X100510437Y-59934531D01*
X100510438Y-59934533D01*
X100524538Y-59958956D01*
X100524539Y-59958958D01*
X100615336Y-60049756D01*
X100643113Y-60104273D01*
X100633541Y-60164705D01*
X100590277Y-60207969D01*
X100559606Y-60217725D01*
X100513604Y-60224427D01*
X100408518Y-60275801D01*
X100325801Y-60358518D01*
X100274427Y-60463604D01*
X100274427Y-60463607D01*
X100264500Y-60531740D01*
X100264500Y-61623260D01*
X100267653Y-61644901D01*
X100274427Y-61691395D01*
X100317203Y-61778893D01*
X100325802Y-61796483D01*
X100408517Y-61879198D01*
X100462285Y-61905483D01*
X100513604Y-61930572D01*
X100513605Y-61930572D01*
X100513607Y-61930573D01*
X100581740Y-61940500D01*
X100581743Y-61940500D01*
X100734386Y-61940500D01*
X100792577Y-61959407D01*
X100828541Y-62008907D01*
X100828541Y-62070093D01*
X100804389Y-62109504D01*
X100497795Y-62416097D01*
X100443279Y-62443874D01*
X100402171Y-62441720D01*
X100365894Y-62432000D01*
X100365892Y-62432000D01*
X99839748Y-62432000D01*
X98748953Y-62432000D01*
X98690762Y-62413093D01*
X98654798Y-62363593D01*
X98653333Y-62358647D01*
X98616281Y-62220365D01*
X98616279Y-62220362D01*
X98616279Y-62220360D01*
X98540518Y-62089139D01*
X98540516Y-62089137D01*
X98540515Y-62089135D01*
X98433365Y-61981985D01*
X98433362Y-61981983D01*
X98433360Y-61981981D01*
X98302138Y-61906220D01*
X98302140Y-61906220D01*
X98245347Y-61891003D01*
X98155766Y-61867000D01*
X98004234Y-61867000D01*
X97914652Y-61891003D01*
X97857860Y-61906220D01*
X97726639Y-61981981D01*
X97619481Y-62089139D01*
X97543720Y-62220360D01*
X97521793Y-62302193D01*
X97506674Y-62358623D01*
X97504500Y-62366735D01*
X97504500Y-62370504D01*
X97503665Y-62373071D01*
X97503653Y-62373168D01*
X97503635Y-62373165D01*
X97485593Y-62428695D01*
X97436093Y-62464659D01*
X97392578Y-62468657D01*
X97330564Y-62460493D01*
X97330562Y-62460493D01*
X97173804Y-62481130D01*
X97173796Y-62481132D01*
X97027724Y-62541637D01*
X97027723Y-62541637D01*
X96902286Y-62637888D01*
X96902276Y-62637898D01*
X96806025Y-62763335D01*
X96806025Y-62763336D01*
X96745520Y-62909408D01*
X96745518Y-62909416D01*
X96724881Y-63066174D01*
X96724881Y-63066175D01*
X96745518Y-63222933D01*
X96745520Y-63222941D01*
X96806025Y-63369013D01*
X96806025Y-63369014D01*
X96890801Y-63479496D01*
X96902281Y-63494457D01*
X96902285Y-63494460D01*
X96902286Y-63494461D01*
X96931645Y-63516988D01*
X97027722Y-63590711D01*
X97027723Y-63590711D01*
X97027724Y-63590712D01*
X97047272Y-63598809D01*
X97139599Y-63637052D01*
X97186124Y-63676787D01*
X97200408Y-63736282D01*
X97180256Y-63788781D01*
X97135462Y-63847158D01*
X97074957Y-63993230D01*
X97074955Y-63993238D01*
X97054318Y-64149996D01*
X97054318Y-64149997D01*
X97074955Y-64306755D01*
X97074957Y-64306763D01*
X97135462Y-64452835D01*
X97135462Y-64452836D01*
X97204491Y-64542796D01*
X97224915Y-64600472D01*
X97207537Y-64659137D01*
X97186218Y-64681604D01*
X97139499Y-64717453D01*
X97139491Y-64717461D01*
X97043240Y-64842898D01*
X97043240Y-64842899D01*
X96982735Y-64988971D01*
X96982733Y-64988979D01*
X96962096Y-65145737D01*
X96962096Y-65145738D01*
X96982733Y-65302496D01*
X96982735Y-65302504D01*
X97043240Y-65448576D01*
X97043240Y-65448577D01*
X97140222Y-65574967D01*
X97160646Y-65632643D01*
X97143268Y-65691309D01*
X97121951Y-65713773D01*
X97117471Y-65717210D01*
X97117460Y-65717221D01*
X97021209Y-65842658D01*
X97021209Y-65842659D01*
X96960704Y-65988731D01*
X96960702Y-65988739D01*
X96940065Y-66145497D01*
X96940065Y-66145498D01*
X96960702Y-66302256D01*
X96960704Y-66302264D01*
X97021209Y-66448336D01*
X97021209Y-66448337D01*
X97021211Y-66448339D01*
X97117465Y-66573780D01*
X97242906Y-66670034D01*
X97251264Y-66673496D01*
X97297791Y-66713229D01*
X97312077Y-66772723D01*
X97288665Y-66829252D01*
X97273650Y-66843503D01*
X97171719Y-66921717D01*
X97171713Y-66921723D01*
X97075462Y-67047160D01*
X97075462Y-67047161D01*
X97014957Y-67193233D01*
X97014955Y-67193241D01*
X96994318Y-67349999D01*
X96994318Y-67350000D01*
X97014955Y-67506758D01*
X97014957Y-67506766D01*
X97075462Y-67652838D01*
X97075462Y-67652839D01*
X97171713Y-67778276D01*
X97171718Y-67778282D01*
X97297159Y-67874536D01*
X97297160Y-67874536D01*
X97297161Y-67874537D01*
X97443233Y-67935042D01*
X97443238Y-67935044D01*
X97445274Y-67935312D01*
X97446600Y-67935944D01*
X97449506Y-67936723D01*
X97449361Y-67937261D01*
X97500499Y-67961648D01*
X97529698Y-68015417D01*
X97527984Y-68059087D01*
X97513246Y-68114092D01*
X97504500Y-68146734D01*
X97504500Y-68298266D01*
X97539086Y-68427347D01*
X97543720Y-68444639D01*
X97619481Y-68575860D01*
X97619483Y-68575862D01*
X97619485Y-68575865D01*
X97726635Y-68683015D01*
X97726637Y-68683016D01*
X97726639Y-68683018D01*
X97857861Y-68758779D01*
X97857859Y-68758779D01*
X97857863Y-68758780D01*
X97857865Y-68758781D01*
X98004234Y-68798000D01*
X98004236Y-68798000D01*
X98155764Y-68798000D01*
X98155766Y-68798000D01*
X98302135Y-68758781D01*
X98302137Y-68758779D01*
X98302139Y-68758779D01*
X98433360Y-68683018D01*
X98433360Y-68683017D01*
X98433365Y-68683015D01*
X98540515Y-68575865D01*
X98540518Y-68575860D01*
X98616279Y-68444639D01*
X98616279Y-68444637D01*
X98616281Y-68444635D01*
X98653327Y-68306375D01*
X98686650Y-68255063D01*
X98743771Y-68233136D01*
X98748953Y-68233000D01*
X99134108Y-68233000D01*
X99932228Y-68233000D01*
X99990419Y-68251907D01*
X99992494Y-68253457D01*
X99997157Y-68257035D01*
X99997161Y-68257037D01*
X100143233Y-68317542D01*
X100143238Y-68317544D01*
X100260809Y-68333022D01*
X100299999Y-68338182D01*
X100300000Y-68338182D01*
X100300001Y-68338182D01*
X100331352Y-68334054D01*
X100456762Y-68317544D01*
X100602841Y-68257036D01*
X100728282Y-68160782D01*
X100824536Y-68035341D01*
X100885044Y-67889262D01*
X100905682Y-67732500D01*
X100885044Y-67575738D01*
X100824537Y-67429661D01*
X100824537Y-67429660D01*
X100728286Y-67304223D01*
X100728285Y-67304222D01*
X100728282Y-67304218D01*
X100728277Y-67304214D01*
X100728276Y-67304213D01*
X100603203Y-67208242D01*
X100602841Y-67207964D01*
X100602840Y-67207963D01*
X100602838Y-67207962D01*
X100456766Y-67147457D01*
X100456758Y-67147455D01*
X100300001Y-67126818D01*
X100299999Y-67126818D01*
X100200348Y-67139937D01*
X100143238Y-67147456D01*
X100143237Y-67147456D01*
X100136805Y-67148303D01*
X100136568Y-67146504D01*
X100084013Y-67143745D01*
X100036467Y-67105236D01*
X100020500Y-67051324D01*
X100020500Y-66912753D01*
X100020498Y-66912741D01*
X100008379Y-66851815D01*
X100008379Y-66813185D01*
X100020498Y-66752258D01*
X100020500Y-66752246D01*
X100020500Y-66452000D01*
X100039407Y-66393809D01*
X100088907Y-66357845D01*
X100119500Y-66353000D01*
X100152749Y-66353000D01*
X100152749Y-66352999D01*
X100229175Y-66332521D01*
X100297697Y-66292960D01*
X100325671Y-66264985D01*
X100353647Y-66237011D01*
X100601926Y-65988731D01*
X100790460Y-65800197D01*
X100829833Y-65732000D01*
X100830021Y-65731675D01*
X100850500Y-65655248D01*
X100850500Y-64115479D01*
X100869407Y-64057288D01*
X100879496Y-64045475D01*
X101445475Y-63479496D01*
X101499992Y-63451719D01*
X101515479Y-63450500D01*
X103107063Y-63450500D01*
X103107063Y-63450499D01*
X103183489Y-63430021D01*
X103252011Y-63390460D01*
X103290471Y-63352000D01*
X103307961Y-63334511D01*
X103524223Y-63118248D01*
X103615202Y-63027268D01*
X103669717Y-62999492D01*
X103728682Y-63008332D01*
X103748607Y-63018073D01*
X103816740Y-63028000D01*
X103816743Y-63028000D01*
X105158257Y-63028000D01*
X105158260Y-63028000D01*
X105226393Y-63018073D01*
X105331483Y-62966698D01*
X105414198Y-62883983D01*
X105414423Y-62883521D01*
X105414819Y-62883112D01*
X105418965Y-62877306D01*
X105419835Y-62877927D01*
X105456965Y-62839547D01*
X105503365Y-62828000D01*
X105597970Y-62828000D01*
X105656161Y-62846907D01*
X105692125Y-62896407D01*
X105692125Y-62957593D01*
X105667974Y-62997004D01*
X104204475Y-64460504D01*
X104149958Y-64488281D01*
X104134471Y-64489500D01*
X103825684Y-64489500D01*
X103809398Y-64491644D01*
X103776825Y-64495932D01*
X103776824Y-64495932D01*
X103669598Y-64545933D01*
X103585933Y-64629598D01*
X103535932Y-64736824D01*
X103535932Y-64736825D01*
X103535932Y-64736827D01*
X103529500Y-64785684D01*
X103529500Y-65134316D01*
X103529831Y-65136827D01*
X103535932Y-65183174D01*
X103535932Y-65183175D01*
X103585933Y-65290401D01*
X103585934Y-65290402D01*
X103585935Y-65290404D01*
X103669596Y-65374065D01*
X103776827Y-65424068D01*
X103812453Y-65428758D01*
X103867678Y-65455099D01*
X103896873Y-65508870D01*
X103888887Y-65569532D01*
X103869535Y-65596914D01*
X103694259Y-65772190D01*
X103661132Y-65821769D01*
X103649500Y-65880249D01*
X103649500Y-66719746D01*
X103649501Y-66719758D01*
X103658492Y-66764956D01*
X103661133Y-66778231D01*
X103662522Y-66780310D01*
X103672337Y-66794999D01*
X103688945Y-66853887D01*
X103672337Y-66905001D01*
X103661134Y-66921767D01*
X103661132Y-66921772D01*
X103649501Y-66980241D01*
X103649499Y-66980253D01*
X103649499Y-67819754D01*
X103661132Y-67878230D01*
X103661132Y-67878231D01*
X103694254Y-67927803D01*
X103694256Y-67927805D01*
X103694259Y-67927809D01*
X103922190Y-68155740D01*
X103922193Y-68155742D01*
X103971769Y-68188867D01*
X103971768Y-68188867D01*
X103991085Y-68192709D01*
X104030252Y-68200500D01*
X104669751Y-68200501D01*
X104728232Y-68188867D01*
X104777809Y-68155741D01*
X105005740Y-67927810D01*
X105017683Y-67909935D01*
X105065729Y-67872056D01*
X105126867Y-67869651D01*
X105177743Y-67903641D01*
X105182314Y-67909933D01*
X105194255Y-67927804D01*
X105194256Y-67927805D01*
X105194259Y-67927809D01*
X105422190Y-68155740D01*
X105422193Y-68155742D01*
X105471769Y-68188867D01*
X105471768Y-68188867D01*
X105491085Y-68192709D01*
X105530252Y-68200500D01*
X106084521Y-68200500D01*
X106142712Y-68219407D01*
X106154525Y-68229496D01*
X106808675Y-68883646D01*
X106808674Y-68883646D01*
X106864624Y-68939595D01*
X106933142Y-68979154D01*
X106933146Y-68979156D01*
X107009570Y-68999634D01*
X107009572Y-68999635D01*
X107009573Y-68999635D01*
X108373055Y-68999635D01*
X108431246Y-69018542D01*
X108451597Y-69038368D01*
X108511803Y-69116830D01*
X108519927Y-69127417D01*
X108519931Y-69127420D01*
X108519932Y-69127421D01*
X108608976Y-69195747D01*
X108643632Y-69246172D01*
X108647709Y-69274289D01*
X108647709Y-69522773D01*
X108668187Y-69599197D01*
X108668188Y-69599198D01*
X108694644Y-69645021D01*
X108707749Y-69667720D01*
X109250505Y-70210476D01*
X109278281Y-70264991D01*
X109279500Y-70280478D01*
X109279500Y-70515528D01*
X109289355Y-70583170D01*
X109340364Y-70687511D01*
X109422489Y-70769636D01*
X109526830Y-70820645D01*
X109594472Y-70830500D01*
X109594475Y-70830500D01*
X110005524Y-70830500D01*
X110005528Y-70830500D01*
X110073170Y-70820645D01*
X110177511Y-70769636D01*
X110259636Y-70687511D01*
X110310645Y-70583170D01*
X110320500Y-70515528D01*
X110320500Y-70154472D01*
X110310645Y-70086830D01*
X110259636Y-69982489D01*
X110197148Y-69920001D01*
X110169373Y-69865487D01*
X110178944Y-69805055D01*
X110197147Y-69779999D01*
X110259636Y-69717511D01*
X110310645Y-69613170D01*
X110320500Y-69545528D01*
X110320500Y-69184472D01*
X110310645Y-69116830D01*
X110259636Y-69012489D01*
X110177511Y-68930364D01*
X110177509Y-68930363D01*
X110177508Y-68930362D01*
X110177505Y-68930360D01*
X110156019Y-68919856D01*
X110112045Y-68877313D01*
X110100500Y-68830916D01*
X110100500Y-68575154D01*
X110119407Y-68516963D01*
X110139233Y-68496612D01*
X110206970Y-68444635D01*
X110228282Y-68428282D01*
X110324536Y-68302841D01*
X110385044Y-68156762D01*
X110405682Y-68000000D01*
X110385044Y-67843238D01*
X110324537Y-67697161D01*
X110324537Y-67697160D01*
X110228286Y-67571723D01*
X110228285Y-67571722D01*
X110228282Y-67571718D01*
X110228277Y-67571714D01*
X110228276Y-67571713D01*
X110102838Y-67475462D01*
X109956766Y-67414957D01*
X109956758Y-67414955D01*
X109800001Y-67394318D01*
X109799999Y-67394318D01*
X109643241Y-67414955D01*
X109643233Y-67414957D01*
X109497161Y-67475462D01*
X109497160Y-67475462D01*
X109371723Y-67571713D01*
X109371713Y-67571723D01*
X109275462Y-67697160D01*
X109275462Y-67697161D01*
X109214957Y-67843233D01*
X109214955Y-67843241D01*
X109194318Y-67999999D01*
X109194318Y-68000008D01*
X109194339Y-68000168D01*
X109194318Y-68000281D01*
X109194318Y-68006489D01*
X109193167Y-68006489D01*
X109183183Y-68060328D01*
X109138796Y-68102441D01*
X109083263Y-68111233D01*
X108948210Y-68093453D01*
X108948208Y-68093453D01*
X108791450Y-68114090D01*
X108791442Y-68114092D01*
X108645370Y-68174597D01*
X108645369Y-68174597D01*
X108519932Y-68270848D01*
X108519922Y-68270858D01*
X108451597Y-68359902D01*
X108401172Y-68394558D01*
X108373055Y-68398635D01*
X107214614Y-68398635D01*
X107156423Y-68379728D01*
X107144610Y-68369639D01*
X106579496Y-67804525D01*
X106551719Y-67750008D01*
X106550500Y-67734521D01*
X106550500Y-66980253D01*
X106550498Y-66980241D01*
X106547711Y-66966231D01*
X106538867Y-66921769D01*
X106527663Y-66905001D01*
X106511054Y-66846115D01*
X106527664Y-66794997D01*
X106538867Y-66778231D01*
X106550500Y-66719748D01*
X106550501Y-65880249D01*
X106538867Y-65821768D01*
X106506994Y-65774066D01*
X106505745Y-65772196D01*
X106505743Y-65772194D01*
X106505741Y-65772191D01*
X106277810Y-65544260D01*
X106277806Y-65544257D01*
X106228230Y-65511132D01*
X106228231Y-65511132D01*
X106169750Y-65499500D01*
X106169746Y-65499499D01*
X105929500Y-65499499D01*
X105871309Y-65480591D01*
X105835345Y-65431091D01*
X105830500Y-65400499D01*
X105830500Y-64725479D01*
X105849407Y-64667288D01*
X105859496Y-64655475D01*
X106075475Y-64439496D01*
X106129992Y-64411719D01*
X106145479Y-64410500D01*
X106374314Y-64410500D01*
X106374316Y-64410500D01*
X106423173Y-64404068D01*
X106530404Y-64354065D01*
X106614065Y-64270404D01*
X106664068Y-64163173D01*
X106670500Y-64114316D01*
X106670500Y-63885478D01*
X106689407Y-63827287D01*
X106699496Y-63815475D01*
X106735369Y-63779602D01*
X106790136Y-63724834D01*
X106844650Y-63697058D01*
X106905083Y-63706629D01*
X106948347Y-63749893D01*
X106957919Y-63810325D01*
X106942456Y-63849837D01*
X106926133Y-63874268D01*
X106926132Y-63874268D01*
X106914500Y-63932749D01*
X106914500Y-66672256D01*
X106926131Y-66730731D01*
X106926131Y-66730732D01*
X106959259Y-66780310D01*
X107387190Y-67208240D01*
X107436769Y-67241367D01*
X107436768Y-67241367D01*
X107456085Y-67245209D01*
X107495252Y-67253000D01*
X107495253Y-67253000D01*
X108734750Y-67253000D01*
X108734752Y-67253000D01*
X108793232Y-67241368D01*
X108842808Y-67208242D01*
X109270740Y-66780310D01*
X109303867Y-66730731D01*
X109315500Y-66672248D01*
X109315500Y-65808976D01*
X109334407Y-65750785D01*
X109383907Y-65714821D01*
X109445093Y-65714821D01*
X109484501Y-65738970D01*
X109519596Y-65774065D01*
X109519597Y-65774065D01*
X109519598Y-65774066D01*
X109626824Y-65824067D01*
X109626825Y-65824067D01*
X109626827Y-65824068D01*
X109675684Y-65830500D01*
X109675685Y-65830500D01*
X110124314Y-65830500D01*
X110124316Y-65830500D01*
X110173173Y-65824068D01*
X110280404Y-65774065D01*
X110364065Y-65690404D01*
X110414068Y-65583173D01*
X110420500Y-65534316D01*
X110420500Y-65185684D01*
X110414068Y-65136827D01*
X110412896Y-65134314D01*
X110364066Y-65029598D01*
X110364065Y-65029597D01*
X110364065Y-65029596D01*
X110280404Y-64945935D01*
X110267085Y-64939724D01*
X110222337Y-64897997D01*
X110210662Y-64837936D01*
X110236519Y-64782483D01*
X110267084Y-64760275D01*
X110280404Y-64754065D01*
X110364065Y-64670404D01*
X110414068Y-64563173D01*
X110420500Y-64514316D01*
X110420500Y-64165684D01*
X110414068Y-64116827D01*
X110413439Y-64115479D01*
X110364066Y-64009598D01*
X110364065Y-64009597D01*
X110364065Y-64009596D01*
X110280404Y-63925935D01*
X110280402Y-63925934D01*
X110280401Y-63925933D01*
X110173175Y-63875932D01*
X110140601Y-63871644D01*
X110124316Y-63869500D01*
X110124315Y-63869500D01*
X110053587Y-63869500D01*
X109995396Y-63850593D01*
X109959432Y-63801093D01*
X109959432Y-63739907D01*
X109962123Y-63732615D01*
X110020900Y-63590712D01*
X110023572Y-63584262D01*
X110044210Y-63427500D01*
X110036510Y-63369016D01*
X110023572Y-63270739D01*
X110023570Y-63270732D01*
X109979727Y-63164885D01*
X109974926Y-63103889D01*
X110006896Y-63051720D01*
X110063424Y-63028305D01*
X110071191Y-63028000D01*
X110483256Y-63028000D01*
X110483260Y-63028000D01*
X110536228Y-63020282D01*
X110596535Y-63030602D01*
X110639260Y-63074399D01*
X110649500Y-63118248D01*
X110649500Y-70694436D01*
X110648877Y-70705521D01*
X110636970Y-70811194D01*
X110632037Y-70832807D01*
X110598766Y-70927888D01*
X110589148Y-70947861D01*
X110535551Y-71033161D01*
X110521729Y-71050494D01*
X110450494Y-71121729D01*
X110433161Y-71135551D01*
X110347861Y-71189148D01*
X110327888Y-71198766D01*
X110232807Y-71232037D01*
X110211193Y-71236971D01*
X110105541Y-71248875D01*
X110094424Y-71249497D01*
X103030192Y-71247111D01*
X103030175Y-71247109D01*
X102988727Y-71247097D01*
X102979777Y-71246689D01*
X102894223Y-71238896D01*
X102876613Y-71235666D01*
X102798207Y-71213803D01*
X102781464Y-71207453D01*
X102708274Y-71171822D01*
X102692952Y-71162563D01*
X102623954Y-71111817D01*
X102616980Y-71106183D01*
X102015318Y-70573432D01*
X102015288Y-70573381D01*
X102015276Y-70573395D01*
X102015275Y-70573394D01*
X101979182Y-70541397D01*
X101979180Y-70541395D01*
X101979177Y-70541393D01*
X101979175Y-70541392D01*
X101863704Y-70465777D01*
X101863698Y-70465773D01*
X101863694Y-70465771D01*
X101863689Y-70465768D01*
X101863686Y-70465767D01*
X101816124Y-70443678D01*
X101738492Y-70407623D01*
X101658160Y-70383666D01*
X101606207Y-70368173D01*
X101606198Y-70368171D01*
X101469605Y-70348246D01*
X101469603Y-70348246D01*
X101423587Y-70348278D01*
X101400579Y-70348294D01*
X101400524Y-70348294D01*
X101399216Y-70348294D01*
X101360698Y-70348299D01*
X101360697Y-70348299D01*
X101354631Y-70348300D01*
X101354625Y-70348300D01*
X93605568Y-70349498D01*
X93594469Y-70348876D01*
X93488806Y-70336971D01*
X93467192Y-70332037D01*
X93372111Y-70298766D01*
X93352138Y-70289148D01*
X93266838Y-70235551D01*
X93249505Y-70221729D01*
X93178270Y-70150494D01*
X93164448Y-70133161D01*
X93110851Y-70047861D01*
X93101233Y-70027888D01*
X93067962Y-69932807D01*
X93063028Y-69911193D01*
X93059869Y-69883158D01*
X93051122Y-69805520D01*
X93050500Y-69794436D01*
X93050500Y-60855563D01*
X93051122Y-60844479D01*
X93063028Y-60738801D01*
X93067960Y-60717197D01*
X93101234Y-60622108D01*
X93110851Y-60602138D01*
X93155085Y-60531740D01*
X93164451Y-60516833D01*
X93178266Y-60499509D01*
X93249509Y-60428266D01*
X93266833Y-60414451D01*
X93352140Y-60360849D01*
X93372108Y-60351234D01*
X93467197Y-60317960D01*
X93488801Y-60313028D01*
X93594480Y-60301122D01*
X93605564Y-60300500D01*
X99233157Y-60300500D01*
X99233158Y-60300500D01*
X99396947Y-60271620D01*
X99553233Y-60214736D01*
X99553237Y-60214733D01*
X99553241Y-60214732D01*
X99639889Y-60164705D01*
X99697267Y-60131578D01*
X99824673Y-60024673D01*
X99931578Y-59897267D01*
X99979645Y-59814012D01*
X100014732Y-59753241D01*
X100014733Y-59753237D01*
X100014736Y-59753233D01*
X100071620Y-59596947D01*
X100095950Y-59458961D01*
X100124673Y-59404941D01*
X100179666Y-59378119D01*
X100239922Y-59388743D01*
G37*
%TD.AperFunction*%
%TA.AperFunction,Conductor*%
G36*
X102185139Y-56969407D02*
G01*
X102221103Y-57018907D01*
X102221929Y-57072993D01*
X102222017Y-57073005D01*
X102221938Y-57073597D01*
X102221994Y-57077200D01*
X102221028Y-57080512D01*
X102214500Y-57130100D01*
X102214500Y-58083731D01*
X102204441Y-58127211D01*
X102174427Y-58188604D01*
X102170657Y-58214484D01*
X102164500Y-58256740D01*
X102164500Y-59348260D01*
X102170398Y-59388743D01*
X102174427Y-59416395D01*
X102225801Y-59521481D01*
X102225802Y-59521483D01*
X102308517Y-59604198D01*
X102362285Y-59630483D01*
X102413604Y-59655572D01*
X102413605Y-59655572D01*
X102413607Y-59655573D01*
X102481740Y-59665500D01*
X102481745Y-59665500D01*
X102485315Y-59665759D01*
X102485206Y-59667253D01*
X102538001Y-59684407D01*
X102573965Y-59733907D01*
X102573965Y-59795093D01*
X102549814Y-59834503D01*
X102384532Y-59999785D01*
X102384530Y-59999787D01*
X102384530Y-59999788D01*
X102338386Y-60079712D01*
X102315613Y-60164705D01*
X102314500Y-60168857D01*
X102314500Y-60228812D01*
X102295593Y-60287003D01*
X102285509Y-60298809D01*
X102240079Y-60344240D01*
X102225801Y-60358518D01*
X102174427Y-60463604D01*
X102174427Y-60463607D01*
X102164500Y-60531740D01*
X102164500Y-61623260D01*
X102167653Y-61644901D01*
X102174427Y-61691395D01*
X102209748Y-61763644D01*
X102225802Y-61796483D01*
X102225807Y-61796488D01*
X102226070Y-61796857D01*
X102226231Y-61797362D01*
X102229405Y-61803853D01*
X102228459Y-61804315D01*
X102244500Y-61854386D01*
X102244500Y-62208228D01*
X102235224Y-62250067D01*
X102221029Y-62280506D01*
X102221028Y-62280509D01*
X102214500Y-62330100D01*
X102214501Y-62750500D01*
X102195594Y-62808691D01*
X102146094Y-62844655D01*
X102115501Y-62849500D01*
X101310435Y-62849500D01*
X101234012Y-62869978D01*
X101181166Y-62900489D01*
X101181165Y-62900488D01*
X101165487Y-62909540D01*
X101164454Y-62910574D01*
X101163521Y-62911048D01*
X101160339Y-62913491D01*
X101159886Y-62912900D01*
X101109935Y-62938347D01*
X101049504Y-62928770D01*
X101006243Y-62885501D01*
X101003006Y-62878479D01*
X100993860Y-62856400D01*
X100989060Y-62795408D01*
X101015319Y-62748516D01*
X101640460Y-62123377D01*
X101654245Y-62099500D01*
X101680021Y-62054855D01*
X101700500Y-61978428D01*
X101700500Y-60369886D01*
X101687264Y-60320488D01*
X101687264Y-60320487D01*
X101687264Y-60320486D01*
X101680022Y-60293460D01*
X101680020Y-60293456D01*
X101640463Y-60224941D01*
X101640462Y-60224940D01*
X101640461Y-60224939D01*
X101640460Y-60224937D01*
X101140605Y-59725082D01*
X101112828Y-59670565D01*
X101122399Y-59610133D01*
X101140603Y-59585077D01*
X101204198Y-59521483D01*
X101255573Y-59416393D01*
X101265500Y-59348260D01*
X101265500Y-58298171D01*
X101284407Y-58239980D01*
X101304231Y-58219630D01*
X101328616Y-58200920D01*
X101424870Y-58075479D01*
X101485378Y-57929400D01*
X101506016Y-57772638D01*
X101505748Y-57770606D01*
X101491715Y-57664011D01*
X101485378Y-57615876D01*
X101424871Y-57469799D01*
X101424871Y-57469798D01*
X101328620Y-57344361D01*
X101328619Y-57344360D01*
X101328616Y-57344356D01*
X101328611Y-57344352D01*
X101328610Y-57344351D01*
X101240331Y-57276613D01*
X101203175Y-57248102D01*
X101203174Y-57248101D01*
X101203172Y-57248100D01*
X101057100Y-57187595D01*
X101057092Y-57187593D01*
X100900335Y-57166956D01*
X100900333Y-57166956D01*
X100743575Y-57187593D01*
X100743567Y-57187595D01*
X100597495Y-57248100D01*
X100597494Y-57248100D01*
X100472057Y-57344351D01*
X100472047Y-57344361D01*
X100375796Y-57469798D01*
X100375796Y-57469799D01*
X100315291Y-57615871D01*
X100315289Y-57615879D01*
X100297653Y-57749842D01*
X100287748Y-57770606D01*
X100297653Y-57795433D01*
X100315289Y-57929399D01*
X100315290Y-57929400D01*
X100338537Y-57985524D01*
X100343337Y-58046521D01*
X100327648Y-58080929D01*
X100325806Y-58083508D01*
X100288441Y-58159941D01*
X100245897Y-58203915D01*
X100185632Y-58214484D01*
X100130663Y-58187611D01*
X100101988Y-58133562D01*
X100100500Y-58116460D01*
X100100500Y-57808355D01*
X100110682Y-57777015D01*
X100100500Y-57736920D01*
X100100500Y-57505563D01*
X100101122Y-57494479D01*
X100104929Y-57460688D01*
X100113028Y-57388801D01*
X100117960Y-57367197D01*
X100151234Y-57272108D01*
X100160851Y-57252138D01*
X100163387Y-57248102D01*
X100214451Y-57166833D01*
X100228266Y-57149509D01*
X100299509Y-57078266D01*
X100316833Y-57064451D01*
X100402140Y-57010849D01*
X100422108Y-57001234D01*
X100517197Y-56967960D01*
X100538801Y-56963028D01*
X100644480Y-56951122D01*
X100655564Y-56950500D01*
X100689882Y-56950500D01*
X102126948Y-56950500D01*
X102185139Y-56969407D01*
G37*
%TD.AperFunction*%
%TA.AperFunction,Conductor*%
G36*
X108817517Y-57636519D02*
G01*
X108839724Y-57667084D01*
X108845935Y-57680404D01*
X108929596Y-57764065D01*
X108929597Y-57764065D01*
X108929598Y-57764066D01*
X109036824Y-57814067D01*
X109036825Y-57814067D01*
X109036827Y-57814068D01*
X109085684Y-57820500D01*
X109387021Y-57820500D01*
X109445212Y-57839407D01*
X109457025Y-57849496D01*
X109465525Y-57857996D01*
X109493302Y-57912513D01*
X109483731Y-57972945D01*
X109440466Y-58016210D01*
X109395521Y-58027000D01*
X109141740Y-58027000D01*
X109114932Y-58030906D01*
X109073604Y-58036927D01*
X108968518Y-58088301D01*
X108885801Y-58171018D01*
X108834427Y-58276104D01*
X108834427Y-58276107D01*
X108824500Y-58344240D01*
X108824500Y-58710760D01*
X108831118Y-58756182D01*
X108834427Y-58778895D01*
X108885801Y-58883981D01*
X108885802Y-58883983D01*
X108959317Y-58957498D01*
X108987093Y-59012013D01*
X108977522Y-59072445D01*
X108959318Y-59097500D01*
X108885802Y-59171017D01*
X108885801Y-59171018D01*
X108885577Y-59171478D01*
X108885180Y-59171887D01*
X108881035Y-59177694D01*
X108880164Y-59177072D01*
X108843035Y-59215453D01*
X108796635Y-59227000D01*
X108722112Y-59227000D01*
X108642988Y-59227000D01*
X108596211Y-59239533D01*
X108566557Y-59247479D01*
X108498043Y-59287036D01*
X107665489Y-60119590D01*
X107665488Y-60119589D01*
X107609539Y-60175539D01*
X107569980Y-60244057D01*
X107569978Y-60244061D01*
X107549500Y-60320485D01*
X107549500Y-60984521D01*
X107530593Y-61042712D01*
X107520504Y-61054525D01*
X106859953Y-61715075D01*
X106805436Y-61742852D01*
X106745004Y-61733281D01*
X106719948Y-61715077D01*
X106319436Y-61314565D01*
X106314200Y-61311542D01*
X106280371Y-61292010D01*
X106280371Y-61292011D01*
X106250914Y-61275004D01*
X106250913Y-61275003D01*
X106250912Y-61275003D01*
X106174489Y-61254525D01*
X106174487Y-61254525D01*
X106108556Y-61254525D01*
X106050365Y-61235618D01*
X106038552Y-61225529D01*
X105504496Y-60691473D01*
X105476719Y-60636956D01*
X105475500Y-60621469D01*
X105475500Y-60344243D01*
X105472039Y-60320486D01*
X105465573Y-60276107D01*
X105465423Y-60275801D01*
X105435455Y-60214500D01*
X105414198Y-60171017D01*
X105340682Y-60097501D01*
X105312907Y-60042987D01*
X105322478Y-59982555D01*
X105340681Y-59957499D01*
X105414198Y-59883983D01*
X105465573Y-59778893D01*
X105475500Y-59710760D01*
X105475500Y-59344240D01*
X105465573Y-59276107D01*
X105414198Y-59171017D01*
X105340682Y-59097501D01*
X105312907Y-59042987D01*
X105322478Y-58982555D01*
X105340681Y-58957499D01*
X105414198Y-58883983D01*
X105465573Y-58778893D01*
X105475500Y-58710760D01*
X105475500Y-58344240D01*
X105465573Y-58276107D01*
X105464805Y-58274537D01*
X105437962Y-58219628D01*
X105414198Y-58171017D01*
X105411577Y-58168396D01*
X105409711Y-58164734D01*
X105409431Y-58164341D01*
X105409489Y-58164298D01*
X105383802Y-58113882D01*
X105393373Y-58053450D01*
X105411580Y-58028391D01*
X105587976Y-57851996D01*
X105642492Y-57824219D01*
X105657979Y-57823000D01*
X105717105Y-57823000D01*
X105775296Y-57841907D01*
X105811260Y-57891407D01*
X105813544Y-57901506D01*
X105814953Y-57906762D01*
X105875459Y-58052838D01*
X105875459Y-58052839D01*
X105970402Y-58176571D01*
X105971715Y-58178282D01*
X106097156Y-58274536D01*
X106097157Y-58274536D01*
X106097158Y-58274537D01*
X106154216Y-58298171D01*
X106243235Y-58335044D01*
X106360806Y-58350522D01*
X106399996Y-58355682D01*
X106399997Y-58355682D01*
X106399998Y-58355682D01*
X106431349Y-58351554D01*
X106556759Y-58335044D01*
X106702838Y-58274536D01*
X106828279Y-58178282D01*
X106828284Y-58178276D01*
X106829989Y-58176571D01*
X106831537Y-58175781D01*
X106833427Y-58174332D01*
X106833695Y-58174682D01*
X106884503Y-58148789D01*
X106944936Y-58158356D01*
X106970002Y-58176565D01*
X106971713Y-58178276D01*
X106971718Y-58178282D01*
X107097159Y-58274536D01*
X107097160Y-58274536D01*
X107097161Y-58274537D01*
X107154219Y-58298171D01*
X107243238Y-58335044D01*
X107360809Y-58350522D01*
X107399999Y-58355682D01*
X107400000Y-58355682D01*
X107400001Y-58355682D01*
X107431352Y-58351554D01*
X107556762Y-58335044D01*
X107702841Y-58274536D01*
X107828282Y-58178282D01*
X107924536Y-58052841D01*
X107929927Y-58039824D01*
X107969659Y-57993299D01*
X107971821Y-57992012D01*
X107974511Y-57990460D01*
X108030460Y-57934511D01*
X108115475Y-57849496D01*
X108169992Y-57821719D01*
X108185479Y-57820500D01*
X108414314Y-57820500D01*
X108414316Y-57820500D01*
X108463173Y-57814068D01*
X108570404Y-57764065D01*
X108654065Y-57680404D01*
X108660275Y-57667085D01*
X108702003Y-57622337D01*
X108762064Y-57610662D01*
X108817517Y-57636519D01*
G37*
%TD.AperFunction*%
%TD*%
M02*
