M48
; DRILL file {KiCad 8.0.6-8.0.6-0~ubuntu24.04.1} date 2024-11-20T23:40:05+0100
; FORMAT={-:-/ absolute / inch / decimal}
; #@! TF.CreationDate,2024-11-20T23:40:05+01:00
; #@! TF.GenerationSoftware,Kicad,Pcbnew,8.0.6-8.0.6-0~ubuntu24.04.1
; #@! TF.FileFunction,Plated,1,2,PTH
FMAT,2
INCH
; #@! TA.AperFunction,Plated,PTH,ViaDrill
T1C0.0157
; #@! TA.AperFunction,Plated,PTH,ComponentDrill
T2C0.0236
; #@! TA.AperFunction,Plated,PTH,ComponentDrill
T3C0.0394
%
G90
G05
T1
X3.8319Y-2.4829
X3.8404Y-2.6042
X3.8413Y-2.5648
X3.8425Y-2.6516
X3.8449Y-2.5256
X3.9488Y-2.6666
X3.9539Y-2.4827
X3.9725Y-2.2745
X4.0139Y-2.3614
X4.0705Y-2.2749
X4.1671Y-2.451
X4.189Y-2.2736
X4.2185Y-2.383
X4.2283Y-2.2736
X4.2714Y-2.4228
X4.2736Y-2.4626
X4.2776Y-2.3839
X4.2893Y-2.7047
X4.3086Y-2.4971
X4.3228Y-2.6772
T2
G00X3.7323Y-2.4021
M15
G01X3.7008Y-2.4021
M16
G05
G00X3.7323Y-2.7422
M15
G01X3.7008Y-2.7422
M16
G05
G00X3.9035Y-2.4021
M15
G01X3.8602Y-2.4021
M16
G05
G00X3.9035Y-2.7422
M15
G01X3.8602Y-2.7422
M16
G05
T3
G00X4.0203Y-2.5316
M15
G01X4.0203Y-2.6103
M16
G05
G00X4.099Y-2.756
M15
G01X4.1778Y-2.756
M16
G05
G00X4.2565Y-2.5316
M15
G01X4.2565Y-2.6103
M16
G05
M30
