%TF.GenerationSoftware,KiCad,Pcbnew,8.0.6-8.0.6-0~ubuntu24.04.1*%
%TF.CreationDate,2024-11-20T23:40:05+01:00*%
%TF.ProjectId,lumen_PD,6c756d65-6e5f-4504-942e-6b696361645f,rev?*%
%TF.SameCoordinates,Original*%
%TF.FileFunction,Drillmap*%
%TF.FilePolarity,Positive*%
%FSLAX45Y45*%
G04 Gerber Fmt 4.5, Leading zero omitted, Abs format (unit mm)*
G04 Created by KiCad (PCBNEW 8.0.6-8.0.6-0~ubuntu24.04.1) date 2024-11-20 23:40:05*
%MOMM*%
%LPD*%
G01*
G04 APERTURE LIST*
%ADD10C,0.050000*%
%ADD11C,0.200000*%
%ADD12C,0.100000*%
G04 APERTURE END LIST*
D10*
X10298418Y-7144760D02*
X11010000Y-7145000D01*
X11010000Y-5675000D02*
G75*
G02*
X11085000Y-5750000I0J-75000D01*
G01*
X11085000Y-7070000D02*
G75*
G02*
X11010000Y-7145000I-75000J0D01*
G01*
X9990000Y-5935000D02*
G75*
G02*
X9915000Y-6010000I-75000J0D01*
G01*
X10189792Y-7073728D02*
X10248724Y-7125911D01*
X10298418Y-7144760D02*
G75*
G02*
X10248722Y-7125912I22J75000D01*
G01*
X9915000Y-6010000D02*
X9360000Y-6010000D01*
X9285000Y-6085000D02*
G75*
G02*
X9360000Y-6010000I75000J0D01*
G01*
X11010000Y-5675000D02*
X10065000Y-5675000D01*
X10140061Y-7054879D02*
G75*
G02*
X10189791Y-7073729I10J-75001D01*
G01*
X11085000Y-7070000D02*
X11085000Y-5750000D01*
X9360000Y-7055000D02*
G75*
G02*
X9285000Y-6980000I0J75000D01*
G01*
X9990000Y-5750000D02*
X9990000Y-5935000D01*
X9360000Y-7055000D02*
X10140061Y-7054879D01*
X9285000Y-6085000D02*
X9285000Y-6980000D01*
X9990000Y-5750000D02*
G75*
G02*
X10065000Y-5675000I75000J0D01*
G01*
D11*
D12*
X9775500Y-6211750D02*
X9840500Y-6276750D01*
X9840500Y-6211750D02*
X9775500Y-6276750D01*
X9775500Y-6789750D02*
X9840500Y-6854750D01*
X9840500Y-6789750D02*
X9775500Y-6854750D01*
D11*
X9543277Y-7458984D02*
X9543277Y-7258984D01*
X9543277Y-7258984D02*
X9590896Y-7258984D01*
X9590896Y-7258984D02*
X9619467Y-7268508D01*
X9619467Y-7268508D02*
X9638515Y-7287555D01*
X9638515Y-7287555D02*
X9648039Y-7306603D01*
X9648039Y-7306603D02*
X9657563Y-7344698D01*
X9657563Y-7344698D02*
X9657563Y-7373269D01*
X9657563Y-7373269D02*
X9648039Y-7411365D01*
X9648039Y-7411365D02*
X9638515Y-7430412D01*
X9638515Y-7430412D02*
X9619467Y-7449460D01*
X9619467Y-7449460D02*
X9590896Y-7458984D01*
X9590896Y-7458984D02*
X9543277Y-7458984D01*
X9743277Y-7458984D02*
X9743277Y-7325650D01*
X9743277Y-7363746D02*
X9752801Y-7344698D01*
X9752801Y-7344698D02*
X9762324Y-7335174D01*
X9762324Y-7335174D02*
X9781372Y-7325650D01*
X9781372Y-7325650D02*
X9800420Y-7325650D01*
X9867086Y-7458984D02*
X9867086Y-7325650D01*
X9867086Y-7258984D02*
X9857563Y-7268508D01*
X9857563Y-7268508D02*
X9867086Y-7278031D01*
X9867086Y-7278031D02*
X9876610Y-7268508D01*
X9876610Y-7268508D02*
X9867086Y-7258984D01*
X9867086Y-7258984D02*
X9867086Y-7278031D01*
X9990896Y-7458984D02*
X9971848Y-7449460D01*
X9971848Y-7449460D02*
X9962324Y-7430412D01*
X9962324Y-7430412D02*
X9962324Y-7258984D01*
X10095658Y-7458984D02*
X10076610Y-7449460D01*
X10076610Y-7449460D02*
X10067086Y-7430412D01*
X10067086Y-7430412D02*
X10067086Y-7258984D01*
X10324229Y-7458984D02*
X10324229Y-7258984D01*
X10324229Y-7258984D02*
X10390896Y-7401841D01*
X10390896Y-7401841D02*
X10457563Y-7258984D01*
X10457563Y-7258984D02*
X10457563Y-7458984D01*
X10638515Y-7458984D02*
X10638515Y-7354222D01*
X10638515Y-7354222D02*
X10628991Y-7335174D01*
X10628991Y-7335174D02*
X10609944Y-7325650D01*
X10609944Y-7325650D02*
X10571848Y-7325650D01*
X10571848Y-7325650D02*
X10552801Y-7335174D01*
X10638515Y-7449460D02*
X10619467Y-7458984D01*
X10619467Y-7458984D02*
X10571848Y-7458984D01*
X10571848Y-7458984D02*
X10552801Y-7449460D01*
X10552801Y-7449460D02*
X10543277Y-7430412D01*
X10543277Y-7430412D02*
X10543277Y-7411365D01*
X10543277Y-7411365D02*
X10552801Y-7392317D01*
X10552801Y-7392317D02*
X10571848Y-7382793D01*
X10571848Y-7382793D02*
X10619467Y-7382793D01*
X10619467Y-7382793D02*
X10638515Y-7373269D01*
X10733753Y-7325650D02*
X10733753Y-7525650D01*
X10733753Y-7335174D02*
X10752801Y-7325650D01*
X10752801Y-7325650D02*
X10790896Y-7325650D01*
X10790896Y-7325650D02*
X10809944Y-7335174D01*
X10809944Y-7335174D02*
X10819467Y-7344698D01*
X10819467Y-7344698D02*
X10828991Y-7363746D01*
X10828991Y-7363746D02*
X10828991Y-7420888D01*
X10828991Y-7420888D02*
X10819467Y-7439936D01*
X10819467Y-7439936D02*
X10809944Y-7449460D01*
X10809944Y-7449460D02*
X10790896Y-7458984D01*
X10790896Y-7458984D02*
X10752801Y-7458984D01*
X10752801Y-7458984D02*
X10733753Y-7449460D01*
X10914705Y-7439936D02*
X10924229Y-7449460D01*
X10924229Y-7449460D02*
X10914705Y-7458984D01*
X10914705Y-7458984D02*
X10905182Y-7449460D01*
X10905182Y-7449460D02*
X10914705Y-7439936D01*
X10914705Y-7439936D02*
X10914705Y-7458984D01*
X10914705Y-7335174D02*
X10924229Y-7344698D01*
X10924229Y-7344698D02*
X10914705Y-7354222D01*
X10914705Y-7354222D02*
X10905182Y-7344698D01*
X10905182Y-7344698D02*
X10914705Y-7335174D01*
X10914705Y-7335174D02*
X10914705Y-7354222D01*
D12*
X9217500Y-7755000D02*
X9282500Y-7820000D01*
X9282500Y-7755000D02*
X9217500Y-7820000D01*
D11*
X9581372Y-7678984D02*
X9600420Y-7678984D01*
X9600420Y-7678984D02*
X9619467Y-7688508D01*
X9619467Y-7688508D02*
X9628991Y-7698031D01*
X9628991Y-7698031D02*
X9638515Y-7717079D01*
X9638515Y-7717079D02*
X9648039Y-7755174D01*
X9648039Y-7755174D02*
X9648039Y-7802793D01*
X9648039Y-7802793D02*
X9638515Y-7840888D01*
X9638515Y-7840888D02*
X9628991Y-7859936D01*
X9628991Y-7859936D02*
X9619467Y-7869460D01*
X9619467Y-7869460D02*
X9600420Y-7878984D01*
X9600420Y-7878984D02*
X9581372Y-7878984D01*
X9581372Y-7878984D02*
X9562324Y-7869460D01*
X9562324Y-7869460D02*
X9552801Y-7859936D01*
X9552801Y-7859936D02*
X9543277Y-7840888D01*
X9543277Y-7840888D02*
X9533753Y-7802793D01*
X9533753Y-7802793D02*
X9533753Y-7755174D01*
X9533753Y-7755174D02*
X9543277Y-7717079D01*
X9543277Y-7717079D02*
X9552801Y-7698031D01*
X9552801Y-7698031D02*
X9562324Y-7688508D01*
X9562324Y-7688508D02*
X9581372Y-7678984D01*
X9733753Y-7859936D02*
X9743277Y-7869460D01*
X9743277Y-7869460D02*
X9733753Y-7878984D01*
X9733753Y-7878984D02*
X9724229Y-7869460D01*
X9724229Y-7869460D02*
X9733753Y-7859936D01*
X9733753Y-7859936D02*
X9733753Y-7878984D01*
X9914705Y-7678984D02*
X9876610Y-7678984D01*
X9876610Y-7678984D02*
X9857563Y-7688508D01*
X9857563Y-7688508D02*
X9848039Y-7698031D01*
X9848039Y-7698031D02*
X9828991Y-7726603D01*
X9828991Y-7726603D02*
X9819467Y-7764698D01*
X9819467Y-7764698D02*
X9819467Y-7840888D01*
X9819467Y-7840888D02*
X9828991Y-7859936D01*
X9828991Y-7859936D02*
X9838515Y-7869460D01*
X9838515Y-7869460D02*
X9857563Y-7878984D01*
X9857563Y-7878984D02*
X9895658Y-7878984D01*
X9895658Y-7878984D02*
X9914705Y-7869460D01*
X9914705Y-7869460D02*
X9924229Y-7859936D01*
X9924229Y-7859936D02*
X9933753Y-7840888D01*
X9933753Y-7840888D02*
X9933753Y-7793269D01*
X9933753Y-7793269D02*
X9924229Y-7774222D01*
X9924229Y-7774222D02*
X9914705Y-7764698D01*
X9914705Y-7764698D02*
X9895658Y-7755174D01*
X9895658Y-7755174D02*
X9857563Y-7755174D01*
X9857563Y-7755174D02*
X9838515Y-7764698D01*
X9838515Y-7764698D02*
X9828991Y-7774222D01*
X9828991Y-7774222D02*
X9819467Y-7793269D01*
X10114705Y-7678984D02*
X10019467Y-7678984D01*
X10019467Y-7678984D02*
X10009944Y-7774222D01*
X10009944Y-7774222D02*
X10019467Y-7764698D01*
X10019467Y-7764698D02*
X10038515Y-7755174D01*
X10038515Y-7755174D02*
X10086134Y-7755174D01*
X10086134Y-7755174D02*
X10105182Y-7764698D01*
X10105182Y-7764698D02*
X10114705Y-7774222D01*
X10114705Y-7774222D02*
X10124229Y-7793269D01*
X10124229Y-7793269D02*
X10124229Y-7840888D01*
X10124229Y-7840888D02*
X10114705Y-7859936D01*
X10114705Y-7859936D02*
X10105182Y-7869460D01*
X10105182Y-7869460D02*
X10086134Y-7878984D01*
X10086134Y-7878984D02*
X10038515Y-7878984D01*
X10038515Y-7878984D02*
X10019467Y-7869460D01*
X10019467Y-7869460D02*
X10009944Y-7859936D01*
X10248039Y-7678984D02*
X10267086Y-7678984D01*
X10267086Y-7678984D02*
X10286134Y-7688508D01*
X10286134Y-7688508D02*
X10295658Y-7698031D01*
X10295658Y-7698031D02*
X10305182Y-7717079D01*
X10305182Y-7717079D02*
X10314705Y-7755174D01*
X10314705Y-7755174D02*
X10314705Y-7802793D01*
X10314705Y-7802793D02*
X10305182Y-7840888D01*
X10305182Y-7840888D02*
X10295658Y-7859936D01*
X10295658Y-7859936D02*
X10286134Y-7869460D01*
X10286134Y-7869460D02*
X10267086Y-7878984D01*
X10267086Y-7878984D02*
X10248039Y-7878984D01*
X10248039Y-7878984D02*
X10228991Y-7869460D01*
X10228991Y-7869460D02*
X10219467Y-7859936D01*
X10219467Y-7859936D02*
X10209944Y-7840888D01*
X10209944Y-7840888D02*
X10200420Y-7802793D01*
X10200420Y-7802793D02*
X10200420Y-7755174D01*
X10200420Y-7755174D02*
X10209944Y-7717079D01*
X10209944Y-7717079D02*
X10219467Y-7698031D01*
X10219467Y-7698031D02*
X10228991Y-7688508D01*
X10228991Y-7688508D02*
X10248039Y-7678984D01*
X10400420Y-7878984D02*
X10400420Y-7745650D01*
X10400420Y-7764698D02*
X10409944Y-7755174D01*
X10409944Y-7755174D02*
X10428991Y-7745650D01*
X10428991Y-7745650D02*
X10457563Y-7745650D01*
X10457563Y-7745650D02*
X10476610Y-7755174D01*
X10476610Y-7755174D02*
X10486134Y-7774222D01*
X10486134Y-7774222D02*
X10486134Y-7878984D01*
X10486134Y-7774222D02*
X10495658Y-7755174D01*
X10495658Y-7755174D02*
X10514705Y-7745650D01*
X10514705Y-7745650D02*
X10543277Y-7745650D01*
X10543277Y-7745650D02*
X10562325Y-7755174D01*
X10562325Y-7755174D02*
X10571848Y-7774222D01*
X10571848Y-7774222D02*
X10571848Y-7878984D01*
X10667086Y-7878984D02*
X10667086Y-7745650D01*
X10667086Y-7764698D02*
X10676610Y-7755174D01*
X10676610Y-7755174D02*
X10695658Y-7745650D01*
X10695658Y-7745650D02*
X10724229Y-7745650D01*
X10724229Y-7745650D02*
X10743277Y-7755174D01*
X10743277Y-7755174D02*
X10752801Y-7774222D01*
X10752801Y-7774222D02*
X10752801Y-7878984D01*
X10752801Y-7774222D02*
X10762325Y-7755174D01*
X10762325Y-7755174D02*
X10781372Y-7745650D01*
X10781372Y-7745650D02*
X10809944Y-7745650D01*
X10809944Y-7745650D02*
X10828991Y-7755174D01*
X10828991Y-7755174D02*
X10838515Y-7774222D01*
X10838515Y-7774222D02*
X10838515Y-7878984D01*
X11228991Y-7669460D02*
X11057563Y-7926603D01*
X11486134Y-7678984D02*
X11505182Y-7678984D01*
X11505182Y-7678984D02*
X11524229Y-7688508D01*
X11524229Y-7688508D02*
X11533753Y-7698031D01*
X11533753Y-7698031D02*
X11543277Y-7717079D01*
X11543277Y-7717079D02*
X11552801Y-7755174D01*
X11552801Y-7755174D02*
X11552801Y-7802793D01*
X11552801Y-7802793D02*
X11543277Y-7840888D01*
X11543277Y-7840888D02*
X11533753Y-7859936D01*
X11533753Y-7859936D02*
X11524229Y-7869460D01*
X11524229Y-7869460D02*
X11505182Y-7878984D01*
X11505182Y-7878984D02*
X11486134Y-7878984D01*
X11486134Y-7878984D02*
X11467086Y-7869460D01*
X11467086Y-7869460D02*
X11457563Y-7859936D01*
X11457563Y-7859936D02*
X11448039Y-7840888D01*
X11448039Y-7840888D02*
X11438515Y-7802793D01*
X11438515Y-7802793D02*
X11438515Y-7755174D01*
X11438515Y-7755174D02*
X11448039Y-7717079D01*
X11448039Y-7717079D02*
X11457563Y-7698031D01*
X11457563Y-7698031D02*
X11467086Y-7688508D01*
X11467086Y-7688508D02*
X11486134Y-7678984D01*
X11638515Y-7859936D02*
X11648039Y-7869460D01*
X11648039Y-7869460D02*
X11638515Y-7878984D01*
X11638515Y-7878984D02*
X11628991Y-7869460D01*
X11628991Y-7869460D02*
X11638515Y-7859936D01*
X11638515Y-7859936D02*
X11638515Y-7878984D01*
X11771848Y-7678984D02*
X11790896Y-7678984D01*
X11790896Y-7678984D02*
X11809944Y-7688508D01*
X11809944Y-7688508D02*
X11819467Y-7698031D01*
X11819467Y-7698031D02*
X11828991Y-7717079D01*
X11828991Y-7717079D02*
X11838515Y-7755174D01*
X11838515Y-7755174D02*
X11838515Y-7802793D01*
X11838515Y-7802793D02*
X11828991Y-7840888D01*
X11828991Y-7840888D02*
X11819467Y-7859936D01*
X11819467Y-7859936D02*
X11809944Y-7869460D01*
X11809944Y-7869460D02*
X11790896Y-7878984D01*
X11790896Y-7878984D02*
X11771848Y-7878984D01*
X11771848Y-7878984D02*
X11752801Y-7869460D01*
X11752801Y-7869460D02*
X11743277Y-7859936D01*
X11743277Y-7859936D02*
X11733753Y-7840888D01*
X11733753Y-7840888D02*
X11724229Y-7802793D01*
X11724229Y-7802793D02*
X11724229Y-7755174D01*
X11724229Y-7755174D02*
X11733753Y-7717079D01*
X11733753Y-7717079D02*
X11743277Y-7698031D01*
X11743277Y-7698031D02*
X11752801Y-7688508D01*
X11752801Y-7688508D02*
X11771848Y-7678984D01*
X11914706Y-7698031D02*
X11924229Y-7688508D01*
X11924229Y-7688508D02*
X11943277Y-7678984D01*
X11943277Y-7678984D02*
X11990896Y-7678984D01*
X11990896Y-7678984D02*
X12009944Y-7688508D01*
X12009944Y-7688508D02*
X12019467Y-7698031D01*
X12019467Y-7698031D02*
X12028991Y-7717079D01*
X12028991Y-7717079D02*
X12028991Y-7736127D01*
X12028991Y-7736127D02*
X12019467Y-7764698D01*
X12019467Y-7764698D02*
X11905182Y-7878984D01*
X11905182Y-7878984D02*
X12028991Y-7878984D01*
X12209944Y-7678984D02*
X12114706Y-7678984D01*
X12114706Y-7678984D02*
X12105182Y-7774222D01*
X12105182Y-7774222D02*
X12114706Y-7764698D01*
X12114706Y-7764698D02*
X12133753Y-7755174D01*
X12133753Y-7755174D02*
X12181372Y-7755174D01*
X12181372Y-7755174D02*
X12200420Y-7764698D01*
X12200420Y-7764698D02*
X12209944Y-7774222D01*
X12209944Y-7774222D02*
X12219467Y-7793269D01*
X12219467Y-7793269D02*
X12219467Y-7840888D01*
X12219467Y-7840888D02*
X12209944Y-7859936D01*
X12209944Y-7859936D02*
X12200420Y-7869460D01*
X12200420Y-7869460D02*
X12181372Y-7878984D01*
X12181372Y-7878984D02*
X12133753Y-7878984D01*
X12133753Y-7878984D02*
X12114706Y-7869460D01*
X12114706Y-7869460D02*
X12105182Y-7859936D01*
X12390896Y-7678984D02*
X12352801Y-7678984D01*
X12352801Y-7678984D02*
X12333753Y-7688508D01*
X12333753Y-7688508D02*
X12324229Y-7698031D01*
X12324229Y-7698031D02*
X12305182Y-7726603D01*
X12305182Y-7726603D02*
X12295658Y-7764698D01*
X12295658Y-7764698D02*
X12295658Y-7840888D01*
X12295658Y-7840888D02*
X12305182Y-7859936D01*
X12305182Y-7859936D02*
X12314706Y-7869460D01*
X12314706Y-7869460D02*
X12333753Y-7878984D01*
X12333753Y-7878984D02*
X12371848Y-7878984D01*
X12371848Y-7878984D02*
X12390896Y-7869460D01*
X12390896Y-7869460D02*
X12400420Y-7859936D01*
X12400420Y-7859936D02*
X12409944Y-7840888D01*
X12409944Y-7840888D02*
X12409944Y-7793269D01*
X12409944Y-7793269D02*
X12400420Y-7774222D01*
X12400420Y-7774222D02*
X12390896Y-7764698D01*
X12390896Y-7764698D02*
X12371848Y-7755174D01*
X12371848Y-7755174D02*
X12333753Y-7755174D01*
X12333753Y-7755174D02*
X12314706Y-7764698D01*
X12314706Y-7764698D02*
X12305182Y-7774222D01*
X12305182Y-7774222D02*
X12295658Y-7793269D01*
X12486134Y-7678984D02*
X12486134Y-7717079D01*
X12562325Y-7678984D02*
X12562325Y-7717079D01*
X12857563Y-7955174D02*
X12848039Y-7945650D01*
X12848039Y-7945650D02*
X12828991Y-7917079D01*
X12828991Y-7917079D02*
X12819468Y-7898031D01*
X12819468Y-7898031D02*
X12809944Y-7869460D01*
X12809944Y-7869460D02*
X12800420Y-7821841D01*
X12800420Y-7821841D02*
X12800420Y-7783746D01*
X12800420Y-7783746D02*
X12809944Y-7736127D01*
X12809944Y-7736127D02*
X12819468Y-7707555D01*
X12819468Y-7707555D02*
X12828991Y-7688508D01*
X12828991Y-7688508D02*
X12848039Y-7659936D01*
X12848039Y-7659936D02*
X12857563Y-7650412D01*
X12924229Y-7698031D02*
X12933753Y-7688508D01*
X12933753Y-7688508D02*
X12952801Y-7678984D01*
X12952801Y-7678984D02*
X13000420Y-7678984D01*
X13000420Y-7678984D02*
X13019468Y-7688508D01*
X13019468Y-7688508D02*
X13028991Y-7698031D01*
X13028991Y-7698031D02*
X13038515Y-7717079D01*
X13038515Y-7717079D02*
X13038515Y-7736127D01*
X13038515Y-7736127D02*
X13028991Y-7764698D01*
X13028991Y-7764698D02*
X12914706Y-7878984D01*
X12914706Y-7878984D02*
X13038515Y-7878984D01*
X13276610Y-7878984D02*
X13276610Y-7678984D01*
X13362325Y-7878984D02*
X13362325Y-7774222D01*
X13362325Y-7774222D02*
X13352801Y-7755174D01*
X13352801Y-7755174D02*
X13333753Y-7745650D01*
X13333753Y-7745650D02*
X13305182Y-7745650D01*
X13305182Y-7745650D02*
X13286134Y-7755174D01*
X13286134Y-7755174D02*
X13276610Y-7764698D01*
X13486134Y-7878984D02*
X13467087Y-7869460D01*
X13467087Y-7869460D02*
X13457563Y-7859936D01*
X13457563Y-7859936D02*
X13448039Y-7840888D01*
X13448039Y-7840888D02*
X13448039Y-7783746D01*
X13448039Y-7783746D02*
X13457563Y-7764698D01*
X13457563Y-7764698D02*
X13467087Y-7755174D01*
X13467087Y-7755174D02*
X13486134Y-7745650D01*
X13486134Y-7745650D02*
X13514706Y-7745650D01*
X13514706Y-7745650D02*
X13533753Y-7755174D01*
X13533753Y-7755174D02*
X13543277Y-7764698D01*
X13543277Y-7764698D02*
X13552801Y-7783746D01*
X13552801Y-7783746D02*
X13552801Y-7840888D01*
X13552801Y-7840888D02*
X13543277Y-7859936D01*
X13543277Y-7859936D02*
X13533753Y-7869460D01*
X13533753Y-7869460D02*
X13514706Y-7878984D01*
X13514706Y-7878984D02*
X13486134Y-7878984D01*
X13667087Y-7878984D02*
X13648039Y-7869460D01*
X13648039Y-7869460D02*
X13638515Y-7850412D01*
X13638515Y-7850412D02*
X13638515Y-7678984D01*
X13819468Y-7869460D02*
X13800420Y-7878984D01*
X13800420Y-7878984D02*
X13762325Y-7878984D01*
X13762325Y-7878984D02*
X13743277Y-7869460D01*
X13743277Y-7869460D02*
X13733753Y-7850412D01*
X13733753Y-7850412D02*
X13733753Y-7774222D01*
X13733753Y-7774222D02*
X13743277Y-7755174D01*
X13743277Y-7755174D02*
X13762325Y-7745650D01*
X13762325Y-7745650D02*
X13800420Y-7745650D01*
X13800420Y-7745650D02*
X13819468Y-7755174D01*
X13819468Y-7755174D02*
X13828991Y-7774222D01*
X13828991Y-7774222D02*
X13828991Y-7793269D01*
X13828991Y-7793269D02*
X13733753Y-7812317D01*
X13905182Y-7869460D02*
X13924230Y-7878984D01*
X13924230Y-7878984D02*
X13962325Y-7878984D01*
X13962325Y-7878984D02*
X13981372Y-7869460D01*
X13981372Y-7869460D02*
X13990896Y-7850412D01*
X13990896Y-7850412D02*
X13990896Y-7840888D01*
X13990896Y-7840888D02*
X13981372Y-7821841D01*
X13981372Y-7821841D02*
X13962325Y-7812317D01*
X13962325Y-7812317D02*
X13933753Y-7812317D01*
X13933753Y-7812317D02*
X13914706Y-7802793D01*
X13914706Y-7802793D02*
X13905182Y-7783746D01*
X13905182Y-7783746D02*
X13905182Y-7774222D01*
X13905182Y-7774222D02*
X13914706Y-7755174D01*
X13914706Y-7755174D02*
X13933753Y-7745650D01*
X13933753Y-7745650D02*
X13962325Y-7745650D01*
X13962325Y-7745650D02*
X13981372Y-7755174D01*
X14057563Y-7955174D02*
X14067087Y-7945650D01*
X14067087Y-7945650D02*
X14086134Y-7917079D01*
X14086134Y-7917079D02*
X14095658Y-7898031D01*
X14095658Y-7898031D02*
X14105182Y-7869460D01*
X14105182Y-7869460D02*
X14114706Y-7821841D01*
X14114706Y-7821841D02*
X14114706Y-7783746D01*
X14114706Y-7783746D02*
X14105182Y-7736127D01*
X14105182Y-7736127D02*
X14095658Y-7707555D01*
X14095658Y-7707555D02*
X14086134Y-7688508D01*
X14086134Y-7688508D02*
X14067087Y-7659936D01*
X14067087Y-7659936D02*
X14057563Y-7650412D01*
X14419468Y-7955174D02*
X14409944Y-7945650D01*
X14409944Y-7945650D02*
X14390896Y-7917079D01*
X14390896Y-7917079D02*
X14381372Y-7898031D01*
X14381372Y-7898031D02*
X14371849Y-7869460D01*
X14371849Y-7869460D02*
X14362325Y-7821841D01*
X14362325Y-7821841D02*
X14362325Y-7783746D01*
X14362325Y-7783746D02*
X14371849Y-7736127D01*
X14371849Y-7736127D02*
X14381372Y-7707555D01*
X14381372Y-7707555D02*
X14390896Y-7688508D01*
X14390896Y-7688508D02*
X14409944Y-7659936D01*
X14409944Y-7659936D02*
X14419468Y-7650412D01*
X14495658Y-7745650D02*
X14495658Y-7878984D01*
X14495658Y-7764698D02*
X14505182Y-7755174D01*
X14505182Y-7755174D02*
X14524230Y-7745650D01*
X14524230Y-7745650D02*
X14552801Y-7745650D01*
X14552801Y-7745650D02*
X14571849Y-7755174D01*
X14571849Y-7755174D02*
X14581372Y-7774222D01*
X14581372Y-7774222D02*
X14581372Y-7878984D01*
X14705182Y-7878984D02*
X14686134Y-7869460D01*
X14686134Y-7869460D02*
X14676611Y-7859936D01*
X14676611Y-7859936D02*
X14667087Y-7840888D01*
X14667087Y-7840888D02*
X14667087Y-7783746D01*
X14667087Y-7783746D02*
X14676611Y-7764698D01*
X14676611Y-7764698D02*
X14686134Y-7755174D01*
X14686134Y-7755174D02*
X14705182Y-7745650D01*
X14705182Y-7745650D02*
X14733753Y-7745650D01*
X14733753Y-7745650D02*
X14752801Y-7755174D01*
X14752801Y-7755174D02*
X14762325Y-7764698D01*
X14762325Y-7764698D02*
X14771849Y-7783746D01*
X14771849Y-7783746D02*
X14771849Y-7840888D01*
X14771849Y-7840888D02*
X14762325Y-7859936D01*
X14762325Y-7859936D02*
X14752801Y-7869460D01*
X14752801Y-7869460D02*
X14733753Y-7878984D01*
X14733753Y-7878984D02*
X14705182Y-7878984D01*
X14828992Y-7745650D02*
X14905182Y-7745650D01*
X14857563Y-7678984D02*
X14857563Y-7850412D01*
X14857563Y-7850412D02*
X14867087Y-7869460D01*
X14867087Y-7869460D02*
X14886134Y-7878984D01*
X14886134Y-7878984D02*
X14905182Y-7878984D01*
X15124230Y-7745650D02*
X15124230Y-7945650D01*
X15124230Y-7755174D02*
X15143277Y-7745650D01*
X15143277Y-7745650D02*
X15181373Y-7745650D01*
X15181373Y-7745650D02*
X15200420Y-7755174D01*
X15200420Y-7755174D02*
X15209944Y-7764698D01*
X15209944Y-7764698D02*
X15219468Y-7783746D01*
X15219468Y-7783746D02*
X15219468Y-7840888D01*
X15219468Y-7840888D02*
X15209944Y-7859936D01*
X15209944Y-7859936D02*
X15200420Y-7869460D01*
X15200420Y-7869460D02*
X15181373Y-7878984D01*
X15181373Y-7878984D02*
X15143277Y-7878984D01*
X15143277Y-7878984D02*
X15124230Y-7869460D01*
X15333753Y-7878984D02*
X15314706Y-7869460D01*
X15314706Y-7869460D02*
X15305182Y-7850412D01*
X15305182Y-7850412D02*
X15305182Y-7678984D01*
X15495658Y-7878984D02*
X15495658Y-7774222D01*
X15495658Y-7774222D02*
X15486134Y-7755174D01*
X15486134Y-7755174D02*
X15467087Y-7745650D01*
X15467087Y-7745650D02*
X15428992Y-7745650D01*
X15428992Y-7745650D02*
X15409944Y-7755174D01*
X15495658Y-7869460D02*
X15476611Y-7878984D01*
X15476611Y-7878984D02*
X15428992Y-7878984D01*
X15428992Y-7878984D02*
X15409944Y-7869460D01*
X15409944Y-7869460D02*
X15400420Y-7850412D01*
X15400420Y-7850412D02*
X15400420Y-7831365D01*
X15400420Y-7831365D02*
X15409944Y-7812317D01*
X15409944Y-7812317D02*
X15428992Y-7802793D01*
X15428992Y-7802793D02*
X15476611Y-7802793D01*
X15476611Y-7802793D02*
X15495658Y-7793269D01*
X15562325Y-7745650D02*
X15638515Y-7745650D01*
X15590896Y-7678984D02*
X15590896Y-7850412D01*
X15590896Y-7850412D02*
X15600420Y-7869460D01*
X15600420Y-7869460D02*
X15619468Y-7878984D01*
X15619468Y-7878984D02*
X15638515Y-7878984D01*
X15781373Y-7869460D02*
X15762325Y-7878984D01*
X15762325Y-7878984D02*
X15724230Y-7878984D01*
X15724230Y-7878984D02*
X15705182Y-7869460D01*
X15705182Y-7869460D02*
X15695658Y-7850412D01*
X15695658Y-7850412D02*
X15695658Y-7774222D01*
X15695658Y-7774222D02*
X15705182Y-7755174D01*
X15705182Y-7755174D02*
X15724230Y-7745650D01*
X15724230Y-7745650D02*
X15762325Y-7745650D01*
X15762325Y-7745650D02*
X15781373Y-7755174D01*
X15781373Y-7755174D02*
X15790896Y-7774222D01*
X15790896Y-7774222D02*
X15790896Y-7793269D01*
X15790896Y-7793269D02*
X15695658Y-7812317D01*
X15962325Y-7878984D02*
X15962325Y-7678984D01*
X15962325Y-7869460D02*
X15943277Y-7878984D01*
X15943277Y-7878984D02*
X15905182Y-7878984D01*
X15905182Y-7878984D02*
X15886134Y-7869460D01*
X15886134Y-7869460D02*
X15876611Y-7859936D01*
X15876611Y-7859936D02*
X15867087Y-7840888D01*
X15867087Y-7840888D02*
X15867087Y-7783746D01*
X15867087Y-7783746D02*
X15876611Y-7764698D01*
X15876611Y-7764698D02*
X15886134Y-7755174D01*
X15886134Y-7755174D02*
X15905182Y-7745650D01*
X15905182Y-7745650D02*
X15943277Y-7745650D01*
X15943277Y-7745650D02*
X15962325Y-7755174D01*
X16038515Y-7955174D02*
X16048039Y-7945650D01*
X16048039Y-7945650D02*
X16067087Y-7917079D01*
X16067087Y-7917079D02*
X16076611Y-7898031D01*
X16076611Y-7898031D02*
X16086134Y-7869460D01*
X16086134Y-7869460D02*
X16095658Y-7821841D01*
X16095658Y-7821841D02*
X16095658Y-7783746D01*
X16095658Y-7783746D02*
X16086134Y-7736127D01*
X16086134Y-7736127D02*
X16076611Y-7707555D01*
X16076611Y-7707555D02*
X16067087Y-7688508D01*
X16067087Y-7688508D02*
X16048039Y-7659936D01*
X16048039Y-7659936D02*
X16038515Y-7650412D01*
M02*
