%TF.GenerationSoftware,KiCad,Pcbnew,8.0.6-8.0.6-0~ubuntu24.04.1*%
%TF.CreationDate,2024-11-20T23:40:03+01:00*%
%TF.ProjectId,lumen_PD,6c756d65-6e5f-4504-942e-6b696361645f,rev?*%
%TF.SameCoordinates,Original*%
%TF.FileFunction,Copper,L2,Bot*%
%TF.FilePolarity,Positive*%
%FSLAX46Y46*%
G04 Gerber Fmt 4.6, Leading zero omitted, Abs format (unit mm)*
G04 Created by KiCad (PCBNEW 8.0.6-8.0.6-0~ubuntu24.04.1) date 2024-11-20 23:40:03*
%MOMM*%
%LPD*%
G01*
G04 APERTURE LIST*
G04 Aperture macros list*
%AMOutline5P*
0 Free polygon, 5 corners , with rotation*
0 The origin of the aperture is its center*
0 number of corners: always 5*
0 $1 to $10 corner X, Y*
0 $11 Rotation angle, in degrees counterclockwise*
0 create outline with 5 corners*
4,1,5,$1,$2,$3,$4,$5,$6,$7,$8,$9,$10,$1,$2,$11*%
%AMOutline6P*
0 Free polygon, 6 corners , with rotation*
0 The origin of the aperture is its center*
0 number of corners: always 6*
0 $1 to $12 corner X, Y*
0 $13 Rotation angle, in degrees counterclockwise*
0 create outline with 6 corners*
4,1,6,$1,$2,$3,$4,$5,$6,$7,$8,$9,$10,$11,$12,$1,$2,$13*%
%AMOutline7P*
0 Free polygon, 7 corners , with rotation*
0 The origin of the aperture is its center*
0 number of corners: always 7*
0 $1 to $14 corner X, Y*
0 $15 Rotation angle, in degrees counterclockwise*
0 create outline with 7 corners*
4,1,7,$1,$2,$3,$4,$5,$6,$7,$8,$9,$10,$11,$12,$13,$14,$1,$2,$15*%
%AMOutline8P*
0 Free polygon, 8 corners , with rotation*
0 The origin of the aperture is its center*
0 number of corners: always 8*
0 $1 to $16 corner X, Y*
0 $17 Rotation angle, in degrees counterclockwise*
0 create outline with 8 corners*
4,1,8,$1,$2,$3,$4,$5,$6,$7,$8,$9,$10,$11,$12,$13,$14,$15,$16,$1,$2,$17*%
G04 Aperture macros list end*
%TA.AperFunction,ComponentPad*%
%ADD10Outline8P,-1.000000X1.350000X-0.600000X1.750000X0.600000X1.750000X1.000000X1.350000X1.000000X-1.350000X0.600000X-1.750000X-0.600000X-1.750000X-1.000000X-1.350000X0.000000*%
%TD*%
%TA.AperFunction,ComponentPad*%
%ADD11Outline8P,-1.750000X0.600000X-1.350000X1.000000X1.350000X1.000000X1.750000X0.600000X1.750000X-0.600000X1.350000X-1.000000X-1.350000X-1.000000X-1.750000X-0.600000X0.000000*%
%TD*%
%TA.AperFunction,ComponentPad*%
%ADD12O,2.100000X1.000000*%
%TD*%
%TA.AperFunction,ComponentPad*%
%ADD13O,1.800000X1.000000*%
%TD*%
%TA.AperFunction,ViaPad*%
%ADD14C,0.800000*%
%TD*%
%TA.AperFunction,Conductor*%
%ADD15C,0.200000*%
%TD*%
G04 APERTURE END LIST*
D10*
%TO.P,J2,1*%
%TO.N,VCC*%
X108115000Y-65302500D03*
%TO.P,J2,2*%
%TO.N,GND*%
X102115000Y-65302500D03*
D11*
%TO.P,J2,3,MountPin*%
X105115000Y-70002500D03*
%TD*%
D12*
%TO.P,J1,S1,SHIELD*%
%TO.N,GND*%
X98600000Y-61012500D03*
D13*
X94400000Y-61012500D03*
D12*
X98600000Y-69652500D03*
D13*
X94400000Y-69652500D03*
%TD*%
D14*
%TO.N,+3.3V*%
X108948209Y-68699135D03*
X106399997Y-57750000D03*
%TO.N,VCC*%
X100428725Y-63061225D03*
X100900334Y-57772638D03*
X97600000Y-67350000D03*
X103391068Y-57782583D03*
X97330563Y-63066175D03*
X100300000Y-67732500D03*
%TO.N,Net-(D1-K)*%
X109800000Y-68000000D03*
X107400000Y-57750000D03*
%TO.N,Net-(J1-CC1)*%
X97660000Y-64149997D03*
X108494586Y-61537852D03*
%TO.N,Net-(U1-DM)*%
X97567778Y-65145738D03*
X105844975Y-62255025D03*
%TO.N,Net-(J1-CC2)*%
X97545747Y-66145498D03*
X108550000Y-62550000D03*
%TO.N,Net-(U1-VBUS)*%
X109438528Y-63427500D03*
X108650000Y-60550000D03*
%TO.N,GND*%
X107150000Y-60527500D03*
X101952774Y-59979982D03*
%TD*%
D15*
%TO.N,+3.3V*%
X107099997Y-57050000D02*
X106399997Y-57750000D01*
X110538528Y-59838528D02*
X107750000Y-57050000D01*
X107750000Y-57050000D02*
X107099997Y-57050000D01*
X110100000Y-68700000D02*
X110538528Y-68261472D01*
X109509185Y-68699135D02*
X109510050Y-68700000D01*
X110538528Y-68261472D02*
X110538528Y-59838528D01*
X108948209Y-68699135D02*
X109509185Y-68699135D01*
X109510050Y-68700000D02*
X110100000Y-68700000D01*
%TO.N,VCC*%
X103381123Y-57772638D02*
X100900334Y-57772638D01*
X103391068Y-57782583D02*
X103381123Y-57772638D01*
%TO.N,Net-(D1-K)*%
X110138528Y-67661472D02*
X110138528Y-60088528D01*
X109800000Y-68000000D02*
X110138528Y-67661472D01*
X107800000Y-57750000D02*
X107400000Y-57750000D01*
X110138528Y-60088528D02*
X107800000Y-57750000D01*
%TO.N,Net-(J1-CC1)*%
X100666128Y-60702500D02*
X98800000Y-62568628D01*
X105282400Y-60702500D02*
X100666128Y-60702500D01*
X106117752Y-61537852D02*
X105282400Y-60702500D01*
X98800000Y-62568628D02*
X98800000Y-62852500D01*
X98800000Y-62852500D02*
X97660000Y-63992500D01*
X108494586Y-61537852D02*
X106117752Y-61537852D01*
X97660000Y-63992500D02*
X97660000Y-64149997D01*
%TO.N,Net-(U1-DM)*%
X98360000Y-63858186D02*
X99200000Y-63018186D01*
X99200000Y-62734314D02*
X100831814Y-61102500D01*
X99200000Y-63018186D02*
X99200000Y-62734314D01*
X104692450Y-61102500D02*
X105844975Y-62255025D01*
X100831814Y-61102500D02*
X104692450Y-61102500D01*
X98360000Y-64486739D02*
X98360000Y-63858186D01*
X97567778Y-65145738D02*
X97701001Y-65145738D01*
X97701001Y-65145738D02*
X98360000Y-64486739D01*
%TO.N,Net-(J1-CC2)*%
X105144975Y-62197475D02*
X104450000Y-61502500D01*
X98760000Y-64023872D02*
X98760000Y-65347739D01*
X99600000Y-62900000D02*
X99600000Y-63183872D01*
X105144975Y-62544975D02*
X105144975Y-62197475D01*
X98760000Y-65347739D02*
X97962241Y-66145498D01*
X106144975Y-62955025D02*
X105555025Y-62955025D01*
X106550000Y-62550000D02*
X106144975Y-62955025D01*
X105555025Y-62955025D02*
X105144975Y-62544975D01*
X104450000Y-61502500D02*
X100997500Y-61502500D01*
X108550000Y-62550000D02*
X106550000Y-62550000D01*
X97962241Y-66145498D02*
X97545747Y-66145498D01*
X99600000Y-63183872D02*
X98760000Y-64023872D01*
X100997500Y-61502500D02*
X99600000Y-62900000D01*
%TO.N,Net-(U1-VBUS)*%
X109438528Y-61338528D02*
X109438528Y-63427500D01*
X108650000Y-60550000D02*
X109438528Y-61338528D01*
%TD*%
%TA.AperFunction,Conductor*%
%TO.N,GND*%
G36*
X106419934Y-56969407D02*
G01*
X106455898Y-57018907D01*
X106455898Y-57080093D01*
X106419934Y-57129593D01*
X106374665Y-57147653D01*
X106243238Y-57164955D01*
X106243230Y-57164957D01*
X106097158Y-57225462D01*
X106097157Y-57225462D01*
X105971720Y-57321713D01*
X105971710Y-57321723D01*
X105875459Y-57447160D01*
X105875459Y-57447161D01*
X105814954Y-57593233D01*
X105814952Y-57593241D01*
X105794315Y-57749999D01*
X105794315Y-57750000D01*
X105814952Y-57906758D01*
X105814954Y-57906766D01*
X105875459Y-58052838D01*
X105875459Y-58052839D01*
X105970402Y-58176571D01*
X105971715Y-58178282D01*
X106097156Y-58274536D01*
X106097157Y-58274536D01*
X106097158Y-58274537D01*
X106243230Y-58335042D01*
X106243235Y-58335044D01*
X106360806Y-58350522D01*
X106399996Y-58355682D01*
X106399997Y-58355682D01*
X106399998Y-58355682D01*
X106431349Y-58351554D01*
X106556759Y-58335044D01*
X106702838Y-58274536D01*
X106828279Y-58178282D01*
X106828284Y-58178276D01*
X106829989Y-58176571D01*
X106831537Y-58175781D01*
X106833427Y-58174332D01*
X106833695Y-58174682D01*
X106884503Y-58148789D01*
X106944936Y-58158356D01*
X106970002Y-58176565D01*
X106971713Y-58178276D01*
X106971718Y-58178282D01*
X107097159Y-58274536D01*
X107097160Y-58274536D01*
X107097161Y-58274537D01*
X107243233Y-58335042D01*
X107243238Y-58335044D01*
X107360809Y-58350522D01*
X107399999Y-58355682D01*
X107400000Y-58355682D01*
X107400001Y-58355682D01*
X107431352Y-58351554D01*
X107556762Y-58335044D01*
X107702841Y-58274536D01*
X107745272Y-58241976D01*
X107802945Y-58221552D01*
X107861611Y-58238928D01*
X107875543Y-58250514D01*
X109809032Y-60184003D01*
X109836809Y-60238520D01*
X109838028Y-60254007D01*
X109838028Y-61074049D01*
X109819121Y-61132240D01*
X109769621Y-61168204D01*
X109708435Y-61168204D01*
X109669024Y-61144053D01*
X109269180Y-60744209D01*
X109241403Y-60689692D01*
X109241031Y-60661283D01*
X109255682Y-60550000D01*
X109255682Y-60549999D01*
X109244102Y-60462040D01*
X109235044Y-60393238D01*
X109184668Y-60271619D01*
X109174537Y-60247161D01*
X109174537Y-60247160D01*
X109078286Y-60121723D01*
X109078285Y-60121722D01*
X109078282Y-60121718D01*
X109078277Y-60121714D01*
X109078276Y-60121713D01*
X108952838Y-60025462D01*
X108806766Y-59964957D01*
X108806758Y-59964955D01*
X108650001Y-59944318D01*
X108649999Y-59944318D01*
X108493241Y-59964955D01*
X108493233Y-59964957D01*
X108347161Y-60025462D01*
X108347160Y-60025462D01*
X108221723Y-60121713D01*
X108221713Y-60121723D01*
X108125462Y-60247160D01*
X108125462Y-60247161D01*
X108064957Y-60393233D01*
X108064955Y-60393241D01*
X108044318Y-60549999D01*
X108044318Y-60550000D01*
X108064955Y-60706758D01*
X108064957Y-60706766D01*
X108125461Y-60852836D01*
X108125463Y-60852838D01*
X108125464Y-60852841D01*
X108167264Y-60907316D01*
X108187687Y-60964989D01*
X108170310Y-61023655D01*
X108148989Y-61046122D01*
X108066310Y-61109564D01*
X108066299Y-61109575D01*
X107997974Y-61198619D01*
X107947549Y-61233275D01*
X107919432Y-61237352D01*
X106283231Y-61237352D01*
X106225040Y-61218445D01*
X106213227Y-61208356D01*
X105849350Y-60844479D01*
X105466911Y-60462040D01*
X105466904Y-60462036D01*
X105440457Y-60446767D01*
X105413785Y-60431368D01*
X105398388Y-60422478D01*
X105321964Y-60402000D01*
X105321962Y-60402000D01*
X100705690Y-60402000D01*
X100626566Y-60402000D01*
X100580109Y-60414448D01*
X100550135Y-60422479D01*
X100481621Y-60462036D01*
X100481620Y-60462037D01*
X99345272Y-61598384D01*
X99290755Y-61626161D01*
X99230323Y-61616590D01*
X99200716Y-61593518D01*
X99191852Y-61583373D01*
X99191851Y-61583372D01*
X99113341Y-61536464D01*
X99113339Y-61536463D01*
X99113337Y-61536462D01*
X99055147Y-61517556D01*
X99055148Y-61517556D01*
X98991651Y-61507500D01*
X98991648Y-61507500D01*
X98333011Y-61507500D01*
X98295562Y-61510941D01*
X98295559Y-61510941D01*
X98295554Y-61510942D01*
X98260072Y-61517518D01*
X98250319Y-61519572D01*
X98250316Y-61519573D01*
X98167040Y-61560443D01*
X98106471Y-61569107D01*
X98065683Y-61551987D01*
X98061570Y-61549034D01*
X98061567Y-61549032D01*
X98008183Y-61519135D01*
X98008178Y-61519133D01*
X98008176Y-61519132D01*
X97947866Y-61496882D01*
X97947849Y-61496877D01*
X97915170Y-61490377D01*
X97896608Y-61484747D01*
X97852929Y-61466655D01*
X97852919Y-61466649D01*
X97824533Y-61454891D01*
X97807419Y-61445744D01*
X97742565Y-61402410D01*
X97727562Y-61390098D01*
X97672402Y-61334938D01*
X97660091Y-61319936D01*
X97646079Y-61298966D01*
X97601553Y-61232328D01*
X97578823Y-61204070D01*
X97554699Y-61178979D01*
X97548574Y-61172872D01*
X97548572Y-61172870D01*
X97470068Y-61125966D01*
X97470060Y-61125962D01*
X97411870Y-61107056D01*
X97411871Y-61107056D01*
X97348374Y-61097000D01*
X97348371Y-61097000D01*
X95999000Y-61097000D01*
X95966856Y-61099530D01*
X95936206Y-61104383D01*
X95931718Y-61105146D01*
X95931713Y-61105147D01*
X95847617Y-61141091D01*
X95798118Y-61177055D01*
X95770372Y-61201297D01*
X95723464Y-61279807D01*
X95723462Y-61279810D01*
X95704556Y-61337999D01*
X95694500Y-61401496D01*
X95694500Y-61401500D01*
X95694500Y-68173787D01*
X95694500Y-69353500D01*
X95696963Y-69384793D01*
X95697030Y-69385643D01*
X95701883Y-69416293D01*
X95702646Y-69420781D01*
X95702647Y-69420786D01*
X95738591Y-69504882D01*
X95750400Y-69521135D01*
X95774556Y-69554383D01*
X95798797Y-69582128D01*
X95877307Y-69629036D01*
X95935498Y-69647943D01*
X95948198Y-69649954D01*
X95998996Y-69658000D01*
X95999000Y-69658000D01*
X97308475Y-69658000D01*
X97308477Y-69658000D01*
X97308480Y-69657999D01*
X97308487Y-69657999D01*
X97326552Y-69655500D01*
X97364256Y-69650285D01*
X97415983Y-69635697D01*
X97415985Y-69635696D01*
X97415993Y-69635694D01*
X97443081Y-69625959D01*
X97443081Y-69625958D01*
X97443086Y-69625957D01*
X97516467Y-69571374D01*
X97556204Y-69524848D01*
X97589798Y-69470027D01*
X97607608Y-69427026D01*
X97616744Y-69409931D01*
X97660096Y-69345052D01*
X97672394Y-69330067D01*
X97727567Y-69274894D01*
X97742552Y-69262596D01*
X97807427Y-69219247D01*
X97824524Y-69210109D01*
X97896613Y-69180250D01*
X97915175Y-69174619D01*
X97947865Y-69168117D01*
X97964845Y-69163982D01*
X97981009Y-69159309D01*
X98053265Y-69121594D01*
X98061705Y-69114758D01*
X98118826Y-69092831D01*
X98174785Y-69106708D01*
X98211318Y-69128536D01*
X98269509Y-69147443D01*
X98282209Y-69149454D01*
X98333007Y-69157500D01*
X98333011Y-69157500D01*
X99189004Y-69157500D01*
X99208317Y-69159401D01*
X99284822Y-69174620D01*
X99303390Y-69180252D01*
X99375466Y-69210106D01*
X99392576Y-69219252D01*
X99457433Y-69262588D01*
X99472435Y-69274899D01*
X99527598Y-69330062D01*
X99539909Y-69345064D01*
X99583244Y-69409919D01*
X99592392Y-69427033D01*
X99593539Y-69429802D01*
X99610202Y-69470028D01*
X99638676Y-69518609D01*
X99644981Y-69526607D01*
X99671952Y-69560820D01*
X99691319Y-69582128D01*
X99742694Y-69612823D01*
X99769830Y-69629036D01*
X99828021Y-69647943D01*
X99840721Y-69649954D01*
X99891519Y-69658000D01*
X99891523Y-69658000D01*
X103069381Y-69658000D01*
X103070890Y-69657955D01*
X103081472Y-69657644D01*
X103093109Y-69656958D01*
X103167054Y-69638436D01*
X103222619Y-69612819D01*
X103254557Y-69594458D01*
X103315880Y-69526607D01*
X103345776Y-69473223D01*
X103364229Y-69423200D01*
X103387106Y-69387463D01*
X103738074Y-69036496D01*
X103792590Y-69008719D01*
X103808077Y-69007500D01*
X106421922Y-69007500D01*
X106480113Y-69026407D01*
X106491925Y-69036496D01*
X106840223Y-69384793D01*
X106866013Y-69429802D01*
X106867623Y-69435972D01*
X106900214Y-69504883D01*
X106936178Y-69554383D01*
X106960419Y-69582128D01*
X107038929Y-69629036D01*
X107097120Y-69647943D01*
X107109820Y-69649954D01*
X107160618Y-69658000D01*
X107160622Y-69658000D01*
X108700098Y-69658000D01*
X108700103Y-69658000D01*
X108700120Y-69657999D01*
X108724212Y-69656579D01*
X108724228Y-69656577D01*
X108724254Y-69656576D01*
X108747365Y-69653841D01*
X108830589Y-69624981D01*
X108882758Y-69593011D01*
X108888286Y-69588898D01*
X108946260Y-69569338D01*
X108998149Y-69583345D01*
X109074622Y-69629036D01*
X109132813Y-69647943D01*
X109145513Y-69649954D01*
X109196311Y-69658000D01*
X109196315Y-69658000D01*
X110001174Y-69658000D01*
X110001182Y-69658000D01*
X110033140Y-69655500D01*
X110063560Y-69650711D01*
X110067924Y-69649976D01*
X110152087Y-69614185D01*
X110201653Y-69578312D01*
X110229442Y-69554124D01*
X110276493Y-69475699D01*
X110278348Y-69470027D01*
X110295506Y-69417546D01*
X110295508Y-69417537D01*
X110305682Y-69354061D01*
X110305682Y-69354060D01*
X110305726Y-69330062D01*
X110306149Y-69100060D01*
X110303649Y-69067723D01*
X110298804Y-69036948D01*
X110298001Y-69032213D01*
X110292802Y-69020051D01*
X110287318Y-68959114D01*
X110313834Y-68911137D01*
X110480496Y-68744475D01*
X110535013Y-68716698D01*
X110595445Y-68726269D01*
X110638710Y-68769534D01*
X110649500Y-68814479D01*
X110649500Y-70694436D01*
X110648877Y-70705521D01*
X110636970Y-70811194D01*
X110632037Y-70832807D01*
X110598766Y-70927888D01*
X110589148Y-70947861D01*
X110535551Y-71033161D01*
X110521729Y-71050494D01*
X110450494Y-71121729D01*
X110433161Y-71135551D01*
X110347861Y-71189148D01*
X110327888Y-71198766D01*
X110232807Y-71232037D01*
X110211193Y-71236971D01*
X110105541Y-71248875D01*
X110094424Y-71249497D01*
X103030192Y-71247111D01*
X103030175Y-71247109D01*
X102988727Y-71247097D01*
X102979777Y-71246689D01*
X102894223Y-71238896D01*
X102876613Y-71235666D01*
X102798207Y-71213803D01*
X102781464Y-71207453D01*
X102708274Y-71171822D01*
X102692952Y-71162563D01*
X102623954Y-71111817D01*
X102616980Y-71106183D01*
X102015318Y-70573432D01*
X102015288Y-70573381D01*
X102015276Y-70573395D01*
X102015275Y-70573394D01*
X101979182Y-70541397D01*
X101979180Y-70541395D01*
X101979177Y-70541393D01*
X101979175Y-70541392D01*
X101863704Y-70465777D01*
X101863698Y-70465773D01*
X101863694Y-70465771D01*
X101863689Y-70465768D01*
X101863686Y-70465767D01*
X101816124Y-70443678D01*
X101738492Y-70407623D01*
X101658160Y-70383666D01*
X101606207Y-70368173D01*
X101606198Y-70368171D01*
X101469605Y-70348246D01*
X101469603Y-70348246D01*
X101423587Y-70348278D01*
X101400579Y-70348294D01*
X101400524Y-70348294D01*
X101399216Y-70348294D01*
X101360698Y-70348299D01*
X101360697Y-70348299D01*
X101354631Y-70348300D01*
X101354625Y-70348300D01*
X93605568Y-70349498D01*
X93594469Y-70348876D01*
X93488806Y-70336971D01*
X93467192Y-70332037D01*
X93372111Y-70298766D01*
X93352138Y-70289148D01*
X93266838Y-70235551D01*
X93249505Y-70221729D01*
X93178270Y-70150494D01*
X93164448Y-70133161D01*
X93110851Y-70047861D01*
X93101233Y-70027888D01*
X93067962Y-69932807D01*
X93063028Y-69911193D01*
X93059869Y-69883158D01*
X93051122Y-69805520D01*
X93050500Y-69794436D01*
X93050500Y-60855563D01*
X93051122Y-60844479D01*
X93063028Y-60738801D01*
X93067960Y-60717197D01*
X93101234Y-60622108D01*
X93110851Y-60602138D01*
X93164451Y-60516833D01*
X93178266Y-60499509D01*
X93249509Y-60428266D01*
X93266833Y-60414451D01*
X93352140Y-60360849D01*
X93372108Y-60351234D01*
X93467197Y-60317960D01*
X93488801Y-60313028D01*
X93594480Y-60301122D01*
X93605564Y-60300500D01*
X99233157Y-60300500D01*
X99233158Y-60300500D01*
X99396947Y-60271620D01*
X99553233Y-60214736D01*
X99553237Y-60214733D01*
X99553241Y-60214732D01*
X99635538Y-60167217D01*
X99697267Y-60131578D01*
X99824673Y-60024673D01*
X99931578Y-59897267D01*
X99999504Y-59779616D01*
X100014732Y-59753241D01*
X100014733Y-59753237D01*
X100014736Y-59753233D01*
X100071620Y-59596947D01*
X100100500Y-59433158D01*
X100100500Y-59350000D01*
X100100500Y-59310118D01*
X100100500Y-57808355D01*
X100110682Y-57777015D01*
X100109054Y-57770606D01*
X100287748Y-57770606D01*
X100297653Y-57795433D01*
X100315289Y-57929396D01*
X100315291Y-57929404D01*
X100375796Y-58075476D01*
X100375796Y-58075477D01*
X100472047Y-58200914D01*
X100472052Y-58200920D01*
X100472056Y-58200923D01*
X100472057Y-58200924D01*
X100485018Y-58210869D01*
X100597493Y-58297174D01*
X100597494Y-58297174D01*
X100597495Y-58297175D01*
X100743567Y-58357680D01*
X100743572Y-58357682D01*
X100861143Y-58373160D01*
X100900333Y-58378320D01*
X100900334Y-58378320D01*
X100900335Y-58378320D01*
X100931686Y-58374192D01*
X101057096Y-58357682D01*
X101203175Y-58297174D01*
X101328616Y-58200920D01*
X101396946Y-58111871D01*
X101447371Y-58077215D01*
X101475488Y-58073138D01*
X102808284Y-58073138D01*
X102866475Y-58092045D01*
X102886823Y-58111868D01*
X102962786Y-58210865D01*
X102962790Y-58210868D01*
X102962791Y-58210869D01*
X102992150Y-58233396D01*
X103088227Y-58307119D01*
X103088228Y-58307119D01*
X103088229Y-58307120D01*
X103234301Y-58367625D01*
X103234306Y-58367627D01*
X103351877Y-58383105D01*
X103391067Y-58388265D01*
X103391068Y-58388265D01*
X103391069Y-58388265D01*
X103422420Y-58384137D01*
X103547830Y-58367627D01*
X103693909Y-58307119D01*
X103819350Y-58210865D01*
X103915604Y-58085424D01*
X103976112Y-57939345D01*
X103996750Y-57782583D01*
X103976112Y-57625821D01*
X103962614Y-57593233D01*
X103915605Y-57479744D01*
X103915605Y-57479743D01*
X103819354Y-57354306D01*
X103819353Y-57354305D01*
X103819350Y-57354301D01*
X103819345Y-57354297D01*
X103819344Y-57354296D01*
X103748172Y-57299684D01*
X103693909Y-57258047D01*
X103693908Y-57258046D01*
X103693906Y-57258045D01*
X103547834Y-57197540D01*
X103547826Y-57197538D01*
X103391069Y-57176901D01*
X103391067Y-57176901D01*
X103234309Y-57197538D01*
X103234301Y-57197540D01*
X103088229Y-57258045D01*
X103088228Y-57258045D01*
X102962791Y-57354296D01*
X102962782Y-57354305D01*
X102902088Y-57433405D01*
X102851664Y-57468061D01*
X102823546Y-57472138D01*
X101475488Y-57472138D01*
X101417297Y-57453231D01*
X101396946Y-57433405D01*
X101328620Y-57344361D01*
X101328619Y-57344360D01*
X101328616Y-57344356D01*
X101328611Y-57344352D01*
X101328610Y-57344351D01*
X101220741Y-57261581D01*
X101203175Y-57248102D01*
X101203174Y-57248101D01*
X101203172Y-57248100D01*
X101057100Y-57187595D01*
X101057092Y-57187593D01*
X100900335Y-57166956D01*
X100900333Y-57166956D01*
X100743575Y-57187593D01*
X100743567Y-57187595D01*
X100597495Y-57248100D01*
X100597494Y-57248100D01*
X100472057Y-57344351D01*
X100472047Y-57344361D01*
X100375796Y-57469798D01*
X100375796Y-57469799D01*
X100315291Y-57615871D01*
X100315289Y-57615879D01*
X100297653Y-57749842D01*
X100287748Y-57770606D01*
X100109054Y-57770606D01*
X100100500Y-57736920D01*
X100100500Y-57505563D01*
X100101122Y-57494479D01*
X100102782Y-57479743D01*
X100113028Y-57388801D01*
X100117960Y-57367197D01*
X100151234Y-57272108D01*
X100160851Y-57252138D01*
X100163387Y-57248102D01*
X100214451Y-57166833D01*
X100228266Y-57149509D01*
X100299509Y-57078266D01*
X100316833Y-57064451D01*
X100402140Y-57010849D01*
X100422108Y-57001234D01*
X100517197Y-56967960D01*
X100538801Y-56963028D01*
X100644480Y-56951122D01*
X100655564Y-56950500D01*
X100689882Y-56950500D01*
X106361743Y-56950500D01*
X106419934Y-56969407D01*
G37*
%TD.AperFunction*%
%TA.AperFunction,Conductor*%
G36*
X102730113Y-63576407D02*
G01*
X102741925Y-63586496D01*
X103081003Y-63925573D01*
X103108781Y-63980090D01*
X103110000Y-63995577D01*
X103110000Y-66609422D01*
X103091093Y-66667613D01*
X103081004Y-66679426D01*
X102741926Y-67018504D01*
X102687409Y-67046281D01*
X102671922Y-67047500D01*
X101558079Y-67047500D01*
X101499888Y-67028593D01*
X101488075Y-67018504D01*
X101148996Y-66679425D01*
X101121219Y-66624908D01*
X101120000Y-66609421D01*
X101120000Y-63995577D01*
X101138907Y-63937386D01*
X101148996Y-63925573D01*
X101488073Y-63586496D01*
X101542590Y-63558719D01*
X101558077Y-63557500D01*
X102671922Y-63557500D01*
X102730113Y-63576407D01*
G37*
%TD.AperFunction*%
%TD*%
%TA.AperFunction,Conductor*%
%TO.N,VCC*%
G36*
X97406562Y-61321407D02*
G01*
X97430686Y-61346498D01*
X97505886Y-61459042D01*
X97505889Y-61459045D01*
X97603458Y-61556614D01*
X97718182Y-61633271D01*
X97718193Y-61633277D01*
X97765283Y-61652782D01*
X97845672Y-61686080D01*
X97907770Y-61698432D01*
X97961154Y-61728329D01*
X97986770Y-61783894D01*
X97974833Y-61843904D01*
X97929903Y-61885436D01*
X97914082Y-61891155D01*
X97886765Y-61898475D01*
X97857860Y-61906220D01*
X97726639Y-61981981D01*
X97619481Y-62089139D01*
X97543720Y-62220360D01*
X97524270Y-62292950D01*
X97504500Y-62366734D01*
X97504500Y-62518266D01*
X97522257Y-62584537D01*
X97543720Y-62664639D01*
X97619481Y-62795860D01*
X97619483Y-62795862D01*
X97619485Y-62795865D01*
X97726635Y-62903015D01*
X97726637Y-62903016D01*
X97726639Y-62903018D01*
X97857861Y-62978779D01*
X97857859Y-62978779D01*
X97857863Y-62978780D01*
X97857865Y-62978781D01*
X98000515Y-63017003D01*
X98051827Y-63050326D01*
X98073754Y-63107447D01*
X98057919Y-63166548D01*
X98044894Y-63182633D01*
X97710494Y-63517033D01*
X97655977Y-63544810D01*
X97653412Y-63545182D01*
X97503241Y-63564952D01*
X97503233Y-63564954D01*
X97357161Y-63625459D01*
X97357160Y-63625459D01*
X97231723Y-63721710D01*
X97231713Y-63721720D01*
X97135462Y-63847157D01*
X97135462Y-63847158D01*
X97074957Y-63993230D01*
X97074955Y-63993238D01*
X97054318Y-64149996D01*
X97054318Y-64149997D01*
X97074955Y-64306755D01*
X97074957Y-64306763D01*
X97135462Y-64452835D01*
X97135462Y-64452836D01*
X97204491Y-64542796D01*
X97224915Y-64600472D01*
X97207537Y-64659137D01*
X97186218Y-64681604D01*
X97139499Y-64717453D01*
X97139491Y-64717461D01*
X97043240Y-64842898D01*
X97043240Y-64842899D01*
X96982735Y-64988971D01*
X96982733Y-64988979D01*
X96962096Y-65145737D01*
X96962096Y-65145738D01*
X96982733Y-65302496D01*
X96982735Y-65302504D01*
X97043240Y-65448576D01*
X97043240Y-65448577D01*
X97140222Y-65574967D01*
X97160646Y-65632643D01*
X97143268Y-65691309D01*
X97121951Y-65713773D01*
X97117471Y-65717210D01*
X97117460Y-65717221D01*
X97021209Y-65842658D01*
X97021209Y-65842659D01*
X96960704Y-65988731D01*
X96960702Y-65988739D01*
X96940065Y-66145497D01*
X96940065Y-66145498D01*
X96960702Y-66302256D01*
X96960704Y-66302264D01*
X97021209Y-66448336D01*
X97021209Y-66448337D01*
X97117460Y-66573774D01*
X97117465Y-66573780D01*
X97242906Y-66670034D01*
X97242907Y-66670034D01*
X97242908Y-66670035D01*
X97248270Y-66672256D01*
X97388985Y-66730542D01*
X97506556Y-66746020D01*
X97545746Y-66751180D01*
X97545747Y-66751180D01*
X97545748Y-66751180D01*
X97577099Y-66747052D01*
X97702509Y-66730542D01*
X97848588Y-66670034D01*
X97974029Y-66573780D01*
X98070283Y-66448339D01*
X98070288Y-66448326D01*
X98072802Y-66443973D01*
X98109046Y-66407726D01*
X98146752Y-66385958D01*
X98202701Y-66330009D01*
X99000460Y-65532250D01*
X99040022Y-65463727D01*
X99060500Y-65387301D01*
X99060500Y-65308177D01*
X99060500Y-64189350D01*
X99079407Y-64131159D01*
X99089490Y-64119352D01*
X99276093Y-63932749D01*
X100914500Y-63932749D01*
X100914500Y-66672256D01*
X100926131Y-66730731D01*
X100926131Y-66730732D01*
X100959259Y-66780310D01*
X101387190Y-67208240D01*
X101436769Y-67241367D01*
X101436768Y-67241367D01*
X101456085Y-67245209D01*
X101495252Y-67253000D01*
X101495253Y-67253000D01*
X102734750Y-67253000D01*
X102734752Y-67253000D01*
X102793232Y-67241368D01*
X102842808Y-67208242D01*
X103270740Y-66780310D01*
X103303867Y-66730731D01*
X103315500Y-66672248D01*
X103315500Y-63932748D01*
X103303868Y-63874268D01*
X103303868Y-63874267D01*
X103270740Y-63824689D01*
X102842809Y-63396759D01*
X102793230Y-63363632D01*
X102793231Y-63363632D01*
X102734750Y-63352000D01*
X102734748Y-63352000D01*
X101495248Y-63352000D01*
X101495243Y-63352000D01*
X101436768Y-63363631D01*
X101436767Y-63363631D01*
X101387189Y-63396759D01*
X100959259Y-63824690D01*
X100926132Y-63874269D01*
X100914500Y-63932749D01*
X99276093Y-63932749D01*
X99840460Y-63368383D01*
X99869152Y-63318686D01*
X99880021Y-63299861D01*
X99900500Y-63223434D01*
X99900500Y-63065479D01*
X99919407Y-63007288D01*
X99929496Y-62995475D01*
X101092975Y-61831996D01*
X101147492Y-61804219D01*
X101162979Y-61803000D01*
X104284521Y-61803000D01*
X104342712Y-61821907D01*
X104354525Y-61831996D01*
X104815479Y-62292950D01*
X104843256Y-62347467D01*
X104844475Y-62362954D01*
X104844475Y-62584539D01*
X104864953Y-62660962D01*
X104864954Y-62660964D01*
X104867076Y-62664639D01*
X104896434Y-62715489D01*
X104896435Y-62715491D01*
X104904513Y-62729483D01*
X104904514Y-62729485D01*
X105314564Y-63139536D01*
X105370514Y-63195485D01*
X105439032Y-63235044D01*
X105439036Y-63235046D01*
X105515460Y-63255524D01*
X105515462Y-63255525D01*
X105515463Y-63255525D01*
X106184538Y-63255525D01*
X106184538Y-63255524D01*
X106260964Y-63235046D01*
X106329486Y-63195485D01*
X106385435Y-63139536D01*
X106645475Y-62879496D01*
X106699992Y-62851719D01*
X106715479Y-62850500D01*
X107974846Y-62850500D01*
X108033037Y-62869407D01*
X108053388Y-62889233D01*
X108121713Y-62978276D01*
X108121718Y-62978282D01*
X108121722Y-62978285D01*
X108121723Y-62978286D01*
X108122368Y-62978781D01*
X108247159Y-63074536D01*
X108393238Y-63135044D01*
X108510809Y-63150522D01*
X108549999Y-63155682D01*
X108550000Y-63155682D01*
X108550001Y-63155682D01*
X108581352Y-63151554D01*
X108706762Y-63135044D01*
X108730904Y-63125043D01*
X108791899Y-63120242D01*
X108844069Y-63152210D01*
X108867485Y-63208737D01*
X108860255Y-63254391D01*
X108853484Y-63270736D01*
X108853483Y-63270741D01*
X108832846Y-63427499D01*
X108832846Y-63427500D01*
X108853483Y-63584258D01*
X108853485Y-63584266D01*
X108913990Y-63730338D01*
X108913990Y-63730339D01*
X109010241Y-63855776D01*
X109010246Y-63855782D01*
X109135687Y-63952036D01*
X109135688Y-63952036D01*
X109135689Y-63952037D01*
X109235138Y-63993230D01*
X109281766Y-64012544D01*
X109399337Y-64028022D01*
X109438527Y-64033182D01*
X109438528Y-64033182D01*
X109438529Y-64033182D01*
X109469880Y-64029054D01*
X109595290Y-64012544D01*
X109701143Y-63968697D01*
X109762139Y-63963897D01*
X109814308Y-63995866D01*
X109837723Y-64052394D01*
X109838028Y-64060162D01*
X109838028Y-67302490D01*
X109819121Y-67360681D01*
X109769621Y-67396645D01*
X109751951Y-67400643D01*
X109643240Y-67414955D01*
X109643233Y-67414957D01*
X109497161Y-67475462D01*
X109497160Y-67475462D01*
X109371723Y-67571713D01*
X109371713Y-67571723D01*
X109275462Y-67697160D01*
X109275462Y-67697161D01*
X109214957Y-67843233D01*
X109214955Y-67843241D01*
X109194318Y-67999999D01*
X109194318Y-68000008D01*
X109194339Y-68000168D01*
X109194318Y-68000281D01*
X109194318Y-68006489D01*
X109193167Y-68006489D01*
X109183183Y-68060328D01*
X109138796Y-68102441D01*
X109083263Y-68111233D01*
X108948210Y-68093453D01*
X108948208Y-68093453D01*
X108791450Y-68114090D01*
X108791442Y-68114092D01*
X108645370Y-68174597D01*
X108645369Y-68174597D01*
X108519932Y-68270848D01*
X108519922Y-68270858D01*
X108423671Y-68396295D01*
X108423671Y-68396296D01*
X108363166Y-68542368D01*
X108363164Y-68542376D01*
X108342527Y-68699134D01*
X108342527Y-68699135D01*
X108363164Y-68855893D01*
X108363166Y-68855901D01*
X108423671Y-69001973D01*
X108423671Y-69001974D01*
X108498645Y-69099682D01*
X108519927Y-69127417D01*
X108645368Y-69223671D01*
X108725572Y-69256893D01*
X108737989Y-69262036D01*
X108784514Y-69301773D01*
X108798798Y-69361267D01*
X108775383Y-69417795D01*
X108723214Y-69449765D01*
X108700103Y-69452500D01*
X107160622Y-69452500D01*
X107102431Y-69433593D01*
X107066467Y-69384093D01*
X107063524Y-69372813D01*
X107053868Y-69324268D01*
X107053868Y-69324267D01*
X107020740Y-69274689D01*
X106592809Y-68846759D01*
X106543230Y-68813632D01*
X106543231Y-68813632D01*
X106484750Y-68802000D01*
X106484748Y-68802000D01*
X103745248Y-68802000D01*
X103745243Y-68802000D01*
X103686768Y-68813631D01*
X103686767Y-68813631D01*
X103637189Y-68846759D01*
X103209259Y-69274690D01*
X103176132Y-69324269D01*
X103166477Y-69372813D01*
X103136581Y-69426197D01*
X103081016Y-69451814D01*
X103069379Y-69452500D01*
X99891523Y-69452500D01*
X99833332Y-69433593D01*
X99800059Y-69391386D01*
X99772257Y-69324267D01*
X99770775Y-69320689D01*
X99770773Y-69320686D01*
X99770771Y-69320682D01*
X99694114Y-69205958D01*
X99596541Y-69108385D01*
X99481817Y-69031728D01*
X99481806Y-69031722D01*
X99354328Y-68978920D01*
X99218995Y-68952000D01*
X99218993Y-68952000D01*
X98333011Y-68952000D01*
X98274820Y-68933093D01*
X98238856Y-68883593D01*
X98238856Y-68822407D01*
X98274820Y-68772907D01*
X98296652Y-68762493D01*
X98296143Y-68761263D01*
X98302129Y-68758782D01*
X98302135Y-68758781D01*
X98394377Y-68705524D01*
X98433360Y-68683018D01*
X98433360Y-68683017D01*
X98433365Y-68683015D01*
X98540515Y-68575865D01*
X98616281Y-68444635D01*
X98655500Y-68298266D01*
X98655500Y-68146734D01*
X98616281Y-68000365D01*
X98616279Y-68000362D01*
X98616279Y-68000360D01*
X98540518Y-67869139D01*
X98540516Y-67869137D01*
X98540515Y-67869135D01*
X98433365Y-67761985D01*
X98433362Y-67761983D01*
X98433360Y-67761981D01*
X98302138Y-67686220D01*
X98302140Y-67686220D01*
X98245347Y-67671003D01*
X98155766Y-67647000D01*
X98004234Y-67647000D01*
X97914652Y-67671003D01*
X97857860Y-67686220D01*
X97726639Y-67761981D01*
X97619481Y-67869139D01*
X97543720Y-68000360D01*
X97527652Y-68060328D01*
X97504500Y-68146734D01*
X97504500Y-68298266D01*
X97530767Y-68396296D01*
X97543720Y-68444639D01*
X97619481Y-68575860D01*
X97619483Y-68575862D01*
X97619485Y-68575865D01*
X97726635Y-68683015D01*
X97726637Y-68683016D01*
X97726639Y-68683018D01*
X97857861Y-68758779D01*
X97857862Y-68758779D01*
X97857865Y-68758781D01*
X97914080Y-68773843D01*
X97965393Y-68807165D01*
X97987320Y-68864286D01*
X97971485Y-68923387D01*
X97923936Y-68961893D01*
X97907772Y-68966566D01*
X97845678Y-68978918D01*
X97845670Y-68978920D01*
X97718193Y-69031722D01*
X97718182Y-69031728D01*
X97603458Y-69108385D01*
X97505885Y-69205958D01*
X97429228Y-69320682D01*
X97429224Y-69320690D01*
X97399941Y-69391386D01*
X97360204Y-69437912D01*
X97308477Y-69452500D01*
X95999000Y-69452500D01*
X95940809Y-69433593D01*
X95904845Y-69384093D01*
X95900000Y-69353500D01*
X95900000Y-61401500D01*
X95918907Y-61343309D01*
X95968407Y-61307345D01*
X95999000Y-61302500D01*
X97348371Y-61302500D01*
X97406562Y-61321407D01*
G37*
%TD.AperFunction*%
%TD*%
M02*
