%TF.GenerationSoftware,KiCad,Pcbnew,8.0.6-8.0.6-0~ubuntu24.04.1*%
%TF.CreationDate,2024-11-20T23:40:03+01:00*%
%TF.ProjectId,lumen_PD,6c756d65-6e5f-4504-942e-6b696361645f,rev?*%
%TF.SameCoordinates,Original*%
%TF.FileFunction,Legend,Top*%
%TF.FilePolarity,Positive*%
%FSLAX46Y46*%
G04 Gerber Fmt 4.6, Leading zero omitted, Abs format (unit mm)*
G04 Created by KiCad (PCBNEW 8.0.6-8.0.6-0~ubuntu24.04.1) date 2024-11-20 23:40:03*
%MOMM*%
%LPD*%
G01*
G04 APERTURE LIST*
%ADD10C,0.250000*%
%ADD11C,0.100000*%
%ADD12C,0.120000*%
G04 APERTURE END LIST*
D10*
X107259523Y-67614619D02*
X106783333Y-67614619D01*
X106783333Y-67614619D02*
X106735714Y-68090809D01*
X106735714Y-68090809D02*
X106783333Y-68043190D01*
X106783333Y-68043190D02*
X106878571Y-67995571D01*
X106878571Y-67995571D02*
X107116666Y-67995571D01*
X107116666Y-67995571D02*
X107211904Y-68043190D01*
X107211904Y-68043190D02*
X107259523Y-68090809D01*
X107259523Y-68090809D02*
X107307142Y-68186047D01*
X107307142Y-68186047D02*
X107307142Y-68424142D01*
X107307142Y-68424142D02*
X107259523Y-68519380D01*
X107259523Y-68519380D02*
X107211904Y-68567000D01*
X107211904Y-68567000D02*
X107116666Y-68614619D01*
X107116666Y-68614619D02*
X106878571Y-68614619D01*
X106878571Y-68614619D02*
X106783333Y-68567000D01*
X106783333Y-68567000D02*
X106735714Y-68519380D01*
X107592857Y-67614619D02*
X107926190Y-68614619D01*
X107926190Y-68614619D02*
X108259523Y-67614619D01*
X107538095Y-70314619D02*
X107538095Y-69314619D01*
X107538095Y-69314619D02*
X107919047Y-69314619D01*
X107919047Y-69314619D02*
X108014285Y-69362238D01*
X108014285Y-69362238D02*
X108061904Y-69409857D01*
X108061904Y-69409857D02*
X108109523Y-69505095D01*
X108109523Y-69505095D02*
X108109523Y-69647952D01*
X108109523Y-69647952D02*
X108061904Y-69743190D01*
X108061904Y-69743190D02*
X108014285Y-69790809D01*
X108014285Y-69790809D02*
X107919047Y-69838428D01*
X107919047Y-69838428D02*
X107538095Y-69838428D01*
X109061904Y-69362238D02*
X108966666Y-69314619D01*
X108966666Y-69314619D02*
X108823809Y-69314619D01*
X108823809Y-69314619D02*
X108680952Y-69362238D01*
X108680952Y-69362238D02*
X108585714Y-69457476D01*
X108585714Y-69457476D02*
X108538095Y-69552714D01*
X108538095Y-69552714D02*
X108490476Y-69743190D01*
X108490476Y-69743190D02*
X108490476Y-69886047D01*
X108490476Y-69886047D02*
X108538095Y-70076523D01*
X108538095Y-70076523D02*
X108585714Y-70171761D01*
X108585714Y-70171761D02*
X108680952Y-70267000D01*
X108680952Y-70267000D02*
X108823809Y-70314619D01*
X108823809Y-70314619D02*
X108919047Y-70314619D01*
X108919047Y-70314619D02*
X109061904Y-70267000D01*
X109061904Y-70267000D02*
X109109523Y-70219380D01*
X109109523Y-70219380D02*
X109109523Y-69886047D01*
X109109523Y-69886047D02*
X108919047Y-69886047D01*
X101530952Y-68614619D02*
X100959524Y-68614619D01*
X101245238Y-68614619D02*
X101245238Y-67614619D01*
X101245238Y-67614619D02*
X101150000Y-67757476D01*
X101150000Y-67757476D02*
X101054762Y-67852714D01*
X101054762Y-67852714D02*
X100959524Y-67900333D01*
X102435714Y-67614619D02*
X101959524Y-67614619D01*
X101959524Y-67614619D02*
X101911905Y-68090809D01*
X101911905Y-68090809D02*
X101959524Y-68043190D01*
X101959524Y-68043190D02*
X102054762Y-67995571D01*
X102054762Y-67995571D02*
X102292857Y-67995571D01*
X102292857Y-67995571D02*
X102388095Y-68043190D01*
X102388095Y-68043190D02*
X102435714Y-68090809D01*
X102435714Y-68090809D02*
X102483333Y-68186047D01*
X102483333Y-68186047D02*
X102483333Y-68424142D01*
X102483333Y-68424142D02*
X102435714Y-68519380D01*
X102435714Y-68519380D02*
X102388095Y-68567000D01*
X102388095Y-68567000D02*
X102292857Y-68614619D01*
X102292857Y-68614619D02*
X102054762Y-68614619D01*
X102054762Y-68614619D02*
X101959524Y-68567000D01*
X101959524Y-68567000D02*
X101911905Y-68519380D01*
X102769048Y-67614619D02*
X103102381Y-68614619D01*
X103102381Y-68614619D02*
X103435714Y-67614619D01*
D11*
%TO.C,D1*%
X109850000Y-68760000D02*
G75*
G02*
X109750000Y-68760000I-50000J0D01*
G01*
X109750000Y-68760000D02*
G75*
G02*
X109850000Y-68760000I50000J0D01*
G01*
D12*
%TO.C,R5*%
X105770000Y-64603641D02*
X105770000Y-64296359D01*
X106530000Y-64603641D02*
X106530000Y-64296359D01*
%TO.C,J1*%
X95405000Y-69912500D02*
X97325000Y-69912500D01*
X97325000Y-60752500D02*
X95405000Y-60752500D01*
%TO.C,R4*%
X103670000Y-64296359D02*
X103670000Y-64603641D01*
X104430000Y-64296359D02*
X104430000Y-64603641D01*
%TO.C,U1*%
X107150000Y-57967500D02*
X105200000Y-57967500D01*
X107150000Y-57967500D02*
X109100000Y-57967500D01*
X107150000Y-63087500D02*
X105200000Y-63087500D01*
X107150000Y-63087500D02*
X109100000Y-63087500D01*
D10*
X105875000Y-58527500D02*
G75*
G02*
X105625000Y-58527500I-125000J0D01*
G01*
X105625000Y-58527500D02*
G75*
G02*
X105875000Y-58527500I125000J0D01*
G01*
D12*
%TO.C,R2*%
X105203641Y-56922500D02*
X104896359Y-56922500D01*
X105203641Y-57682500D02*
X104896359Y-57682500D01*
%TO.C,U2*%
X100155000Y-59940000D02*
X100155000Y-59140000D01*
X100155000Y-59940000D02*
X100155000Y-60740000D01*
X103275000Y-59940000D02*
X103275000Y-59140000D01*
X103275000Y-59940000D02*
X103275000Y-60740000D01*
%TO.C,C3*%
X102107164Y-62180000D02*
X102322836Y-62180000D01*
X102107164Y-62900000D02*
X102322836Y-62900000D01*
%TO.C,C2*%
X102107164Y-56980000D02*
X102322836Y-56980000D01*
X102107164Y-57700000D02*
X102322836Y-57700000D01*
%TO.C,R3*%
X108903641Y-56920000D02*
X108596359Y-56920000D01*
X108903641Y-57680000D02*
X108596359Y-57680000D01*
%TO.C,R1*%
X109520000Y-65003641D02*
X109520000Y-64696359D01*
X110280000Y-65003641D02*
X110280000Y-64696359D01*
%TD*%
M02*
